<mxfile host="app.diagrams.net" modified="2024-04-11T13:42:37.910Z" agent="Mozilla/5.0 (Windows NT 10.0; Win64; x64) AppleWebKit/537.36 (KHTML, like Gecko) Chrome/123.0.0.0 Safari/537.36" etag="8ydfjhyX656AHTpsWRZB" version="24.2.3" type="github" pages="3">
  <diagram id="nKFnPByBBdyIxAdY_Jg6" name="O2F">
    <mxGraphModel dx="1674" dy="1846" grid="1" gridSize="10" guides="1" tooltips="1" connect="1" arrows="1" fold="1" page="1" pageScale="1" pageWidth="850" pageHeight="1100" math="0" shadow="0">
      <root>
        <mxCell id="0" />
        <mxCell id="1" parent="0" />
        <mxCell id="OogJ-4E8qFxZq5jLhfaN-1" value="&lt;div style=&quot;font-size: 12px&quot; align=&quot;left&quot;&gt;&lt;font style=&quot;font-size: 12px&quot;&gt;&lt;b&gt;NOTES&lt;/b&gt;&lt;/font&gt;&lt;/div&gt;&lt;div style=&quot;font-size: 12px&quot; align=&quot;left&quot;&gt;&lt;font style=&quot;font-size: 12px&quot;&gt;&lt;br&gt;&lt;/font&gt;&lt;/div&gt;&lt;div style=&quot;font-size: 12px&quot; align=&quot;left&quot;&gt;&lt;font style=&quot;font-size: 12px&quot;&gt;1. Showmax customer lock verification is done by the DNO/ISP&lt;/font&gt;&lt;/div&gt;&lt;div style=&quot;font-size: 12px&quot; align=&quot;left&quot;&gt;&lt;span style=&quot;text-align: center&quot;&gt;before the order is submitted and the orchestration starts&lt;/span&gt;&lt;/div&gt;&lt;div style=&quot;font-size: 12px&quot; align=&quot;left&quot;&gt;&lt;span style=&quot;text-align: center&quot;&gt;&lt;br&gt;&lt;/span&gt;&lt;/div&gt;&lt;div style=&quot;font-size: 12px&quot; align=&quot;left&quot;&gt;&lt;span style=&quot;text-align: center&quot;&gt;2. If an existing customer purchases an additional DvS offer,&amp;nbsp;&lt;/span&gt;&lt;/div&gt;&lt;div style=&quot;font-size: 12px&quot; align=&quot;left&quot;&gt;&lt;span style=&quot;text-align: center&quot;&gt;the activation email should be sent for that new offer&lt;/span&gt;&lt;/div&gt;&lt;div style=&quot;font-size: 12px&quot; align=&quot;left&quot;&gt;&lt;font style=&quot;font-size: 12px&quot;&gt;&lt;br&gt;&lt;/font&gt;&lt;/div&gt;&lt;div style=&quot;font-size: 12px&quot; align=&quot;left&quot;&gt;3. SAP Events&lt;/div&gt;&lt;div style=&quot;font-size: 12px&quot; align=&quot;left&quot;&gt;&lt;div align=&quot;left&quot;&gt;POH - Proof of Handover (Picked&amp;amp;Packed)&lt;/div&gt;&lt;div align=&quot;left&quot;&gt;POA - Proof of Acceptance (Courier accepted)&lt;/div&gt;&lt;div align=&quot;left&quot;&gt;POD - Proof of Delivery (Customer accepted)&lt;/div&gt;&lt;/div&gt;" style="text;html=1;resizable=0;autosize=1;align=center;verticalAlign=middle;points=[];fillColor=none;strokeColor=none;rounded=0;dashed=1;fontSize=10;" parent="1" vertex="1">
          <mxGeometry x="29" y="-110" width="345" height="148" as="geometry" />
        </mxCell>
        <mxCell id="OogJ-4E8qFxZq5jLhfaN-2" value="" style="group" parent="1" connectable="0" vertex="1">
          <mxGeometry x="550" y="-106" width="245" height="138" as="geometry" />
        </mxCell>
        <mxCell id="OogJ-4E8qFxZq5jLhfaN-3" value="" style="rounded=1;whiteSpace=wrap;html=1;fillColor=#e1d5e7;strokeColor=#9673a6;" parent="OogJ-4E8qFxZq5jLhfaN-2" vertex="1">
          <mxGeometry y="29" width="50" height="20" as="geometry" />
        </mxCell>
        <mxCell id="OogJ-4E8qFxZq5jLhfaN-4" value="Callouts To 3P External Systems" style="text;html=1;align=center;verticalAlign=middle;resizable=0;points=[];autosize=1;strokeColor=none;" parent="OogJ-4E8qFxZq5jLhfaN-2" vertex="1">
          <mxGeometry x="52" y="30" width="184" height="18" as="geometry" />
        </mxCell>
        <mxCell id="OogJ-4E8qFxZq5jLhfaN-5" value="" style="group" parent="OogJ-4E8qFxZq5jLhfaN-2" connectable="0" vertex="1">
          <mxGeometry width="240" height="138" as="geometry" />
        </mxCell>
        <mxCell id="OogJ-4E8qFxZq5jLhfaN-6" value="" style="group" parent="OogJ-4E8qFxZq5jLhfaN-5" connectable="0" vertex="1">
          <mxGeometry width="230" height="108" as="geometry" />
        </mxCell>
        <mxCell id="OogJ-4E8qFxZq5jLhfaN-7" value="" style="group" parent="OogJ-4E8qFxZq5jLhfaN-6" connectable="0" vertex="1">
          <mxGeometry y="58" width="230" height="50" as="geometry" />
        </mxCell>
        <mxCell id="OogJ-4E8qFxZq5jLhfaN-8" value="" style="rounded=1;whiteSpace=wrap;html=1;fillColor=#ffe6cc;strokeColor=#d79b00;" parent="OogJ-4E8qFxZq5jLhfaN-7" vertex="1">
          <mxGeometry width="50" height="20" as="geometry" />
        </mxCell>
        <mxCell id="OogJ-4E8qFxZq5jLhfaN-9" value="Callouts To MC External Systems" style="text;html=1;align=center;verticalAlign=middle;resizable=0;points=[];autosize=1;strokeColor=none;" parent="OogJ-4E8qFxZq5jLhfaN-7" vertex="1">
          <mxGeometry x="51" width="190" height="20" as="geometry" />
        </mxCell>
        <mxCell id="OogJ-4E8qFxZq5jLhfaN-10" value="" style="rounded=1;whiteSpace=wrap;html=1;fillColor=#d5e8d4;strokeColor=#82b366;" parent="OogJ-4E8qFxZq5jLhfaN-7" vertex="1">
          <mxGeometry y="30" width="50" height="20" as="geometry" />
        </mxCell>
        <mxCell id="OogJ-4E8qFxZq5jLhfaN-11" value="Vlocity Internal Action" style="text;html=1;align=center;verticalAlign=middle;resizable=0;points=[];autosize=1;strokeColor=none;" parent="OogJ-4E8qFxZq5jLhfaN-7" vertex="1">
          <mxGeometry x="50" y="30" width="130" height="20" as="geometry" />
        </mxCell>
        <mxCell id="OogJ-4E8qFxZq5jLhfaN-12" value="&lt;b&gt;Legend&lt;/b&gt;" style="text;html=1;align=center;verticalAlign=middle;resizable=0;points=[];autosize=1;strokeColor=none;" parent="OogJ-4E8qFxZq5jLhfaN-6" vertex="1">
          <mxGeometry width="60" height="20" as="geometry" />
        </mxCell>
        <mxCell id="OogJ-4E8qFxZq5jLhfaN-13" value="" style="rounded=1;whiteSpace=wrap;html=1;fillColor=#dae8fc;strokeColor=#6c8ebf;" parent="OogJ-4E8qFxZq5jLhfaN-5" vertex="1">
          <mxGeometry y="118" width="50" height="20" as="geometry" />
        </mxCell>
        <mxCell id="OogJ-4E8qFxZq5jLhfaN-14" value="Milestones" style="text;html=1;align=left;verticalAlign=middle;resizable=0;points=[];autosize=1;strokeColor=none;" parent="OogJ-4E8qFxZq5jLhfaN-5" vertex="1">
          <mxGeometry x="57.5" y="118" width="70" height="20" as="geometry" />
        </mxCell>
        <mxCell id="OogJ-4E8qFxZq5jLhfaN-15" value="" style="rounded=1;whiteSpace=wrap;html=1;sketch=1;" parent="OogJ-4E8qFxZq5jLhfaN-5" vertex="1">
          <mxGeometry x="139" y="118" width="50" height="20" as="geometry" />
        </mxCell>
        <mxCell id="OogJ-4E8qFxZq5jLhfaN-16" value="Call-in" style="text;html=1;align=center;verticalAlign=middle;resizable=0;points=[];autosize=1;strokeColor=none;fillColor=none;" parent="OogJ-4E8qFxZq5jLhfaN-5" vertex="1">
          <mxGeometry x="196" y="119" width="44" height="18" as="geometry" />
        </mxCell>
        <mxCell id="OogJ-4E8qFxZq5jLhfaN-17" value="Amoeba" style="swimlane;horizontal=0;fontSize=13;dashed=1;" parent="1" vertex="1">
          <mxGeometry x="13.5" y="-711" width="821" height="93" as="geometry">
            <mxRectangle x="40" y="40" width="30" height="90" as="alternateBounds" />
          </mxGeometry>
        </mxCell>
        <mxCell id="OogJ-4E8qFxZq5jLhfaN-18" style="edgeStyle=orthogonalEdgeStyle;rounded=0;orthogonalLoop=1;jettySize=auto;html=1;exitX=1;exitY=0.5;exitDx=0;exitDy=0;entryX=0;entryY=0.5;entryDx=0;entryDy=0;" parent="OogJ-4E8qFxZq5jLhfaN-17" source="OogJ-4E8qFxZq5jLhfaN-19" target="OogJ-4E8qFxZq5jLhfaN-22" edge="1">
          <mxGeometry relative="1" as="geometry" />
        </mxCell>
        <mxCell id="OogJ-4E8qFxZq5jLhfaN-19" value="Fiber Installation&lt;br&gt;TMF641" style="rounded=1;whiteSpace=wrap;html=1;fillColor=#e1d5e7;strokeColor=#9673a6;sketch=0;" parent="OogJ-4E8qFxZq5jLhfaN-17" vertex="1">
          <mxGeometry x="71" y="43" width="120" height="40" as="geometry" />
        </mxCell>
        <mxCell id="OogJ-4E8qFxZq5jLhfaN-20" value="Fiber Installation&lt;br&gt;Completion" style="rounded=1;whiteSpace=wrap;html=1;fillColor=#e1d5e7;strokeColor=#9673a6;sketch=1;" parent="OogJ-4E8qFxZq5jLhfaN-17" vertex="1">
          <mxGeometry x="599" y="43.5" width="120" height="40" as="geometry" />
        </mxCell>
        <mxCell id="OogJ-4E8qFxZq5jLhfaN-21" style="edgeStyle=orthogonalEdgeStyle;rounded=0;orthogonalLoop=1;jettySize=auto;html=1;exitX=1;exitY=0.5;exitDx=0;exitDy=0;entryX=0;entryY=0.5;entryDx=0;entryDy=0;" parent="OogJ-4E8qFxZq5jLhfaN-17" source="OogJ-4E8qFxZq5jLhfaN-22" target="OogJ-4E8qFxZq5jLhfaN-20" edge="1">
          <mxGeometry relative="1" as="geometry" />
        </mxCell>
        <mxCell id="OogJ-4E8qFxZq5jLhfaN-22" value="Send &lt;br&gt;Serial Numbers" style="rounded=1;whiteSpace=wrap;html=1;fillColor=#e1d5e7;strokeColor=#9673a6;sketch=0;" parent="OogJ-4E8qFxZq5jLhfaN-17" vertex="1">
          <mxGeometry x="449" y="43.5" width="120" height="40" as="geometry" />
        </mxCell>
        <mxCell id="OogJ-4E8qFxZq5jLhfaN-23" value="&lt;div style=&quot;text-align: left&quot;&gt;&lt;span style=&quot;font-size: 10px&quot;&gt;Returns LeadId ASYNC (in FiberInstallationCallback API)&lt;/span&gt;&lt;/div&gt;&lt;div style=&quot;text-align: left&quot;&gt;&lt;span style=&quot;font-size: 10px&quot;&gt;Returns correlationId SYNC&lt;/span&gt;&lt;/div&gt;" style="text;html=1;align=center;verticalAlign=middle;resizable=0;points=[];autosize=1;strokeColor=none;fillColor=none;" parent="OogJ-4E8qFxZq5jLhfaN-17" vertex="1">
          <mxGeometry x="139" y="-3" width="270" height="41" as="geometry" />
        </mxCell>
        <mxCell id="OogJ-4E8qFxZq5jLhfaN-24" value="&lt;font style=&quot;font-size: 10px;&quot;&gt;This API can be called only when LeadId &lt;br&gt;has been returned asynchronous&lt;/font&gt;" style="text;html=1;align=center;verticalAlign=middle;resizable=0;points=[];autosize=1;strokeColor=none;fillColor=none;" parent="OogJ-4E8qFxZq5jLhfaN-17" vertex="1">
          <mxGeometry x="413" y="5" width="198" height="41" as="geometry" />
        </mxCell>
        <mxCell id="OogJ-4E8qFxZq5jLhfaN-25" value="ICX" style="swimlane;horizontal=0;fontSize=13;dashed=1;startSize=23;" parent="1" vertex="1">
          <mxGeometry x="13.5" y="-618" width="821" height="77" as="geometry">
            <mxRectangle x="40" y="40" width="30" height="90" as="alternateBounds" />
          </mxGeometry>
        </mxCell>
        <mxCell id="OogJ-4E8qFxZq5jLhfaN-26" value="API to start Billing" style="rounded=1;whiteSpace=wrap;html=1;fillColor=#ffe6cc;strokeColor=#d79b00;" parent="OogJ-4E8qFxZq5jLhfaN-25" vertex="1">
          <mxGeometry x="599.5" y="27" width="120" height="40" as="geometry" />
        </mxCell>
        <mxCell id="OogJ-4E8qFxZq5jLhfaN-27" value="&lt;b&gt;&lt;font style=&quot;font-size: 12px;&quot;&gt;One2Fibre&lt;/font&gt;&lt;/b&gt;&lt;b&gt;&lt;font style=&quot;font-size: 12px&quot;&gt;: Order Provisioning Process for New Purchase - Clarity order&lt;/font&gt;&lt;/b&gt;" style="rounded=0;whiteSpace=wrap;html=1;fillColor=#f5f5f5;strokeColor=#666666;fontSize=11;fontColor=#333333;" parent="1" vertex="1">
          <mxGeometry y="-1100" width="850" height="35" as="geometry" />
        </mxCell>
        <mxCell id="OogJ-4E8qFxZq5jLhfaN-28" value="Notif. Engine" style="swimlane;horizontal=0;dashed=1;" parent="1" vertex="1">
          <mxGeometry x="13" y="-441" width="820" height="102" as="geometry" />
        </mxCell>
        <mxCell id="OogJ-4E8qFxZq5jLhfaN-29" value="The activation communication will be sent by ICX" style="text;html=1;align=center;verticalAlign=middle;resizable=0;points=[];autosize=1;strokeColor=none;fillColor=none;" parent="OogJ-4E8qFxZq5jLhfaN-28" vertex="1">
          <mxGeometry x="230.5" y="84" width="271" height="18" as="geometry" />
        </mxCell>
        <mxCell id="OogJ-4E8qFxZq5jLhfaN-30" value="Send Next Step Communication" style="rounded=1;whiteSpace=wrap;html=1;fillColor=#ffe6cc;strokeColor=#d79b00;" parent="OogJ-4E8qFxZq5jLhfaN-28" vertex="1">
          <mxGeometry x="69.5" y="27" width="120" height="40" as="geometry" />
        </mxCell>
        <mxCell id="OogJ-4E8qFxZq5jLhfaN-33" value="Send Delivery POD and Fiber Installation" style="rounded=1;whiteSpace=wrap;html=1;fillColor=#ffe6cc;strokeColor=#d79b00;" parent="OogJ-4E8qFxZq5jLhfaN-28" vertex="1">
          <mxGeometry x="466.5" y="27" width="120" height="40" as="geometry" />
        </mxCell>
        <mxCell id="OogJ-4E8qFxZq5jLhfaN-36" value="Vlocity" style="swimlane;horizontal=0;container=0;dashed=1;" parent="1" vertex="1">
          <mxGeometry x="13.5" y="-541" width="820" height="100" as="geometry" />
        </mxCell>
        <mxCell id="OogJ-4E8qFxZq5jLhfaN-37" value="Assetize" style="rounded=1;whiteSpace=wrap;html=1;fillColor=#d5e8d4;strokeColor=#82b366;" parent="OogJ-4E8qFxZq5jLhfaN-36" vertex="1">
          <mxGeometry x="490" y="30" width="120" height="40" as="geometry" />
        </mxCell>
        <mxCell id="OogJ-4E8qFxZq5jLhfaN-38" value="WebMethods" style="swimlane;horizontal=0;fontSize=13;dashed=1;startSize=23;" parent="1" vertex="1">
          <mxGeometry x="13.5" y="-913" width="821" height="101" as="geometry">
            <mxRectangle x="40" y="40" width="30" height="90" as="alternateBounds" />
          </mxGeometry>
        </mxCell>
        <mxCell id="OogJ-4E8qFxZq5jLhfaN-39" value="Post Sales Order Information" style="rounded=1;whiteSpace=wrap;html=1;fillColor=#ffe6cc;strokeColor=#d79b00;sketch=1;fillStyle=solid;" parent="OogJ-4E8qFxZq5jLhfaN-38" vertex="1">
          <mxGeometry x="73.5" y="34" width="120" height="40" as="geometry" />
        </mxCell>
        <mxCell id="OogJ-4E8qFxZq5jLhfaN-40" value="&lt;div style=&quot;text-align: left&quot;&gt;&lt;span style=&quot;font-size: 10px&quot;&gt;Post Salesforce Id, SAP Sales Order Id, Agreement Ids, Source System, ICX Customer ID&lt;/span&gt;&lt;/div&gt;" style="text;html=1;align=center;verticalAlign=middle;resizable=0;points=[];autosize=1;strokeColor=none;fillColor=none;" parent="OogJ-4E8qFxZq5jLhfaN-38" vertex="1">
          <mxGeometry x="306.5" y="41.5" width="408" height="18" as="geometry" />
        </mxCell>
        <mxCell id="OogJ-4E8qFxZq5jLhfaN-52" style="edgeStyle=orthogonalEdgeStyle;rounded=0;orthogonalLoop=1;jettySize=auto;html=1;exitX=1;exitY=0.5;exitDx=0;exitDy=0;entryX=0;entryY=0.5;entryDx=0;entryDy=0;" parent="1" source="OogJ-4E8qFxZq5jLhfaN-54" target="OogJ-4E8qFxZq5jLhfaN-22" edge="1">
          <mxGeometry relative="1" as="geometry" />
        </mxCell>
        <mxCell id="OogJ-4E8qFxZq5jLhfaN-53" value="SAP" style="swimlane;horizontal=0;fontSize=13;dashed=1;" parent="1" vertex="1">
          <mxGeometry x="13.5" y="-812" width="821" height="102" as="geometry">
            <mxRectangle x="40" y="40" width="30" height="90" as="alternateBounds" />
          </mxGeometry>
        </mxCell>
        <mxCell id="OogJ-4E8qFxZq5jLhfaN-54" value="&lt;div&gt;SAP Hardware provisioning Event POH&lt;/div&gt;" style="rounded=1;whiteSpace=wrap;html=1;fillColor=#ffe6cc;strokeColor=#d79b00;sketch=1;" parent="OogJ-4E8qFxZq5jLhfaN-53" vertex="1">
          <mxGeometry x="242" y="52" width="120" height="40" as="geometry" />
        </mxCell>
        <mxCell id="OogJ-4E8qFxZq5jLhfaN-55" value="&lt;div style=&quot;text-align: left&quot;&gt;&lt;span style=&quot;font-size: 10px&quot;&gt;If POD comes before POH, complete both steps (sometimes SAP doesn&#39;t send the POH)&lt;/span&gt;&lt;/div&gt;&lt;div style=&quot;text-align: left&quot;&gt;&lt;span style=&quot;font-size: 10px&quot;&gt;If POH comes, complete anyway the step&amp;nbsp;&lt;/span&gt;&lt;/div&gt;" style="text;html=1;align=center;verticalAlign=middle;resizable=0;points=[];autosize=1;strokeColor=none;fillColor=none;" parent="OogJ-4E8qFxZq5jLhfaN-53" vertex="1">
          <mxGeometry x="406" y="35" width="404" height="32" as="geometry" />
        </mxCell>
        <mxCell id="OogJ-4E8qFxZq5jLhfaN-56" value="&lt;div&gt;SAP Hardware provisioning Completion POD&lt;/div&gt;" style="rounded=1;whiteSpace=wrap;html=1;fillColor=#ffe6cc;strokeColor=#d79b00;sketch=1;" parent="OogJ-4E8qFxZq5jLhfaN-53" vertex="1">
          <mxGeometry x="242" y="4" width="120" height="40" as="geometry" />
        </mxCell>
        <mxCell id="OogJ-4E8qFxZq5jLhfaN-57" style="edgeStyle=orthogonalEdgeStyle;rounded=0;orthogonalLoop=1;jettySize=auto;html=1;exitX=0.5;exitY=1;exitDx=0;exitDy=0;entryX=0.5;entryY=0;entryDx=0;entryDy=0;" parent="1" source="OogJ-4E8qFxZq5jLhfaN-20" target="OogJ-4E8qFxZq5jLhfaN-26" edge="1">
          <mxGeometry relative="1" as="geometry" />
        </mxCell>
        <mxCell id="OogJ-4E8qFxZq5jLhfaN-58" style="edgeStyle=orthogonalEdgeStyle;rounded=0;orthogonalLoop=1;jettySize=auto;html=1;exitX=1;exitY=0.5;exitDx=0;exitDy=0;entryX=1;entryY=0.5;entryDx=0;entryDy=0;" parent="1" source="OogJ-4E8qFxZq5jLhfaN-56" target="OogJ-4E8qFxZq5jLhfaN-26" edge="1">
          <mxGeometry relative="1" as="geometry" />
        </mxCell>
        <mxCell id="OogJ-4E8qFxZq5jLhfaN-59" style="edgeStyle=orthogonalEdgeStyle;rounded=0;orthogonalLoop=1;jettySize=auto;html=1;exitX=0.25;exitY=1;exitDx=0;exitDy=0;entryX=0;entryY=0;entryDx=0;entryDy=0;" parent="1" edge="1">
          <mxGeometry relative="1" as="geometry">
            <mxPoint x="147" y="-839" as="sourcePoint" />
            <mxPoint x="147.5" y="-668" as="targetPoint" />
            <Array as="points">
              <mxPoint x="147.5" y="-758" />
              <mxPoint x="147.5" y="-758" />
            </Array>
          </mxGeometry>
        </mxCell>
        <mxCell id="OogJ-4E8qFxZq5jLhfaN-60" style="edgeStyle=orthogonalEdgeStyle;rounded=0;orthogonalLoop=1;jettySize=auto;html=1;exitX=0;exitY=0.5;exitDx=0;exitDy=0;entryX=0.5;entryY=0;entryDx=0;entryDy=0;" parent="1" source="OogJ-4E8qFxZq5jLhfaN-26" target="OogJ-4E8qFxZq5jLhfaN-37" edge="1">
          <mxGeometry relative="1" as="geometry" />
        </mxCell>
        <mxCell id="OogJ-4E8qFxZq5jLhfaN-61" style="edgeStyle=orthogonalEdgeStyle;rounded=0;orthogonalLoop=1;jettySize=auto;html=1;exitX=1;exitY=0.5;exitDx=0;exitDy=0;entryX=0.5;entryY=1;entryDx=0;entryDy=0;" parent="1" source="OogJ-4E8qFxZq5jLhfaN-37" target="OogJ-4E8qFxZq5jLhfaN-64" edge="1">
          <mxGeometry relative="1" as="geometry">
            <mxPoint x="802.5" y="-848" as="targetPoint" />
            <Array as="points">
              <mxPoint x="623" y="-490" />
              <mxPoint x="805" y="-490" />
              <mxPoint x="805" y="-864" />
              <mxPoint x="743" y="-864" />
            </Array>
          </mxGeometry>
        </mxCell>
        <mxCell id="OogJ-4E8qFxZq5jLhfaN-62" value="Milestones" style="swimlane;horizontal=0;fontSize=13;dashed=1;" parent="1" vertex="1">
          <mxGeometry x="13" y="-1029" width="821.5" height="116" as="geometry">
            <mxRectangle x="40" y="40" width="30" height="90" as="alternateBounds" />
          </mxGeometry>
        </mxCell>
        <mxCell id="OogJ-4E8qFxZq5jLhfaN-63" value="Start Order &lt;br&gt;Activation" style="rounded=1;whiteSpace=wrap;html=1;fillColor=#dae8fc;strokeColor=#6c8ebf;" parent="OogJ-4E8qFxZq5jLhfaN-62" vertex="1">
          <mxGeometry x="41" y="25" width="120" height="40" as="geometry" />
        </mxCell>
        <mxCell id="OogJ-4E8qFxZq5jLhfaN-64" value="End Order &lt;br&gt;Activation" style="rounded=1;whiteSpace=wrap;html=1;fillColor=#dae8fc;strokeColor=#6c8ebf;" parent="OogJ-4E8qFxZq5jLhfaN-62" vertex="1">
          <mxGeometry x="670" y="25" width="120" height="40" as="geometry" />
        </mxCell>
        <mxCell id="OogJ-4E8qFxZq5jLhfaN-65" value="&lt;div&gt;First Activation of both DVS and Showmax products&amp;nbsp;&lt;/div&gt;&lt;div&gt;doesn&#39;t go to Activation Engine&lt;/div&gt;" style="text;html=1;resizable=0;autosize=1;align=left;verticalAlign=middle;points=[];fillColor=none;strokeColor=none;rounded=0;fontSize=10;" parent="OogJ-4E8qFxZq5jLhfaN-62" vertex="1">
          <mxGeometry x="189" y="9" width="242" height="28" as="geometry" />
        </mxCell>
        <mxCell id="OogJ-4E8qFxZq5jLhfaN-67" value="" style="rounded=1;whiteSpace=wrap;html=1;fillColor=#bac8d3;strokeColor=#23445d;" parent="1" vertex="1">
          <mxGeometry x="550" y="42" width="50" height="20" as="geometry" />
        </mxCell>
        <mxCell id="OogJ-4E8qFxZq5jLhfaN-68" value="Callouts To&amp;nbsp; Connected Vide (CV)" style="text;html=1;align=center;verticalAlign=middle;resizable=0;points=[];autosize=1;strokeColor=none;" parent="1" vertex="1">
          <mxGeometry x="600" y="39" width="197" height="26" as="geometry" />
        </mxCell>
        <mxCell id="OogJ-4E8qFxZq5jLhfaN-70" style="edgeStyle=orthogonalEdgeStyle;rounded=0;orthogonalLoop=1;jettySize=auto;html=1;entryX=0;entryY=0.75;entryDx=0;entryDy=0;" parent="1" source="OogJ-4E8qFxZq5jLhfaN-39" target="OogJ-4E8qFxZq5jLhfaN-56" edge="1">
          <mxGeometry relative="1" as="geometry">
            <Array as="points">
              <mxPoint x="147.5" y="-778" />
            </Array>
          </mxGeometry>
        </mxCell>
        <mxCell id="OogJ-4E8qFxZq5jLhfaN-71" style="edgeStyle=orthogonalEdgeStyle;rounded=0;orthogonalLoop=1;jettySize=auto;html=1;entryX=0;entryY=0.5;entryDx=0;entryDy=0;" parent="1" source="OogJ-4E8qFxZq5jLhfaN-39" target="OogJ-4E8qFxZq5jLhfaN-54" edge="1">
          <mxGeometry relative="1" as="geometry">
            <Array as="points">
              <mxPoint x="147.5" y="-740" />
            </Array>
          </mxGeometry>
        </mxCell>
        <mxCell id="OogJ-4E8qFxZq5jLhfaN-72" style="edgeStyle=orthogonalEdgeStyle;rounded=0;orthogonalLoop=1;jettySize=auto;html=1;entryX=0.5;entryY=0;entryDx=0;entryDy=0;" parent="1" source="OogJ-4E8qFxZq5jLhfaN-63" target="OogJ-4E8qFxZq5jLhfaN-39" edge="1">
          <mxGeometry relative="1" as="geometry">
            <mxPoint x="114" y="-764" as="targetPoint" />
          </mxGeometry>
        </mxCell>
        <mxCell id="OogJ-4E8qFxZq5jLhfaN-73" style="edgeStyle=orthogonalEdgeStyle;rounded=0;orthogonalLoop=1;jettySize=auto;html=1;" parent="1" target="OogJ-4E8qFxZq5jLhfaN-30" edge="1">
          <mxGeometry relative="1" as="geometry">
            <mxPoint x="114" y="-949" as="sourcePoint" />
            <mxPoint x="58" y="-452" as="targetPoint" />
            <Array as="points">
              <mxPoint x="70" y="-949" />
              <mxPoint x="70" y="-401" />
              <mxPoint x="142" y="-401" />
            </Array>
          </mxGeometry>
        </mxCell>
        <mxCell id="OogJ-4E8qFxZq5jLhfaN-75" style="edgeStyle=orthogonalEdgeStyle;rounded=0;orthogonalLoop=1;jettySize=auto;html=1;entryX=0;entryY=0.5;entryDx=0;entryDy=0;" parent="1" source="OogJ-4E8qFxZq5jLhfaN-56" target="OogJ-4E8qFxZq5jLhfaN-33" edge="1">
          <mxGeometry relative="1" as="geometry">
            <Array as="points">
              <mxPoint x="409.5" y="-788" />
              <mxPoint x="409.5" y="-394" />
            </Array>
          </mxGeometry>
        </mxCell>
        <mxCell id="OogJ-4E8qFxZq5jLhfaN-76" value="wait for &lt;br&gt;LeadId" style="rounded=1;whiteSpace=wrap;html=1;fillColor=#e1d5e7;strokeColor=#9673a6;sketch=1;" parent="1" vertex="1">
          <mxGeometry x="415.5" y="-666.5" width="48" height="40" as="geometry" />
        </mxCell>
      </root>
    </mxGraphModel>
  </diagram>
  <diagram id="tkVOk_e_TqMfoToh6jEN" name="O2F Change order">
    <mxGraphModel dx="3044" dy="2456" grid="1" gridSize="10" guides="1" tooltips="1" connect="1" arrows="1" fold="1" page="1" pageScale="1" pageWidth="850" pageHeight="1100" math="0" shadow="0">
      <root>
        <mxCell id="0" />
        <mxCell id="1" parent="0" />
        <mxCell id="EhTMDVM-AXUuS_yPvJaE-1" value="&lt;div style=&quot;font-size: 12px&quot; align=&quot;left&quot;&gt;&lt;font style=&quot;font-size: 12px&quot;&gt;&lt;b&gt;NOTES&lt;/b&gt;&lt;/font&gt;&lt;/div&gt;&lt;div style=&quot;font-size: 12px&quot; align=&quot;left&quot;&gt;&lt;font style=&quot;font-size: 12px&quot;&gt;&lt;br&gt;&lt;/font&gt;&lt;/div&gt;&lt;div style=&quot;font-size: 12px&quot; align=&quot;left&quot;&gt;&lt;font style=&quot;font-size: 12px&quot;&gt;1. Showmax customer lock verification is done by the DNO/ISP&lt;/font&gt;&lt;/div&gt;&lt;div style=&quot;font-size: 12px&quot; align=&quot;left&quot;&gt;&lt;span style=&quot;text-align: center&quot;&gt;before the order is submitted and the orchestration starts&lt;/span&gt;&lt;/div&gt;&lt;div style=&quot;font-size: 12px&quot; align=&quot;left&quot;&gt;&lt;span style=&quot;text-align: center&quot;&gt;&lt;br&gt;&lt;/span&gt;&lt;/div&gt;&lt;div style=&quot;font-size: 12px&quot; align=&quot;left&quot;&gt;&lt;span style=&quot;text-align: center&quot;&gt;2. If an existing customer purchases an additional DvS offer,&amp;nbsp;&lt;/span&gt;&lt;/div&gt;&lt;div style=&quot;font-size: 12px&quot; align=&quot;left&quot;&gt;&lt;span style=&quot;text-align: center&quot;&gt;the activation email should be sent for that new offer&lt;/span&gt;&lt;/div&gt;&lt;div style=&quot;font-size: 12px&quot; align=&quot;left&quot;&gt;&lt;font style=&quot;font-size: 12px&quot;&gt;&lt;br&gt;&lt;/font&gt;&lt;/div&gt;" style="text;html=1;resizable=0;autosize=1;align=center;verticalAlign=middle;points=[];fillColor=none;strokeColor=none;rounded=0;dashed=1;fontSize=10;" parent="1" vertex="1">
          <mxGeometry x="15" y="-437" width="350" height="100" as="geometry" />
        </mxCell>
        <mxCell id="EhTMDVM-AXUuS_yPvJaE-2" value="Milestones" style="swimlane;horizontal=0;fontSize=13;dashed=1;" parent="1" vertex="1">
          <mxGeometry x="15" y="-1051" width="820" height="100" as="geometry">
            <mxRectangle x="40" y="40" width="30" height="90" as="alternateBounds" />
          </mxGeometry>
        </mxCell>
        <mxCell id="EhTMDVM-AXUuS_yPvJaE-3" value="Start Order &lt;br&gt;Activation" style="rounded=1;whiteSpace=wrap;html=1;fillColor=#dae8fc;strokeColor=#6c8ebf;" parent="EhTMDVM-AXUuS_yPvJaE-2" vertex="1">
          <mxGeometry x="41" y="30" width="120" height="40" as="geometry" />
        </mxCell>
        <mxCell id="EhTMDVM-AXUuS_yPvJaE-4" value="End Order &lt;br&gt;Activation" style="rounded=1;whiteSpace=wrap;html=1;fillColor=#dae8fc;strokeColor=#6c8ebf;" parent="EhTMDVM-AXUuS_yPvJaE-2" vertex="1">
          <mxGeometry x="670" y="25" width="120" height="40" as="geometry" />
        </mxCell>
        <mxCell id="EhTMDVM-AXUuS_yPvJaE-5" value="&lt;div&gt;First Activation of both DVS and Showmax products&amp;nbsp;&lt;/div&gt;&lt;div&gt;doesn&#39;t go to Activation Engine&lt;/div&gt;" style="text;html=1;resizable=0;autosize=1;align=left;verticalAlign=middle;points=[];fillColor=none;strokeColor=none;rounded=0;fontSize=10;" parent="EhTMDVM-AXUuS_yPvJaE-2" vertex="1">
          <mxGeometry x="189" y="9" width="242" height="28" as="geometry" />
        </mxCell>
        <mxCell id="EhTMDVM-AXUuS_yPvJaE-6" value="" style="group" parent="1" connectable="0" vertex="1">
          <mxGeometry x="584" y="-456" width="245" height="138" as="geometry" />
        </mxCell>
        <mxCell id="EhTMDVM-AXUuS_yPvJaE-7" value="" style="rounded=1;whiteSpace=wrap;html=1;fillColor=#e1d5e7;strokeColor=#9673a6;" parent="EhTMDVM-AXUuS_yPvJaE-6" vertex="1">
          <mxGeometry y="29" width="50" height="20" as="geometry" />
        </mxCell>
        <mxCell id="EhTMDVM-AXUuS_yPvJaE-8" value="Callouts To 3P External Systems" style="text;html=1;align=center;verticalAlign=middle;resizable=0;points=[];autosize=1;strokeColor=none;" parent="EhTMDVM-AXUuS_yPvJaE-6" vertex="1">
          <mxGeometry x="52" y="30" width="184" height="18" as="geometry" />
        </mxCell>
        <mxCell id="EhTMDVM-AXUuS_yPvJaE-9" value="" style="group" parent="EhTMDVM-AXUuS_yPvJaE-6" connectable="0" vertex="1">
          <mxGeometry width="240" height="138" as="geometry" />
        </mxCell>
        <mxCell id="EhTMDVM-AXUuS_yPvJaE-10" value="" style="group" parent="EhTMDVM-AXUuS_yPvJaE-9" connectable="0" vertex="1">
          <mxGeometry width="230" height="108" as="geometry" />
        </mxCell>
        <mxCell id="EhTMDVM-AXUuS_yPvJaE-11" value="" style="group" parent="EhTMDVM-AXUuS_yPvJaE-10" connectable="0" vertex="1">
          <mxGeometry y="58" width="230" height="50" as="geometry" />
        </mxCell>
        <mxCell id="EhTMDVM-AXUuS_yPvJaE-12" value="" style="rounded=1;whiteSpace=wrap;html=1;fillColor=#ffe6cc;strokeColor=#d79b00;" parent="EhTMDVM-AXUuS_yPvJaE-11" vertex="1">
          <mxGeometry width="50" height="20" as="geometry" />
        </mxCell>
        <mxCell id="EhTMDVM-AXUuS_yPvJaE-13" value="Callouts To MC External Systems" style="text;html=1;align=center;verticalAlign=middle;resizable=0;points=[];autosize=1;strokeColor=none;" parent="EhTMDVM-AXUuS_yPvJaE-11" vertex="1">
          <mxGeometry x="51" width="190" height="20" as="geometry" />
        </mxCell>
        <mxCell id="EhTMDVM-AXUuS_yPvJaE-14" value="" style="rounded=1;whiteSpace=wrap;html=1;fillColor=#d5e8d4;strokeColor=#82b366;" parent="EhTMDVM-AXUuS_yPvJaE-11" vertex="1">
          <mxGeometry y="30" width="50" height="20" as="geometry" />
        </mxCell>
        <mxCell id="EhTMDVM-AXUuS_yPvJaE-15" value="Vlocity Internal Action" style="text;html=1;align=center;verticalAlign=middle;resizable=0;points=[];autosize=1;strokeColor=none;" parent="EhTMDVM-AXUuS_yPvJaE-11" vertex="1">
          <mxGeometry x="50" y="30" width="130" height="20" as="geometry" />
        </mxCell>
        <mxCell id="EhTMDVM-AXUuS_yPvJaE-16" value="&lt;b&gt;Legend&lt;/b&gt;" style="text;html=1;align=center;verticalAlign=middle;resizable=0;points=[];autosize=1;strokeColor=none;" parent="EhTMDVM-AXUuS_yPvJaE-10" vertex="1">
          <mxGeometry width="60" height="20" as="geometry" />
        </mxCell>
        <mxCell id="EhTMDVM-AXUuS_yPvJaE-17" value="" style="rounded=1;whiteSpace=wrap;html=1;fillColor=#dae8fc;strokeColor=#6c8ebf;" parent="EhTMDVM-AXUuS_yPvJaE-9" vertex="1">
          <mxGeometry y="118" width="50" height="20" as="geometry" />
        </mxCell>
        <mxCell id="EhTMDVM-AXUuS_yPvJaE-18" value="Milestones" style="text;html=1;align=left;verticalAlign=middle;resizable=0;points=[];autosize=1;strokeColor=none;" parent="EhTMDVM-AXUuS_yPvJaE-9" vertex="1">
          <mxGeometry x="57.5" y="118" width="70" height="20" as="geometry" />
        </mxCell>
        <mxCell id="EhTMDVM-AXUuS_yPvJaE-19" value="" style="rounded=1;whiteSpace=wrap;html=1;sketch=1;" parent="EhTMDVM-AXUuS_yPvJaE-9" vertex="1">
          <mxGeometry x="139" y="118" width="50" height="20" as="geometry" />
        </mxCell>
        <mxCell id="EhTMDVM-AXUuS_yPvJaE-20" value="Call-in" style="text;html=1;align=center;verticalAlign=middle;resizable=0;points=[];autosize=1;strokeColor=none;fillColor=none;" parent="EhTMDVM-AXUuS_yPvJaE-9" vertex="1">
          <mxGeometry x="196" y="119" width="44" height="18" as="geometry" />
        </mxCell>
        <mxCell id="EhTMDVM-AXUuS_yPvJaE-21" value="&lt;b&gt;&lt;font style=&quot;font-size: 12px&quot;&gt;One2Fibre: Order Provisioning Process for Upgrade/Downgrade&amp;nbsp;Product - Clarity Order&lt;/font&gt;&lt;/b&gt;" style="rounded=0;whiteSpace=wrap;html=1;fillColor=#f5f5f5;strokeColor=#666666;fontSize=11;fontColor=#333333;" parent="1" vertex="1">
          <mxGeometry y="-1100" width="850" height="35" as="geometry" />
        </mxCell>
        <mxCell id="EhTMDVM-AXUuS_yPvJaE-22" value="Amoeba" style="swimlane;horizontal=0;fontSize=13;dashed=1;" parent="1" vertex="1">
          <mxGeometry x="15" y="-951" width="820" height="141" as="geometry">
            <mxRectangle x="40" y="40" width="30" height="90" as="alternateBounds" />
          </mxGeometry>
        </mxCell>
        <mxCell id="EhTMDVM-AXUuS_yPvJaE-23" value="Fiber Service&lt;br&gt;Change" style="rounded=1;whiteSpace=wrap;html=1;fillColor=#e1d5e7;strokeColor=#9673a6;" parent="EhTMDVM-AXUuS_yPvJaE-22" vertex="1">
          <mxGeometry x="41" y="67" width="120" height="40" as="geometry" />
        </mxCell>
        <mxCell id="EhTMDVM-AXUuS_yPvJaE-24" value="only if update on Fiber product" style="text;html=1;align=center;verticalAlign=middle;resizable=0;points=[];autosize=1;strokeColor=none;fillColor=none;fontColor=#FF0000;fontStyle=1" parent="EhTMDVM-AXUuS_yPvJaE-22" vertex="1">
          <mxGeometry x="142" y="108.5" width="195" height="26" as="geometry" />
        </mxCell>
        <mxCell id="EhTMDVM-AXUuS_yPvJaE-25" value="Fiber Change&lt;br&gt;Completion" style="rounded=1;whiteSpace=wrap;html=1;fillColor=#e1d5e7;strokeColor=#9673a6;sketch=1;" parent="EhTMDVM-AXUuS_yPvJaE-22" vertex="1">
          <mxGeometry x="320" y="65.5" width="120" height="43" as="geometry" />
        </mxCell>
        <mxCell id="EhTMDVM-AXUuS_yPvJaE-26" style="edgeStyle=orthogonalEdgeStyle;rounded=0;orthogonalLoop=1;jettySize=auto;html=1;exitX=1;exitY=0.5;exitDx=0;exitDy=0;entryX=0;entryY=0.5;entryDx=0;entryDy=0;" parent="EhTMDVM-AXUuS_yPvJaE-22" source="EhTMDVM-AXUuS_yPvJaE-23" target="EhTMDVM-AXUuS_yPvJaE-25" edge="1">
          <mxGeometry relative="1" as="geometry">
            <mxPoint x="291" y="103" as="targetPoint" />
          </mxGeometry>
        </mxCell>
        <mxCell id="EhTMDVM-AXUuS_yPvJaE-27" value="Receive Callback to update the Status of the Order&lt;br&gt;" style="text;html=1;align=center;verticalAlign=middle;resizable=0;points=[];autosize=1;strokeColor=none;fillColor=none;" parent="EhTMDVM-AXUuS_yPvJaE-22" vertex="1">
          <mxGeometry x="239.5" y="39" width="281" height="18" as="geometry" />
        </mxCell>
        <mxCell id="EhTMDVM-AXUuS_yPvJaE-30" style="edgeStyle=orthogonalEdgeStyle;rounded=0;orthogonalLoop=1;jettySize=auto;html=1;exitX=1;exitY=0.5;exitDx=0;exitDy=0;" parent="1" source="EhTMDVM-AXUuS_yPvJaE-29" target="EhTMDVM-AXUuS_yPvJaE-4" edge="1">
          <mxGeometry relative="1" as="geometry" />
        </mxCell>
        <mxCell id="EhTMDVM-AXUuS_yPvJaE-31" style="edgeStyle=orthogonalEdgeStyle;rounded=0;orthogonalLoop=1;jettySize=auto;html=1;exitX=0.5;exitY=1;exitDx=0;exitDy=0;entryX=0.5;entryY=0;entryDx=0;entryDy=0;" parent="1" source="EhTMDVM-AXUuS_yPvJaE-3" target="EhTMDVM-AXUuS_yPvJaE-23" edge="1">
          <mxGeometry relative="1" as="geometry" />
        </mxCell>
        <mxCell id="EhTMDVM-AXUuS_yPvJaE-36" value="ICX" style="swimlane;horizontal=0;fontSize=13;dashed=1;" parent="1" vertex="1">
          <mxGeometry x="15" y="-810" width="820" height="200" as="geometry">
            <mxRectangle x="40" y="40" width="30" height="90" as="alternateBounds" />
          </mxGeometry>
        </mxCell>
        <mxCell id="EhTMDVM-AXUuS_yPvJaE-37" value="TMF 622 Product Order" style="rounded=1;whiteSpace=wrap;html=1;fillColor=#ffe6cc;strokeColor=#d79b00;" parent="EhTMDVM-AXUuS_yPvJaE-36" vertex="1">
          <mxGeometry x="516" y="25" width="120" height="40" as="geometry" />
        </mxCell>
        <mxCell id="EhTMDVM-AXUuS_yPvJaE-38" value="&lt;font style=&quot;font-size: 10px&quot;&gt;ICX to remove previous products and add new ones&lt;br&gt;&lt;/font&gt;" style="text;html=1;align=left;verticalAlign=middle;resizable=0;points=[];autosize=1;strokeColor=none;fillColor=none;" parent="EhTMDVM-AXUuS_yPvJaE-36" vertex="1">
          <mxGeometry x="455" y="67" width="248" height="26" as="geometry" />
        </mxCell>
        <mxCell id="EhTMDVM-AXUuS_yPvJaE-28" value="Vlocity" style="swimlane;horizontal=0;container=0;dashed=1;" parent="EhTMDVM-AXUuS_yPvJaE-36" vertex="1">
          <mxGeometry y="100" width="820" height="100" as="geometry" />
        </mxCell>
        <mxCell id="EhTMDVM-AXUuS_yPvJaE-29" value="Assetize" style="rounded=1;whiteSpace=wrap;html=1;fillColor=#d5e8d4;strokeColor=#82b366;" parent="EhTMDVM-AXUuS_yPvJaE-28" vertex="1">
          <mxGeometry x="139" y="30" width="120" height="40" as="geometry" />
        </mxCell>
        <mxCell id="EhTMDVM-AXUuS_yPvJaE-39" style="edgeStyle=orthogonalEdgeStyle;rounded=0;orthogonalLoop=1;jettySize=auto;html=1;exitX=0;exitY=0.5;exitDx=0;exitDy=0;entryX=0;entryY=0.5;entryDx=0;entryDy=0;" parent="EhTMDVM-AXUuS_yPvJaE-36" source="EhTMDVM-AXUuS_yPvJaE-37" target="EhTMDVM-AXUuS_yPvJaE-29" edge="1">
          <mxGeometry relative="1" as="geometry">
            <mxPoint x="108" y="141" as="targetPoint" />
          </mxGeometry>
        </mxCell>
        <mxCell id="EhTMDVM-AXUuS_yPvJaE-42" style="edgeStyle=orthogonalEdgeStyle;rounded=0;orthogonalLoop=1;jettySize=auto;html=1;exitX=1;exitY=0.5;exitDx=0;exitDy=0;entryX=0.5;entryY=0;entryDx=0;entryDy=0;" parent="1" source="EhTMDVM-AXUuS_yPvJaE-25" target="EhTMDVM-AXUuS_yPvJaE-37" edge="1">
          <mxGeometry relative="1" as="geometry" />
        </mxCell>
        <mxCell id="EhTMDVM-AXUuS_yPvJaE-43" value="Send Next Step Communication" style="rounded=1;whiteSpace=wrap;html=1;fillColor=#ffe6cc;strokeColor=#d79b00;" parent="1" vertex="1">
          <mxGeometry x="78" y="-475" width="120" height="40" as="geometry" />
        </mxCell>
        <mxCell id="EhTMDVM-AXUuS_yPvJaE-44" value="&lt;div style=&quot;font-size: 12px&quot; align=&quot;left&quot;&gt;&lt;font style=&quot;font-size: 12px&quot;&gt;&lt;b&gt;NOTES&lt;/b&gt;&lt;/font&gt;&lt;/div&gt;&lt;div style=&quot;font-size: 12px&quot; align=&quot;left&quot;&gt;&lt;font style=&quot;font-size: 12px&quot;&gt;&lt;br&gt;&lt;/font&gt;&lt;/div&gt;&lt;div style=&quot;font-size: 12px&quot; align=&quot;left&quot;&gt;&lt;font style=&quot;font-size: 12px&quot;&gt;1. Showmax customer lock verification is done by the DNO/ISP&lt;/font&gt;&lt;/div&gt;&lt;div style=&quot;font-size: 12px&quot; align=&quot;left&quot;&gt;&lt;span style=&quot;text-align: center&quot;&gt;before the order is submitted and the orchestration starts&lt;/span&gt;&lt;/div&gt;&lt;div style=&quot;font-size: 12px&quot; align=&quot;left&quot;&gt;&lt;span style=&quot;text-align: center&quot;&gt;&lt;br&gt;&lt;/span&gt;&lt;/div&gt;&lt;div style=&quot;font-size: 12px&quot; align=&quot;left&quot;&gt;&lt;span style=&quot;text-align: center&quot;&gt;2. If an existing customer purchases an additional DvS offer,&amp;nbsp;&lt;/span&gt;&lt;/div&gt;&lt;div style=&quot;font-size: 12px&quot; align=&quot;left&quot;&gt;&lt;span style=&quot;text-align: center&quot;&gt;the activation email should be sent for that new offer&lt;/span&gt;&lt;/div&gt;&lt;div style=&quot;font-size: 12px&quot; align=&quot;left&quot;&gt;&lt;font style=&quot;font-size: 12px&quot;&gt;&lt;br&gt;&lt;/font&gt;&lt;/div&gt;" style="text;html=1;resizable=0;autosize=1;align=center;verticalAlign=middle;points=[];fillColor=none;strokeColor=none;rounded=0;dashed=1;fontSize=10;" parent="1" vertex="1">
          <mxGeometry x="985" y="-437" width="350" height="100" as="geometry" />
        </mxCell>
        <mxCell id="EhTMDVM-AXUuS_yPvJaE-45" value="Milestones" style="swimlane;horizontal=0;fontSize=13;dashed=1;" parent="1" vertex="1">
          <mxGeometry x="985" y="-1051" width="820" height="100" as="geometry">
            <mxRectangle x="40" y="40" width="30" height="90" as="alternateBounds" />
          </mxGeometry>
        </mxCell>
        <mxCell id="EhTMDVM-AXUuS_yPvJaE-46" value="Start Order &lt;br&gt;Activation" style="rounded=1;whiteSpace=wrap;html=1;fillColor=#dae8fc;strokeColor=#6c8ebf;" parent="EhTMDVM-AXUuS_yPvJaE-45" vertex="1">
          <mxGeometry x="41" y="30" width="120" height="40" as="geometry" />
        </mxCell>
        <mxCell id="EhTMDVM-AXUuS_yPvJaE-47" value="End Order &lt;br&gt;Activation" style="rounded=1;whiteSpace=wrap;html=1;fillColor=#dae8fc;strokeColor=#6c8ebf;" parent="EhTMDVM-AXUuS_yPvJaE-45" vertex="1">
          <mxGeometry x="670" y="25" width="120" height="40" as="geometry" />
        </mxCell>
        <mxCell id="EhTMDVM-AXUuS_yPvJaE-48" value="&lt;div&gt;First Activation of both DVS and Showmax products&amp;nbsp;&lt;/div&gt;&lt;div&gt;doesn&#39;t go to Activation Engine&lt;/div&gt;" style="text;html=1;resizable=0;autosize=1;align=left;verticalAlign=middle;points=[];fillColor=none;strokeColor=none;rounded=0;fontSize=10;" parent="EhTMDVM-AXUuS_yPvJaE-45" vertex="1">
          <mxGeometry x="189" y="9" width="242" height="28" as="geometry" />
        </mxCell>
        <mxCell id="EhTMDVM-AXUuS_yPvJaE-49" value="" style="group" parent="1" connectable="0" vertex="1">
          <mxGeometry x="1554" y="-456" width="245" height="138" as="geometry" />
        </mxCell>
        <mxCell id="EhTMDVM-AXUuS_yPvJaE-50" value="" style="rounded=1;whiteSpace=wrap;html=1;fillColor=#e1d5e7;strokeColor=#9673a6;" parent="EhTMDVM-AXUuS_yPvJaE-49" vertex="1">
          <mxGeometry y="29" width="50" height="20" as="geometry" />
        </mxCell>
        <mxCell id="EhTMDVM-AXUuS_yPvJaE-51" value="Callouts To 3P External Systems" style="text;html=1;align=center;verticalAlign=middle;resizable=0;points=[];autosize=1;strokeColor=none;" parent="EhTMDVM-AXUuS_yPvJaE-49" vertex="1">
          <mxGeometry x="52" y="30" width="184" height="18" as="geometry" />
        </mxCell>
        <mxCell id="EhTMDVM-AXUuS_yPvJaE-52" value="" style="group" parent="EhTMDVM-AXUuS_yPvJaE-49" connectable="0" vertex="1">
          <mxGeometry width="240" height="138" as="geometry" />
        </mxCell>
        <mxCell id="EhTMDVM-AXUuS_yPvJaE-53" value="" style="group" parent="EhTMDVM-AXUuS_yPvJaE-52" connectable="0" vertex="1">
          <mxGeometry width="230" height="108" as="geometry" />
        </mxCell>
        <mxCell id="EhTMDVM-AXUuS_yPvJaE-54" value="" style="group" parent="EhTMDVM-AXUuS_yPvJaE-53" connectable="0" vertex="1">
          <mxGeometry y="58" width="230" height="50" as="geometry" />
        </mxCell>
        <mxCell id="EhTMDVM-AXUuS_yPvJaE-55" value="" style="rounded=1;whiteSpace=wrap;html=1;fillColor=#ffe6cc;strokeColor=#d79b00;" parent="EhTMDVM-AXUuS_yPvJaE-54" vertex="1">
          <mxGeometry width="50" height="20" as="geometry" />
        </mxCell>
        <mxCell id="EhTMDVM-AXUuS_yPvJaE-56" value="Callouts To MC External Systems" style="text;html=1;align=center;verticalAlign=middle;resizable=0;points=[];autosize=1;strokeColor=none;" parent="EhTMDVM-AXUuS_yPvJaE-54" vertex="1">
          <mxGeometry x="51" width="190" height="20" as="geometry" />
        </mxCell>
        <mxCell id="EhTMDVM-AXUuS_yPvJaE-57" value="" style="rounded=1;whiteSpace=wrap;html=1;fillColor=#d5e8d4;strokeColor=#82b366;" parent="EhTMDVM-AXUuS_yPvJaE-54" vertex="1">
          <mxGeometry y="30" width="50" height="20" as="geometry" />
        </mxCell>
        <mxCell id="EhTMDVM-AXUuS_yPvJaE-58" value="Vlocity Internal Action" style="text;html=1;align=center;verticalAlign=middle;resizable=0;points=[];autosize=1;strokeColor=none;" parent="EhTMDVM-AXUuS_yPvJaE-54" vertex="1">
          <mxGeometry x="50" y="30" width="130" height="20" as="geometry" />
        </mxCell>
        <mxCell id="EhTMDVM-AXUuS_yPvJaE-59" value="&lt;b&gt;Legend&lt;/b&gt;" style="text;html=1;align=center;verticalAlign=middle;resizable=0;points=[];autosize=1;strokeColor=none;" parent="EhTMDVM-AXUuS_yPvJaE-53" vertex="1">
          <mxGeometry width="60" height="20" as="geometry" />
        </mxCell>
        <mxCell id="EhTMDVM-AXUuS_yPvJaE-60" value="" style="rounded=1;whiteSpace=wrap;html=1;fillColor=#dae8fc;strokeColor=#6c8ebf;" parent="EhTMDVM-AXUuS_yPvJaE-52" vertex="1">
          <mxGeometry y="118" width="50" height="20" as="geometry" />
        </mxCell>
        <mxCell id="EhTMDVM-AXUuS_yPvJaE-61" value="Milestones" style="text;html=1;align=left;verticalAlign=middle;resizable=0;points=[];autosize=1;strokeColor=none;" parent="EhTMDVM-AXUuS_yPvJaE-52" vertex="1">
          <mxGeometry x="57.5" y="118" width="70" height="20" as="geometry" />
        </mxCell>
        <mxCell id="EhTMDVM-AXUuS_yPvJaE-62" value="" style="rounded=1;whiteSpace=wrap;html=1;sketch=1;" parent="EhTMDVM-AXUuS_yPvJaE-52" vertex="1">
          <mxGeometry x="139" y="118" width="50" height="20" as="geometry" />
        </mxCell>
        <mxCell id="EhTMDVM-AXUuS_yPvJaE-63" value="Call-in" style="text;html=1;align=center;verticalAlign=middle;resizable=0;points=[];autosize=1;strokeColor=none;fillColor=none;" parent="EhTMDVM-AXUuS_yPvJaE-52" vertex="1">
          <mxGeometry x="196" y="119" width="44" height="18" as="geometry" />
        </mxCell>
        <mxCell id="EhTMDVM-AXUuS_yPvJaE-64" value="&lt;b&gt;&lt;font style=&quot;font-size: 12px&quot;&gt;One2Fibre: Order Provisioning Process for Move Provider - Clarity Order&lt;/font&gt;&lt;/b&gt;" style="rounded=0;whiteSpace=wrap;html=1;fillColor=#f5f5f5;strokeColor=#666666;fontSize=11;fontColor=#333333;" parent="1" vertex="1">
          <mxGeometry x="970" y="-1100" width="850" height="35" as="geometry" />
        </mxCell>
        <mxCell id="EhTMDVM-AXUuS_yPvJaE-65" value="Amoeba" style="swimlane;horizontal=0;fontSize=13;dashed=1;" parent="1" vertex="1">
          <mxGeometry x="985" y="-951" width="820" height="141" as="geometry">
            <mxRectangle x="40" y="40" width="30" height="90" as="alternateBounds" />
          </mxGeometry>
        </mxCell>
        <mxCell id="EhTMDVM-AXUuS_yPvJaE-66" style="edgeStyle=orthogonalEdgeStyle;rounded=0;orthogonalLoop=1;jettySize=auto;html=1;exitX=1;exitY=0.5;exitDx=0;exitDy=0;entryX=0.459;entryY=-0.014;entryDx=0;entryDy=0;entryPerimeter=0;" parent="EhTMDVM-AXUuS_yPvJaE-65" source="EhTMDVM-AXUuS_yPvJaE-67" target="EhTMDVM-AXUuS_yPvJaE-69" edge="1">
          <mxGeometry relative="1" as="geometry">
            <Array as="points">
              <mxPoint x="191" y="87" />
              <mxPoint x="191" y="47" />
              <mxPoint x="615" y="47" />
            </Array>
          </mxGeometry>
        </mxCell>
        <mxCell id="EhTMDVM-AXUuS_yPvJaE-67" value="Fiber Service&lt;br&gt;Move" style="rounded=1;whiteSpace=wrap;html=1;fillColor=#e1d5e7;strokeColor=#9673a6;" parent="EhTMDVM-AXUuS_yPvJaE-65" vertex="1">
          <mxGeometry x="41" y="67" width="120" height="40" as="geometry" />
        </mxCell>
        <mxCell id="EhTMDVM-AXUuS_yPvJaE-68" value="&lt;font style=&quot;font-size: 10px;&quot;&gt;Receive udpates on Agility order progress&lt;/font&gt;" style="text;html=1;align=center;verticalAlign=middle;resizable=0;points=[];autosize=1;strokeColor=none;fillColor=none;" parent="EhTMDVM-AXUuS_yPvJaE-65" vertex="1">
          <mxGeometry x="512" y="107" width="203" height="26" as="geometry" />
        </mxCell>
        <mxCell id="EhTMDVM-AXUuS_yPvJaE-69" value="Fiber Change&lt;br&gt;Completion" style="rounded=1;whiteSpace=wrap;html=1;fillColor=#e1d5e7;strokeColor=#9673a6;sketch=1;" parent="EhTMDVM-AXUuS_yPvJaE-65" vertex="1">
          <mxGeometry x="560" y="67" width="120" height="43" as="geometry" />
        </mxCell>
        <mxCell id="EhTMDVM-AXUuS_yPvJaE-70" value="Fiber Cancellation (old Provider)&lt;br&gt;Completion" style="rounded=1;whiteSpace=wrap;html=1;fillColor=#e1d5e7;strokeColor=#9673a6;sketch=1;" parent="EhTMDVM-AXUuS_yPvJaE-65" vertex="1">
          <mxGeometry x="259" y="65.5" width="120" height="43" as="geometry" />
        </mxCell>
        <mxCell id="EhTMDVM-AXUuS_yPvJaE-71" style="edgeStyle=orthogonalEdgeStyle;rounded=0;orthogonalLoop=1;jettySize=auto;html=1;exitX=1;exitY=0.5;exitDx=0;exitDy=0;entryX=0;entryY=0.5;entryDx=0;entryDy=0;" parent="EhTMDVM-AXUuS_yPvJaE-65" source="EhTMDVM-AXUuS_yPvJaE-67" target="EhTMDVM-AXUuS_yPvJaE-70" edge="1">
          <mxGeometry relative="1" as="geometry" />
        </mxCell>
        <mxCell id="EhTMDVM-AXUuS_yPvJaE-72" value="&lt;font style=&quot;font-size: 10px;&quot;&gt;Receive confirmation of previous line cancellation from Agility&lt;/font&gt;" style="text;html=1;align=center;verticalAlign=middle;resizable=0;points=[];autosize=1;strokeColor=none;fillColor=none;" parent="EhTMDVM-AXUuS_yPvJaE-65" vertex="1">
          <mxGeometry x="198" y="44" width="289" height="26" as="geometry" />
        </mxCell>
        <mxCell id="EhTMDVM-AXUuS_yPvJaE-73" value="UMF" style="swimlane;horizontal=0;container=0;dashed=1;" parent="1" vertex="1">
          <mxGeometry x="985" y="-710" width="820" height="100" as="geometry" />
        </mxCell>
        <mxCell id="EhTMDVM-AXUuS_yPvJaE-74" value="Send Move Provider Succesfull Notification" style="rounded=1;whiteSpace=wrap;html=1;fillColor=#ffe6cc;strokeColor=#d79b00;" parent="EhTMDVM-AXUuS_yPvJaE-73" vertex="1">
          <mxGeometry x="560" y="30" width="120" height="40" as="geometry" />
        </mxCell>
        <mxCell id="EhTMDVM-AXUuS_yPvJaE-75" style="edgeStyle=orthogonalEdgeStyle;rounded=0;orthogonalLoop=1;jettySize=auto;html=1;exitX=0.5;exitY=1;exitDx=0;exitDy=0;entryX=0.5;entryY=0;entryDx=0;entryDy=0;" parent="1" source="EhTMDVM-AXUuS_yPvJaE-46" target="EhTMDVM-AXUuS_yPvJaE-67" edge="1">
          <mxGeometry relative="1" as="geometry" />
        </mxCell>
        <mxCell id="EhTMDVM-AXUuS_yPvJaE-80" value="ICX" style="swimlane;horizontal=0;fontSize=13;dashed=1;" parent="1" vertex="1">
          <mxGeometry x="985" y="-810" width="820" height="100" as="geometry">
            <mxRectangle x="40" y="40" width="30" height="90" as="alternateBounds" />
          </mxGeometry>
        </mxCell>
        <mxCell id="EhTMDVM-AXUuS_yPvJaE-81" style="edgeStyle=orthogonalEdgeStyle;rounded=0;orthogonalLoop=1;jettySize=auto;html=1;exitX=0;exitY=0.5;exitDx=0;exitDy=0;entryX=1;entryY=0.5;entryDx=0;entryDy=0;" parent="EhTMDVM-AXUuS_yPvJaE-80" source="EhTMDVM-AXUuS_yPvJaE-82" target="EhTMDVM-AXUuS_yPvJaE-84" edge="1">
          <mxGeometry relative="1" as="geometry" />
        </mxCell>
        <mxCell id="EhTMDVM-AXUuS_yPvJaE-82" value="TMF 622 Product Order (Cancel)" style="rounded=1;whiteSpace=wrap;html=1;fillColor=#ffe6cc;strokeColor=#d79b00;" parent="EhTMDVM-AXUuS_yPvJaE-80" vertex="1">
          <mxGeometry x="406" y="23" width="120" height="40" as="geometry" />
        </mxCell>
        <mxCell id="EhTMDVM-AXUuS_yPvJaE-83" value="&lt;font style=&quot;font-size: 10px&quot;&gt;ICX to remove previous products and add new ones&lt;br&gt;&lt;/font&gt;" style="text;html=1;align=left;verticalAlign=middle;resizable=0;points=[];autosize=1;strokeColor=none;fillColor=none;" parent="EhTMDVM-AXUuS_yPvJaE-80" vertex="1">
          <mxGeometry x="97" width="248" height="26" as="geometry" />
        </mxCell>
        <mxCell id="EhTMDVM-AXUuS_yPvJaE-84" value="TMF 622 Product Order (Delete/Add)" style="rounded=1;whiteSpace=wrap;html=1;fillColor=#ffe6cc;strokeColor=#d79b00;" parent="EhTMDVM-AXUuS_yPvJaE-80" vertex="1">
          <mxGeometry x="163" y="23" width="120" height="40" as="geometry" />
        </mxCell>
        <mxCell id="EhTMDVM-AXUuS_yPvJaE-85" value="&lt;font style=&quot;font-size: 10px&quot;&gt;ICX to cancel the fiber service billing&lt;br&gt;&lt;br&gt;&lt;/font&gt;" style="text;html=1;align=left;verticalAlign=middle;resizable=0;points=[];autosize=1;strokeColor=none;fillColor=none;" parent="EhTMDVM-AXUuS_yPvJaE-80" vertex="1">
          <mxGeometry x="375" y="59" width="179" height="41" as="geometry" />
        </mxCell>
        <mxCell id="EhTMDVM-AXUuS_yPvJaE-86" style="edgeStyle=orthogonalEdgeStyle;rounded=0;orthogonalLoop=1;jettySize=auto;html=1;exitX=0;exitY=0.5;exitDx=0;exitDy=0;entryX=0;entryY=0.5;entryDx=0;entryDy=0;startArrow=none;" parent="1" source="EhTMDVM-AXUuS_yPvJaE-84" target="EhTMDVM-AXUuS_yPvJaE-91" edge="1">
          <mxGeometry relative="1" as="geometry">
            <mxPoint x="1093" y="-669" as="targetPoint" />
          </mxGeometry>
        </mxCell>
        <mxCell id="EhTMDVM-AXUuS_yPvJaE-89" style="edgeStyle=orthogonalEdgeStyle;rounded=0;orthogonalLoop=1;jettySize=auto;html=1;exitX=1;exitY=0.5;exitDx=0;exitDy=0;entryX=0.5;entryY=0;entryDx=0;entryDy=0;" parent="1" source="EhTMDVM-AXUuS_yPvJaE-70" target="EhTMDVM-AXUuS_yPvJaE-82" edge="1">
          <mxGeometry relative="1" as="geometry" />
        </mxCell>
        <mxCell id="EhTMDVM-AXUuS_yPvJaE-90" value="Vlocity" style="swimlane;horizontal=0;container=0;dashed=1;" parent="1" vertex="1">
          <mxGeometry x="985" y="-610" width="820" height="100" as="geometry" />
        </mxCell>
        <mxCell id="EhTMDVM-AXUuS_yPvJaE-91" value="Assetize" style="rounded=1;whiteSpace=wrap;html=1;fillColor=#d5e8d4;strokeColor=#82b366;" parent="EhTMDVM-AXUuS_yPvJaE-90" vertex="1">
          <mxGeometry x="139" y="30" width="120" height="40" as="geometry" />
        </mxCell>
        <mxCell id="EhTMDVM-AXUuS_yPvJaE-92" style="edgeStyle=orthogonalEdgeStyle;rounded=0;orthogonalLoop=1;jettySize=auto;html=1;exitX=1;exitY=0.5;exitDx=0;exitDy=0;entryX=0.5;entryY=1;entryDx=0;entryDy=0;" parent="1" source="EhTMDVM-AXUuS_yPvJaE-91" target="EhTMDVM-AXUuS_yPvJaE-47" edge="1">
          <mxGeometry relative="1" as="geometry" />
        </mxCell>
        <mxCell id="EhTMDVM-AXUuS_yPvJaE-93" style="edgeStyle=orthogonalEdgeStyle;rounded=0;orthogonalLoop=1;jettySize=auto;html=1;exitX=0.5;exitY=1;exitDx=0;exitDy=0;entryX=0.5;entryY=0;entryDx=0;entryDy=0;" parent="1" source="EhTMDVM-AXUuS_yPvJaE-69" target="EhTMDVM-AXUuS_yPvJaE-74" edge="1">
          <mxGeometry relative="1" as="geometry" />
        </mxCell>
        <mxCell id="EhTMDVM-AXUuS_yPvJaE-94" style="edgeStyle=orthogonalEdgeStyle;rounded=0;orthogonalLoop=1;jettySize=auto;html=1;exitX=0;exitY=0.5;exitDx=0;exitDy=0;entryX=0.5;entryY=1;entryDx=0;entryDy=0;" parent="1" source="EhTMDVM-AXUuS_yPvJaE-74" target="EhTMDVM-AXUuS_yPvJaE-84" edge="1">
          <mxGeometry relative="1" as="geometry" />
        </mxCell>
        <mxCell id="EhTMDVM-AXUuS_yPvJaE-95" value="&lt;div style=&quot;font-size: 12px&quot; align=&quot;left&quot;&gt;&lt;font style=&quot;font-size: 12px&quot;&gt;&lt;b&gt;NOTES&lt;/b&gt;&lt;/font&gt;&lt;/div&gt;&lt;div style=&quot;font-size: 12px&quot; align=&quot;left&quot;&gt;&lt;font style=&quot;font-size: 12px&quot;&gt;&lt;br&gt;&lt;/font&gt;&lt;/div&gt;&lt;div style=&quot;font-size: 12px&quot; align=&quot;left&quot;&gt;&lt;font style=&quot;font-size: 12px&quot;&gt;1. Showmax customer lock verification is done by the DNO/ISP&lt;/font&gt;&lt;/div&gt;&lt;div style=&quot;font-size: 12px&quot; align=&quot;left&quot;&gt;&lt;span style=&quot;text-align: center&quot;&gt;before the order is submitted and the orchestration starts&lt;/span&gt;&lt;/div&gt;&lt;div style=&quot;font-size: 12px&quot; align=&quot;left&quot;&gt;&lt;span style=&quot;text-align: center&quot;&gt;&lt;br&gt;&lt;/span&gt;&lt;/div&gt;&lt;div style=&quot;font-size: 12px&quot; align=&quot;left&quot;&gt;&lt;span style=&quot;text-align: center&quot;&gt;2. If an existing customer purchases an additional DvS offer,&amp;nbsp;&lt;/span&gt;&lt;/div&gt;&lt;div style=&quot;font-size: 12px&quot; align=&quot;left&quot;&gt;&lt;span style=&quot;text-align: center&quot;&gt;the activation email should be sent for that new offer&lt;/span&gt;&lt;/div&gt;&lt;div style=&quot;font-size: 12px&quot; align=&quot;left&quot;&gt;&lt;font style=&quot;font-size: 12px&quot;&gt;&lt;br&gt;&lt;/font&gt;&lt;/div&gt;" style="text;html=1;resizable=0;autosize=1;align=center;verticalAlign=middle;points=[];fillColor=none;strokeColor=none;rounded=0;dashed=1;fontSize=10;" parent="1" vertex="1">
          <mxGeometry x="1905" y="-437" width="350" height="100" as="geometry" />
        </mxCell>
        <mxCell id="EhTMDVM-AXUuS_yPvJaE-96" value="Milestones" style="swimlane;horizontal=0;fontSize=13;dashed=1;" parent="1" vertex="1">
          <mxGeometry x="1905" y="-1051" width="820" height="100" as="geometry">
            <mxRectangle x="40" y="40" width="30" height="90" as="alternateBounds" />
          </mxGeometry>
        </mxCell>
        <mxCell id="EhTMDVM-AXUuS_yPvJaE-97" value="Start Order &lt;br&gt;Activation" style="rounded=1;whiteSpace=wrap;html=1;fillColor=#dae8fc;strokeColor=#6c8ebf;" parent="EhTMDVM-AXUuS_yPvJaE-96" vertex="1">
          <mxGeometry x="41" y="30" width="120" height="40" as="geometry" />
        </mxCell>
        <mxCell id="EhTMDVM-AXUuS_yPvJaE-98" value="End Order &lt;br&gt;Activation" style="rounded=1;whiteSpace=wrap;html=1;fillColor=#dae8fc;strokeColor=#6c8ebf;" parent="EhTMDVM-AXUuS_yPvJaE-96" vertex="1">
          <mxGeometry x="670" y="25" width="120" height="40" as="geometry" />
        </mxCell>
        <mxCell id="EhTMDVM-AXUuS_yPvJaE-99" value="&lt;div&gt;First Activation of both DVS and Showmax products&amp;nbsp;&lt;/div&gt;&lt;div&gt;doesn&#39;t go to Activation Engine&lt;/div&gt;" style="text;html=1;resizable=0;autosize=1;align=left;verticalAlign=middle;points=[];fillColor=none;strokeColor=none;rounded=0;fontSize=10;" parent="EhTMDVM-AXUuS_yPvJaE-96" vertex="1">
          <mxGeometry x="189" y="9" width="242" height="28" as="geometry" />
        </mxCell>
        <mxCell id="EhTMDVM-AXUuS_yPvJaE-100" value="" style="group" parent="1" connectable="0" vertex="1">
          <mxGeometry x="2479" y="-487" width="245" height="138" as="geometry" />
        </mxCell>
        <mxCell id="EhTMDVM-AXUuS_yPvJaE-101" value="" style="rounded=1;whiteSpace=wrap;html=1;fillColor=#e1d5e7;strokeColor=#9673a6;" parent="EhTMDVM-AXUuS_yPvJaE-100" vertex="1">
          <mxGeometry y="29" width="50" height="20" as="geometry" />
        </mxCell>
        <mxCell id="EhTMDVM-AXUuS_yPvJaE-102" value="Callouts To 3P External Systems" style="text;html=1;align=center;verticalAlign=middle;resizable=0;points=[];autosize=1;strokeColor=none;" parent="EhTMDVM-AXUuS_yPvJaE-100" vertex="1">
          <mxGeometry x="52" y="30" width="184" height="18" as="geometry" />
        </mxCell>
        <mxCell id="EhTMDVM-AXUuS_yPvJaE-103" value="" style="group" parent="EhTMDVM-AXUuS_yPvJaE-100" connectable="0" vertex="1">
          <mxGeometry width="240" height="138" as="geometry" />
        </mxCell>
        <mxCell id="EhTMDVM-AXUuS_yPvJaE-104" value="" style="group" parent="EhTMDVM-AXUuS_yPvJaE-103" connectable="0" vertex="1">
          <mxGeometry width="230" height="108" as="geometry" />
        </mxCell>
        <mxCell id="EhTMDVM-AXUuS_yPvJaE-105" value="" style="group" parent="EhTMDVM-AXUuS_yPvJaE-104" connectable="0" vertex="1">
          <mxGeometry y="58" width="230" height="50" as="geometry" />
        </mxCell>
        <mxCell id="EhTMDVM-AXUuS_yPvJaE-106" value="" style="rounded=1;whiteSpace=wrap;html=1;fillColor=#ffe6cc;strokeColor=#d79b00;" parent="EhTMDVM-AXUuS_yPvJaE-105" vertex="1">
          <mxGeometry width="50" height="20" as="geometry" />
        </mxCell>
        <mxCell id="EhTMDVM-AXUuS_yPvJaE-107" value="Callouts To MC External Systems" style="text;html=1;align=center;verticalAlign=middle;resizable=0;points=[];autosize=1;strokeColor=none;" parent="EhTMDVM-AXUuS_yPvJaE-105" vertex="1">
          <mxGeometry x="51" width="190" height="20" as="geometry" />
        </mxCell>
        <mxCell id="EhTMDVM-AXUuS_yPvJaE-108" value="" style="rounded=1;whiteSpace=wrap;html=1;fillColor=#d5e8d4;strokeColor=#82b366;" parent="EhTMDVM-AXUuS_yPvJaE-105" vertex="1">
          <mxGeometry y="30" width="50" height="20" as="geometry" />
        </mxCell>
        <mxCell id="EhTMDVM-AXUuS_yPvJaE-109" value="Vlocity Internal Action" style="text;html=1;align=center;verticalAlign=middle;resizable=0;points=[];autosize=1;strokeColor=none;" parent="EhTMDVM-AXUuS_yPvJaE-105" vertex="1">
          <mxGeometry x="50" y="30" width="130" height="20" as="geometry" />
        </mxCell>
        <mxCell id="EhTMDVM-AXUuS_yPvJaE-110" value="&lt;b&gt;Legend&lt;/b&gt;" style="text;html=1;align=center;verticalAlign=middle;resizable=0;points=[];autosize=1;strokeColor=none;" parent="EhTMDVM-AXUuS_yPvJaE-104" vertex="1">
          <mxGeometry width="60" height="20" as="geometry" />
        </mxCell>
        <mxCell id="EhTMDVM-AXUuS_yPvJaE-111" value="" style="rounded=1;whiteSpace=wrap;html=1;fillColor=#dae8fc;strokeColor=#6c8ebf;" parent="EhTMDVM-AXUuS_yPvJaE-103" vertex="1">
          <mxGeometry y="118" width="50" height="20" as="geometry" />
        </mxCell>
        <mxCell id="EhTMDVM-AXUuS_yPvJaE-112" value="Milestones" style="text;html=1;align=left;verticalAlign=middle;resizable=0;points=[];autosize=1;strokeColor=none;" parent="EhTMDVM-AXUuS_yPvJaE-103" vertex="1">
          <mxGeometry x="57.5" y="118" width="70" height="20" as="geometry" />
        </mxCell>
        <mxCell id="EhTMDVM-AXUuS_yPvJaE-113" value="" style="rounded=1;whiteSpace=wrap;html=1;sketch=1;" parent="EhTMDVM-AXUuS_yPvJaE-103" vertex="1">
          <mxGeometry x="139" y="118" width="50" height="20" as="geometry" />
        </mxCell>
        <mxCell id="EhTMDVM-AXUuS_yPvJaE-114" value="Call-in" style="text;html=1;align=center;verticalAlign=middle;resizable=0;points=[];autosize=1;strokeColor=none;fillColor=none;" parent="EhTMDVM-AXUuS_yPvJaE-103" vertex="1">
          <mxGeometry x="196" y="119" width="44" height="18" as="geometry" />
        </mxCell>
        <mxCell id="EhTMDVM-AXUuS_yPvJaE-115" value="&lt;b&gt;&lt;font style=&quot;font-size: 12px&quot;&gt;One2Fibre: Order Provisioning Process for Move Address - Clarity Order&lt;/font&gt;&lt;/b&gt;" style="rounded=0;whiteSpace=wrap;html=1;fillColor=#f5f5f5;strokeColor=#666666;fontSize=11;fontColor=#333333;" parent="1" vertex="1">
          <mxGeometry x="1890" y="-1100" width="850" height="35" as="geometry" />
        </mxCell>
        <mxCell id="EhTMDVM-AXUuS_yPvJaE-116" value="Amoeba" style="swimlane;horizontal=0;fontSize=13;dashed=1;" parent="1" vertex="1">
          <mxGeometry x="1905" y="-951" width="820" height="141" as="geometry">
            <mxRectangle x="40" y="40" width="30" height="90" as="alternateBounds" />
          </mxGeometry>
        </mxCell>
        <mxCell id="EhTMDVM-AXUuS_yPvJaE-117" style="edgeStyle=orthogonalEdgeStyle;rounded=0;orthogonalLoop=1;jettySize=auto;html=1;exitX=1;exitY=0.5;exitDx=0;exitDy=0;entryX=0.5;entryY=0;entryDx=0;entryDy=0;" parent="EhTMDVM-AXUuS_yPvJaE-116" source="EhTMDVM-AXUuS_yPvJaE-118" target="EhTMDVM-AXUuS_yPvJaE-119" edge="1">
          <mxGeometry relative="1" as="geometry">
            <Array as="points">
              <mxPoint x="209" y="87" />
              <mxPoint x="209" y="47" />
              <mxPoint x="620" y="47" />
            </Array>
          </mxGeometry>
        </mxCell>
        <mxCell id="EhTMDVM-AXUuS_yPvJaE-118" value="Fiber Service&lt;br&gt;Move Address" style="rounded=1;whiteSpace=wrap;html=1;fillColor=#e1d5e7;strokeColor=#9673a6;" parent="EhTMDVM-AXUuS_yPvJaE-116" vertex="1">
          <mxGeometry x="41" y="67" width="120" height="40" as="geometry" />
        </mxCell>
        <mxCell id="EhTMDVM-AXUuS_yPvJaE-119" value="Fiber Change&lt;br&gt;Completion" style="rounded=1;whiteSpace=wrap;html=1;fillColor=#e1d5e7;strokeColor=#9673a6;sketch=1;" parent="EhTMDVM-AXUuS_yPvJaE-116" vertex="1">
          <mxGeometry x="560" y="67" width="120" height="43" as="geometry" />
        </mxCell>
        <mxCell id="EhTMDVM-AXUuS_yPvJaE-120" value="&lt;span style=&quot;font-size: 10px;&quot;&gt;Receive udpates on Agility order progress&lt;/span&gt;" style="text;html=1;align=center;verticalAlign=middle;resizable=0;points=[];autosize=1;strokeColor=none;fillColor=none;" parent="EhTMDVM-AXUuS_yPvJaE-116" vertex="1">
          <mxGeometry x="518.5" y="109" width="203" height="26" as="geometry" />
        </mxCell>
        <mxCell id="EhTMDVM-AXUuS_yPvJaE-121" value="Vlocity" style="swimlane;horizontal=0;container=0;dashed=1;" parent="1" vertex="1">
          <mxGeometry x="1905" y="-710" width="820" height="100" as="geometry" />
        </mxCell>
        <mxCell id="EhTMDVM-AXUuS_yPvJaE-122" value="Assetize" style="rounded=1;whiteSpace=wrap;html=1;fillColor=#d5e8d4;strokeColor=#82b366;" parent="EhTMDVM-AXUuS_yPvJaE-121" vertex="1">
          <mxGeometry x="139" y="30" width="120" height="40" as="geometry" />
        </mxCell>
        <mxCell id="EhTMDVM-AXUuS_yPvJaE-123" style="edgeStyle=orthogonalEdgeStyle;rounded=0;orthogonalLoop=1;jettySize=auto;html=1;exitX=1;exitY=0.5;exitDx=0;exitDy=0;" parent="1" source="EhTMDVM-AXUuS_yPvJaE-122" target="EhTMDVM-AXUuS_yPvJaE-98" edge="1">
          <mxGeometry relative="1" as="geometry" />
        </mxCell>
        <mxCell id="EhTMDVM-AXUuS_yPvJaE-124" style="edgeStyle=orthogonalEdgeStyle;rounded=0;orthogonalLoop=1;jettySize=auto;html=1;exitX=0.5;exitY=1;exitDx=0;exitDy=0;entryX=0.5;entryY=0;entryDx=0;entryDy=0;" parent="1" source="EhTMDVM-AXUuS_yPvJaE-97" target="EhTMDVM-AXUuS_yPvJaE-118" edge="1">
          <mxGeometry relative="1" as="geometry" />
        </mxCell>
        <mxCell id="EhTMDVM-AXUuS_yPvJaE-129" value="ICX" style="swimlane;horizontal=0;fontSize=13;dashed=1;" parent="1" vertex="1">
          <mxGeometry x="1905" y="-810" width="820" height="100" as="geometry">
            <mxRectangle x="40" y="40" width="30" height="90" as="alternateBounds" />
          </mxGeometry>
        </mxCell>
        <mxCell id="EhTMDVM-AXUuS_yPvJaE-130" style="edgeStyle=orthogonalEdgeStyle;rounded=0;orthogonalLoop=1;jettySize=auto;html=1;exitX=0;exitY=0.5;exitDx=0;exitDy=0;entryX=1;entryY=0.5;entryDx=0;entryDy=0;" parent="EhTMDVM-AXUuS_yPvJaE-129" source="EhTMDVM-AXUuS_yPvJaE-131" target="EhTMDVM-AXUuS_yPvJaE-133" edge="1">
          <mxGeometry relative="1" as="geometry" />
        </mxCell>
        <mxCell id="EhTMDVM-AXUuS_yPvJaE-131" value="TMF 622 Product Order (Suspend)" style="rounded=1;whiteSpace=wrap;html=1;fillColor=#ffe6cc;strokeColor=#d79b00;" parent="EhTMDVM-AXUuS_yPvJaE-129" vertex="1">
          <mxGeometry x="394" y="23" width="120" height="40" as="geometry" />
        </mxCell>
        <mxCell id="EhTMDVM-AXUuS_yPvJaE-132" value="&lt;font style=&quot;font-size: 10px&quot;&gt;ICX to resume the fiber service billing&lt;br&gt;&lt;/font&gt;" style="text;html=1;align=left;verticalAlign=middle;resizable=0;points=[];autosize=1;strokeColor=none;fillColor=none;" parent="EhTMDVM-AXUuS_yPvJaE-129" vertex="1">
          <mxGeometry x="134" width="184" height="26" as="geometry" />
        </mxCell>
        <mxCell id="EhTMDVM-AXUuS_yPvJaE-133" value="TMF 622 Product Order (Resume)" style="rounded=1;whiteSpace=wrap;html=1;fillColor=#ffe6cc;strokeColor=#d79b00;" parent="EhTMDVM-AXUuS_yPvJaE-129" vertex="1">
          <mxGeometry x="163" y="23" width="120" height="40" as="geometry" />
        </mxCell>
        <mxCell id="EhTMDVM-AXUuS_yPvJaE-134" value="&lt;font style=&quot;font-size: 10px&quot;&gt;ICX to suspend the fiber service billing&lt;br&gt;&lt;br&gt;&lt;/font&gt;" style="text;html=1;align=left;verticalAlign=middle;resizable=0;points=[];autosize=1;strokeColor=none;fillColor=none;" parent="EhTMDVM-AXUuS_yPvJaE-129" vertex="1">
          <mxGeometry x="373" y="56" width="188" height="41" as="geometry" />
        </mxCell>
        <mxCell id="EhTMDVM-AXUuS_yPvJaE-135" style="edgeStyle=orthogonalEdgeStyle;rounded=0;orthogonalLoop=1;jettySize=auto;html=1;exitX=0;exitY=0.5;exitDx=0;exitDy=0;entryX=0;entryY=0.5;entryDx=0;entryDy=0;startArrow=none;" parent="1" source="EhTMDVM-AXUuS_yPvJaE-133" target="EhTMDVM-AXUuS_yPvJaE-122" edge="1">
          <mxGeometry relative="1" as="geometry">
            <mxPoint x="2013" y="-669" as="targetPoint" />
          </mxGeometry>
        </mxCell>
        <mxCell id="EhTMDVM-AXUuS_yPvJaE-138" style="edgeStyle=orthogonalEdgeStyle;rounded=0;orthogonalLoop=1;jettySize=auto;html=1;exitX=0.5;exitY=1;exitDx=0;exitDy=0;entryX=0.425;entryY=0.975;entryDx=0;entryDy=0;entryPerimeter=0;" parent="1" source="EhTMDVM-AXUuS_yPvJaE-119" target="EhTMDVM-AXUuS_yPvJaE-133" edge="1">
          <mxGeometry relative="1" as="geometry" />
        </mxCell>
        <mxCell id="EhTMDVM-AXUuS_yPvJaE-139" style="edgeStyle=orthogonalEdgeStyle;rounded=0;orthogonalLoop=1;jettySize=auto;html=1;exitX=1;exitY=0.5;exitDx=0;exitDy=0;" parent="1" source="EhTMDVM-AXUuS_yPvJaE-140" target="EhTMDVM-AXUuS_yPvJaE-131" edge="1">
          <mxGeometry relative="1" as="geometry" />
        </mxCell>
        <mxCell id="EhTMDVM-AXUuS_yPvJaE-140" value="Fiber Cancellation (old address)&lt;br&gt;Completion" style="rounded=1;whiteSpace=wrap;html=1;fillColor=#e1d5e7;strokeColor=#9673a6;sketch=1;" parent="1" vertex="1">
          <mxGeometry x="2164" y="-885.5" width="120" height="43" as="geometry" />
        </mxCell>
        <mxCell id="EhTMDVM-AXUuS_yPvJaE-141" style="edgeStyle=orthogonalEdgeStyle;rounded=0;orthogonalLoop=1;jettySize=auto;html=1;exitX=1;exitY=0.5;exitDx=0;exitDy=0;entryX=0;entryY=0.5;entryDx=0;entryDy=0;" parent="1" source="EhTMDVM-AXUuS_yPvJaE-118" target="EhTMDVM-AXUuS_yPvJaE-140" edge="1">
          <mxGeometry relative="1" as="geometry" />
        </mxCell>
        <mxCell id="EhTMDVM-AXUuS_yPvJaE-142" value="&lt;font style=&quot;font-size: 10px;&quot;&gt;Receive confirmation of previous line cancellation from Agility&lt;/font&gt;" style="text;html=1;align=center;verticalAlign=middle;resizable=0;points=[];autosize=1;strokeColor=none;fillColor=none;" parent="1" vertex="1">
          <mxGeometry x="2109" y="-907" width="289" height="26" as="geometry" />
        </mxCell>
        <mxCell id="EhTMDVM-AXUuS_yPvJaE-143" value="&lt;div style=&quot;font-size: 12px&quot; align=&quot;left&quot;&gt;&lt;font style=&quot;font-size: 12px&quot;&gt;&lt;b&gt;NOTES&lt;/b&gt;&lt;/font&gt;&lt;/div&gt;&lt;div style=&quot;font-size: 12px&quot; align=&quot;left&quot;&gt;&lt;font style=&quot;font-size: 12px&quot;&gt;&lt;br&gt;&lt;/font&gt;&lt;/div&gt;&lt;div style=&quot;&quot; align=&quot;left&quot;&gt;&lt;font style=&quot;font-size: 12px;&quot;&gt;1.&amp;nbsp;&lt;/font&gt;&lt;span style=&quot;font-family: &amp;quot;Helvetica Neue&amp;quot;; background-color: initial;&quot;&gt;&lt;font style=&quot;font-size: 12px;&quot;&gt;What happens to hardware items with instalment plan active?&lt;/font&gt;&lt;/span&gt;&lt;/div&gt;&lt;div style=&quot;font-size: 12px&quot; align=&quot;left&quot;&gt;&lt;span style=&quot;text-align: center&quot;&gt;&lt;br&gt;&lt;/span&gt;&lt;/div&gt;&lt;div style=&quot;&quot; align=&quot;left&quot;&gt;&lt;span style=&quot;font-size: 12px; text-align: center;&quot;&gt;2.&amp;nbsp;&lt;/span&gt;&lt;span style=&quot;font-family: &amp;quot;Helvetica Neue&amp;quot;; background-color: initial;&quot;&gt;&lt;font style=&quot;font-size: 12px;&quot;&gt;What happens to the hardware items? &lt;br&gt;They remain associated to customer or should be returned?&lt;/font&gt;&lt;/span&gt;&lt;/div&gt;&lt;div style=&quot;font-size: 12px&quot; align=&quot;left&quot;&gt;&lt;font style=&quot;font-size: 12px&quot;&gt;&lt;br&gt;&lt;/font&gt;&lt;/div&gt;" style="text;html=1;resizable=0;autosize=1;align=center;verticalAlign=middle;points=[];fillColor=none;strokeColor=none;rounded=0;dashed=1;fontSize=10;" parent="1" vertex="1">
          <mxGeometry x="2830" y="-468" width="353" height="93" as="geometry" />
        </mxCell>
        <mxCell id="EhTMDVM-AXUuS_yPvJaE-144" value="Milestones" style="swimlane;horizontal=0;fontSize=13;dashed=1;" parent="1" vertex="1">
          <mxGeometry x="2804" y="-1049" width="820" height="100" as="geometry">
            <mxRectangle x="40" y="40" width="30" height="90" as="alternateBounds" />
          </mxGeometry>
        </mxCell>
        <mxCell id="EhTMDVM-AXUuS_yPvJaE-145" value="Start Order &lt;br&gt;Activation" style="rounded=1;whiteSpace=wrap;html=1;fillColor=#dae8fc;strokeColor=#6c8ebf;" parent="EhTMDVM-AXUuS_yPvJaE-144" vertex="1">
          <mxGeometry x="41" y="30" width="120" height="40" as="geometry" />
        </mxCell>
        <mxCell id="EhTMDVM-AXUuS_yPvJaE-146" value="End Order &lt;br&gt;Activation" style="rounded=1;whiteSpace=wrap;html=1;fillColor=#dae8fc;strokeColor=#6c8ebf;" parent="EhTMDVM-AXUuS_yPvJaE-144" vertex="1">
          <mxGeometry x="670" y="25" width="120" height="40" as="geometry" />
        </mxCell>
        <mxCell id="EhTMDVM-AXUuS_yPvJaE-147" value="AgreementId received in input when order is created to &lt;br&gt;uniquely identify the Asset records to disconnect" style="text;html=1;align=left;verticalAlign=middle;resizable=0;points=[];autosize=1;strokeColor=none;fillColor=none;fontColor=#CC0000;" parent="EhTMDVM-AXUuS_yPvJaE-144" vertex="1">
          <mxGeometry x="174" y="33" width="302" height="32" as="geometry" />
        </mxCell>
        <mxCell id="EhTMDVM-AXUuS_yPvJaE-148" value="" style="group" parent="1" connectable="0" vertex="1">
          <mxGeometry x="3379" y="-487" width="245" height="138" as="geometry" />
        </mxCell>
        <mxCell id="EhTMDVM-AXUuS_yPvJaE-149" value="" style="rounded=1;whiteSpace=wrap;html=1;fillColor=#e1d5e7;strokeColor=#9673a6;" parent="EhTMDVM-AXUuS_yPvJaE-148" vertex="1">
          <mxGeometry y="29" width="50" height="20" as="geometry" />
        </mxCell>
        <mxCell id="EhTMDVM-AXUuS_yPvJaE-150" value="Callouts To 3P External Systems" style="text;html=1;align=center;verticalAlign=middle;resizable=0;points=[];autosize=1;strokeColor=none;" parent="EhTMDVM-AXUuS_yPvJaE-148" vertex="1">
          <mxGeometry x="52" y="30" width="184" height="18" as="geometry" />
        </mxCell>
        <mxCell id="EhTMDVM-AXUuS_yPvJaE-151" value="" style="group" parent="EhTMDVM-AXUuS_yPvJaE-148" connectable="0" vertex="1">
          <mxGeometry width="240" height="138" as="geometry" />
        </mxCell>
        <mxCell id="EhTMDVM-AXUuS_yPvJaE-152" value="" style="group" parent="EhTMDVM-AXUuS_yPvJaE-151" connectable="0" vertex="1">
          <mxGeometry width="230" height="108" as="geometry" />
        </mxCell>
        <mxCell id="EhTMDVM-AXUuS_yPvJaE-153" value="" style="group" parent="EhTMDVM-AXUuS_yPvJaE-152" connectable="0" vertex="1">
          <mxGeometry y="58" width="230" height="50" as="geometry" />
        </mxCell>
        <mxCell id="EhTMDVM-AXUuS_yPvJaE-154" value="" style="rounded=1;whiteSpace=wrap;html=1;fillColor=#ffe6cc;strokeColor=#d79b00;" parent="EhTMDVM-AXUuS_yPvJaE-153" vertex="1">
          <mxGeometry width="50" height="20" as="geometry" />
        </mxCell>
        <mxCell id="EhTMDVM-AXUuS_yPvJaE-155" value="Callouts To MC External Systems" style="text;html=1;align=center;verticalAlign=middle;resizable=0;points=[];autosize=1;strokeColor=none;" parent="EhTMDVM-AXUuS_yPvJaE-153" vertex="1">
          <mxGeometry x="51" width="190" height="20" as="geometry" />
        </mxCell>
        <mxCell id="EhTMDVM-AXUuS_yPvJaE-156" value="" style="rounded=1;whiteSpace=wrap;html=1;fillColor=#d5e8d4;strokeColor=#82b366;" parent="EhTMDVM-AXUuS_yPvJaE-153" vertex="1">
          <mxGeometry y="30" width="50" height="20" as="geometry" />
        </mxCell>
        <mxCell id="EhTMDVM-AXUuS_yPvJaE-157" value="Vlocity Internal Action" style="text;html=1;align=center;verticalAlign=middle;resizable=0;points=[];autosize=1;strokeColor=none;" parent="EhTMDVM-AXUuS_yPvJaE-153" vertex="1">
          <mxGeometry x="50" y="30" width="130" height="20" as="geometry" />
        </mxCell>
        <mxCell id="EhTMDVM-AXUuS_yPvJaE-158" value="&lt;b&gt;Legend&lt;/b&gt;" style="text;html=1;align=center;verticalAlign=middle;resizable=0;points=[];autosize=1;strokeColor=none;" parent="EhTMDVM-AXUuS_yPvJaE-152" vertex="1">
          <mxGeometry width="60" height="20" as="geometry" />
        </mxCell>
        <mxCell id="EhTMDVM-AXUuS_yPvJaE-159" value="" style="rounded=1;whiteSpace=wrap;html=1;fillColor=#dae8fc;strokeColor=#6c8ebf;" parent="EhTMDVM-AXUuS_yPvJaE-151" vertex="1">
          <mxGeometry y="118" width="50" height="20" as="geometry" />
        </mxCell>
        <mxCell id="EhTMDVM-AXUuS_yPvJaE-160" value="Milestones" style="text;html=1;align=left;verticalAlign=middle;resizable=0;points=[];autosize=1;strokeColor=none;" parent="EhTMDVM-AXUuS_yPvJaE-151" vertex="1">
          <mxGeometry x="57.5" y="118" width="70" height="20" as="geometry" />
        </mxCell>
        <mxCell id="EhTMDVM-AXUuS_yPvJaE-161" value="" style="rounded=1;whiteSpace=wrap;html=1;sketch=1;" parent="EhTMDVM-AXUuS_yPvJaE-151" vertex="1">
          <mxGeometry x="139" y="118" width="50" height="20" as="geometry" />
        </mxCell>
        <mxCell id="EhTMDVM-AXUuS_yPvJaE-162" value="Call-in" style="text;html=1;align=center;verticalAlign=middle;resizable=0;points=[];autosize=1;strokeColor=none;fillColor=none;" parent="EhTMDVM-AXUuS_yPvJaE-151" vertex="1">
          <mxGeometry x="196" y="119" width="44" height="18" as="geometry" />
        </mxCell>
        <mxCell id="EhTMDVM-AXUuS_yPvJaE-163" value="&lt;b&gt;&lt;font style=&quot;font-size: 12px&quot;&gt;Go - Digital: Order Provisioning Process for Disconnect/Reconnect/Cancel Product&lt;/font&gt;&lt;/b&gt;" style="rounded=0;whiteSpace=wrap;html=1;fillColor=#f5f5f5;strokeColor=#666666;fontSize=11;fontColor=#333333;" parent="1" vertex="1">
          <mxGeometry x="2790" y="-1100" width="850" height="35" as="geometry" />
        </mxCell>
        <mxCell id="EhTMDVM-AXUuS_yPvJaE-168" value="Vlocity" style="swimlane;horizontal=0;container=0;dashed=1;" parent="1" vertex="1">
          <mxGeometry x="2805" y="-839.63" width="820" height="103" as="geometry" />
        </mxCell>
        <mxCell id="EhTMDVM-AXUuS_yPvJaE-169" value="Assetize" style="rounded=1;whiteSpace=wrap;html=1;fillColor=#d5e8d4;strokeColor=#82b366;" parent="EhTMDVM-AXUuS_yPvJaE-168" vertex="1">
          <mxGeometry x="533" y="39" width="120" height="40" as="geometry" />
        </mxCell>
        <mxCell id="EhTMDVM-AXUuS_yPvJaE-170" style="edgeStyle=orthogonalEdgeStyle;rounded=0;orthogonalLoop=1;jettySize=auto;html=1;exitX=1;exitY=0.5;exitDx=0;exitDy=0;" parent="1" source="EhTMDVM-AXUuS_yPvJaE-169" target="EhTMDVM-AXUuS_yPvJaE-146" edge="1">
          <mxGeometry relative="1" as="geometry" />
        </mxCell>
        <mxCell id="EhTMDVM-AXUuS_yPvJaE-176" value="Vlocity" style="swimlane;horizontal=0;fontSize=13;dashed=1;" parent="1" vertex="1">
          <mxGeometry x="2804" y="-949" width="820" height="109.36999999999999" as="geometry">
            <mxRectangle x="40" y="40" width="30" height="90" as="alternateBounds" />
          </mxGeometry>
        </mxCell>
        <mxCell id="EhTMDVM-AXUuS_yPvJaE-177" style="edgeStyle=orthogonalEdgeStyle;rounded=0;orthogonalLoop=1;jettySize=auto;html=1;exitX=1;exitY=0.5;exitDx=0;exitDy=0;entryX=0;entryY=0.5;entryDx=0;entryDy=0;" parent="EhTMDVM-AXUuS_yPvJaE-176" source="EhTMDVM-AXUuS_yPvJaE-178" target="EhTMDVM-AXUuS_yPvJaE-179" edge="1">
          <mxGeometry relative="1" as="geometry" />
        </mxCell>
        <mxCell id="EhTMDVM-AXUuS_yPvJaE-178" value="Fiber fullfillment" style="rounded=1;whiteSpace=wrap;html=1;fillColor=#e1d5e7;strokeColor=#9673a6;" parent="EhTMDVM-AXUuS_yPvJaE-176" vertex="1">
          <mxGeometry x="41" y="34.680000000000064" width="120" height="40" as="geometry" />
        </mxCell>
        <mxCell id="EhTMDVM-AXUuS_yPvJaE-179" value="Fiber Operation Completion" style="rounded=1;whiteSpace=wrap;html=1;fillColor=#e1d5e7;strokeColor=#9673a6;sketch=1;" parent="EhTMDVM-AXUuS_yPvJaE-176" vertex="1">
          <mxGeometry x="204" y="34.680000000000064" width="120" height="40" as="geometry" />
        </mxCell>
        <mxCell id="EhTMDVM-AXUuS_yPvJaE-181" value="Reconnect ICX event: 171&lt;br&gt;Disconnect ICX event: 1133&lt;br&gt;Cancel ICX event: 142 (but to double check on reason code)" style="text;html=1;align=left;verticalAlign=middle;resizable=0;points=[];autosize=1;strokeColor=none;fillColor=none;fontColor=#CC0000;" parent="1" vertex="1">
          <mxGeometry x="3045" y="-590" width="332" height="46" as="geometry" />
        </mxCell>
        <mxCell id="EhTMDVM-AXUuS_yPvJaE-186" value="" style="rounded=1;whiteSpace=wrap;html=1;fillColor=#f8cecc;strokeColor=#b85450;" parent="1" vertex="1">
          <mxGeometry x="3379" y="-338" width="50" height="20" as="geometry" />
        </mxCell>
        <mxCell id="EhTMDVM-AXUuS_yPvJaE-187" value="Step to be closed manually" style="text;html=1;align=left;verticalAlign=middle;resizable=0;points=[];autosize=1;strokeColor=none;" parent="1" vertex="1">
          <mxGeometry x="3438" y="-337" width="154" height="18" as="geometry" />
        </mxCell>
        <mxCell id="EhTMDVM-AXUuS_yPvJaE-188" style="edgeStyle=orthogonalEdgeStyle;rounded=0;orthogonalLoop=1;jettySize=auto;html=1;exitX=0.5;exitY=1;exitDx=0;exitDy=0;entryX=0.5;entryY=0;entryDx=0;entryDy=0;" parent="1" source="EhTMDVM-AXUuS_yPvJaE-145" target="EhTMDVM-AXUuS_yPvJaE-178" edge="1">
          <mxGeometry relative="1" as="geometry" />
        </mxCell>
        <mxCell id="jY-lbyZD9esiQbPnbnWP-1" style="edgeStyle=orthogonalEdgeStyle;rounded=0;orthogonalLoop=1;jettySize=auto;html=1;exitX=0.5;exitY=1;exitDx=0;exitDy=0;entryX=0;entryY=0.75;entryDx=0;entryDy=0;" parent="1" source="EhTMDVM-AXUuS_yPvJaE-179" target="EhTMDVM-AXUuS_yPvJaE-169" edge="1">
          <mxGeometry relative="1" as="geometry" />
        </mxCell>
      </root>
    </mxGraphModel>
  </diagram>
  <diagram id="yxaHhZGB6Cf_vJLTf6CE" name="DVS SA">
    <mxGraphModel dx="2524" dy="2946" grid="1" gridSize="10" guides="1" tooltips="1" connect="1" arrows="1" fold="1" page="1" pageScale="1" pageWidth="850" pageHeight="1100" math="0" shadow="0">
      <root>
        <mxCell id="0" />
        <mxCell id="1" parent="0" />
        <mxCell id="JmEIFxHQnl5Z78E1Pm7d-16" value="&lt;b&gt;&lt;font style=&quot;font-size: 12px&quot;&gt;SA Residential DVS Products: Order Provisioning Process for Disconnect/Cancel - Clarity order&lt;/font&gt;&lt;/b&gt;" style="rounded=0;whiteSpace=wrap;html=1;fillColor=#f5f5f5;strokeColor=#666666;fontSize=11;fontColor=#333333;" parent="1" vertex="1">
          <mxGeometry x="645.5" y="-1014" width="850" height="35" as="geometry" />
        </mxCell>
        <mxCell id="JmEIFxHQnl5Z78E1Pm7d-19" value="ICX" style="swimlane;horizontal=0;fontSize=13;dashed=1;startSize=23;" parent="1" vertex="1">
          <mxGeometry x="651" y="-616" width="821" height="77" as="geometry">
            <mxRectangle x="40" y="40" width="30" height="90" as="alternateBounds" />
          </mxGeometry>
        </mxCell>
        <mxCell id="xhMMg1iWCHHjED28lBxq-14" style="edgeStyle=orthogonalEdgeStyle;rounded=0;orthogonalLoop=1;jettySize=auto;html=1;exitX=1;exitY=0.5;exitDx=0;exitDy=0;" parent="JmEIFxHQnl5Z78E1Pm7d-19" source="JmEIFxHQnl5Z78E1Pm7d-20" edge="1">
          <mxGeometry relative="1" as="geometry">
            <mxPoint x="299.5" y="102" as="targetPoint" />
          </mxGeometry>
        </mxCell>
        <mxCell id="JmEIFxHQnl5Z78E1Pm7d-20" value="TMF 622 Change Order to ICX" style="rounded=1;whiteSpace=wrap;html=1;fillColor=#ffe6cc;strokeColor=#d79b00;" parent="JmEIFxHQnl5Z78E1Pm7d-19" vertex="1">
          <mxGeometry x="69" y="18.5" width="120" height="40" as="geometry" />
        </mxCell>
        <mxCell id="qOJOND1h9TPlWTjE-uad-2" value="(Optional*) Get Product status on ICX" style="rounded=1;whiteSpace=wrap;html=1;fillColor=#ffe6cc;strokeColor=#d79b00;arcSize=0;" parent="JmEIFxHQnl5Z78E1Pm7d-19" vertex="1">
          <mxGeometry x="439.5" y="18.5" width="120" height="40" as="geometry" />
        </mxCell>
        <mxCell id="JmEIFxHQnl5Z78E1Pm7d-21" value="UMF" style="swimlane;horizontal=0;dashed=1;startSize=23;" parent="1" vertex="1">
          <mxGeometry x="650.5" y="-439" width="820" height="102" as="geometry" />
        </mxCell>
        <mxCell id="JmEIFxHQnl5Z78E1Pm7d-22" value="Salesforce" style="swimlane;horizontal=0;container=0;dashed=1;" parent="1" vertex="1">
          <mxGeometry x="651" y="-539" width="820" height="100" as="geometry" />
        </mxCell>
        <mxCell id="JmEIFxHQnl5Z78E1Pm7d-23" value="Assetize" style="rounded=1;whiteSpace=wrap;html=1;fillColor=#d5e8d4;strokeColor=#82b366;" parent="JmEIFxHQnl5Z78E1Pm7d-22" vertex="1">
          <mxGeometry x="670" y="30" width="120" height="40" as="geometry" />
        </mxCell>
        <mxCell id="qOJOND1h9TPlWTjE-uad-3" value="(Optional*) Waiting ICX Scheduled date" style="rounded=1;whiteSpace=wrap;html=1;fillColor=#d5e8d4;strokeColor=#82b366;" parent="JmEIFxHQnl5Z78E1Pm7d-22" vertex="1">
          <mxGeometry x="239.5" y="30" width="120" height="40" as="geometry" />
        </mxCell>
        <mxCell id="JmEIFxHQnl5Z78E1Pm7d-24" value="WebMethods" style="swimlane;horizontal=0;fontSize=13;dashed=1;startSize=23;" parent="1" vertex="1">
          <mxGeometry x="651" y="-717" width="821" height="101" as="geometry">
            <mxRectangle x="40" y="40" width="30" height="90" as="alternateBounds" />
          </mxGeometry>
        </mxCell>
        <mxCell id="JmEIFxHQnl5Z78E1Pm7d-25" value="CV" style="swimlane;horizontal=0;fontSize=13;dashed=1;startSize=23;" parent="1" vertex="1">
          <mxGeometry x="650.5" y="-832" width="821.5" height="114" as="geometry">
            <mxRectangle x="40" y="40" width="30" height="90" as="alternateBounds" />
          </mxGeometry>
        </mxCell>
        <mxCell id="JmEIFxHQnl5Z78E1Pm7d-26" style="edgeStyle=orthogonalEdgeStyle;rounded=0;orthogonalLoop=1;jettySize=auto;html=1;exitX=0.5;exitY=1;exitDx=0;exitDy=0;" parent="JmEIFxHQnl5Z78E1Pm7d-25" edge="1">
          <mxGeometry relative="1" as="geometry">
            <mxPoint x="295.5" y="63" as="sourcePoint" />
            <mxPoint x="295.5" y="63" as="targetPoint" />
          </mxGeometry>
        </mxCell>
        <mxCell id="JmEIFxHQnl5Z78E1Pm7d-28" value="Milestones" style="swimlane;horizontal=0;fontSize=13;dashed=1;" parent="1" vertex="1">
          <mxGeometry x="651" y="-948" width="821.5" height="116" as="geometry">
            <mxRectangle x="40" y="40" width="30" height="90" as="alternateBounds" />
          </mxGeometry>
        </mxCell>
        <mxCell id="JmEIFxHQnl5Z78E1Pm7d-29" value="Start Order" style="rounded=1;whiteSpace=wrap;html=1;fillColor=#dae8fc;strokeColor=#6c8ebf;" parent="JmEIFxHQnl5Z78E1Pm7d-28" vertex="1">
          <mxGeometry x="69.5" y="38" width="120" height="40" as="geometry" />
        </mxCell>
        <mxCell id="JmEIFxHQnl5Z78E1Pm7d-30" value="End Order" style="rounded=1;whiteSpace=wrap;html=1;fillColor=#dae8fc;strokeColor=#6c8ebf;" parent="JmEIFxHQnl5Z78E1Pm7d-28" vertex="1">
          <mxGeometry x="670" y="38" width="120" height="40" as="geometry" />
        </mxCell>
        <mxCell id="JmEIFxHQnl5Z78E1Pm7d-34" value="" style="group" parent="1" connectable="0" vertex="1">
          <mxGeometry x="1190" y="-1392" width="245" height="138" as="geometry" />
        </mxCell>
        <mxCell id="JmEIFxHQnl5Z78E1Pm7d-35" value="" style="rounded=1;whiteSpace=wrap;html=1;fillColor=#e1d5e7;strokeColor=#9673a6;" parent="JmEIFxHQnl5Z78E1Pm7d-34" vertex="1">
          <mxGeometry y="29" width="50" height="20" as="geometry" />
        </mxCell>
        <mxCell id="JmEIFxHQnl5Z78E1Pm7d-36" value="Callouts To 3P External Systems" style="text;html=1;align=center;verticalAlign=middle;resizable=0;points=[];autosize=1;strokeColor=none;" parent="JmEIFxHQnl5Z78E1Pm7d-34" vertex="1">
          <mxGeometry x="52" y="30" width="184" height="18" as="geometry" />
        </mxCell>
        <mxCell id="JmEIFxHQnl5Z78E1Pm7d-37" value="" style="group" parent="JmEIFxHQnl5Z78E1Pm7d-34" connectable="0" vertex="1">
          <mxGeometry width="240" height="138" as="geometry" />
        </mxCell>
        <mxCell id="JmEIFxHQnl5Z78E1Pm7d-38" value="" style="group" parent="JmEIFxHQnl5Z78E1Pm7d-37" connectable="0" vertex="1">
          <mxGeometry width="230" height="111" as="geometry" />
        </mxCell>
        <mxCell id="JmEIFxHQnl5Z78E1Pm7d-39" value="" style="group" parent="JmEIFxHQnl5Z78E1Pm7d-38" connectable="0" vertex="1">
          <mxGeometry y="58" width="230" height="53" as="geometry" />
        </mxCell>
        <mxCell id="JmEIFxHQnl5Z78E1Pm7d-40" value="" style="rounded=1;whiteSpace=wrap;html=1;fillColor=#ffe6cc;strokeColor=#d79b00;" parent="JmEIFxHQnl5Z78E1Pm7d-39" vertex="1">
          <mxGeometry width="50" height="20" as="geometry" />
        </mxCell>
        <mxCell id="JmEIFxHQnl5Z78E1Pm7d-41" value="Callouts To MC External Systems" style="text;html=1;align=center;verticalAlign=middle;resizable=0;points=[];autosize=1;strokeColor=none;" parent="JmEIFxHQnl5Z78E1Pm7d-39" vertex="1">
          <mxGeometry x="51" width="190" height="20" as="geometry" />
        </mxCell>
        <mxCell id="JmEIFxHQnl5Z78E1Pm7d-42" value="" style="rounded=1;whiteSpace=wrap;html=1;fillColor=#d5e8d4;strokeColor=#82b366;" parent="JmEIFxHQnl5Z78E1Pm7d-39" vertex="1">
          <mxGeometry y="30" width="50" height="20" as="geometry" />
        </mxCell>
        <mxCell id="JmEIFxHQnl5Z78E1Pm7d-43" value="Salesforce Internal Action" style="text;html=1;align=center;verticalAlign=middle;resizable=0;points=[];autosize=1;strokeColor=none;" parent="JmEIFxHQnl5Z78E1Pm7d-39" vertex="1">
          <mxGeometry x="53" y="27" width="154" height="26" as="geometry" />
        </mxCell>
        <mxCell id="JmEIFxHQnl5Z78E1Pm7d-44" value="&lt;b&gt;Legend&lt;/b&gt;" style="text;html=1;align=center;verticalAlign=middle;resizable=0;points=[];autosize=1;strokeColor=none;" parent="JmEIFxHQnl5Z78E1Pm7d-38" vertex="1">
          <mxGeometry width="60" height="20" as="geometry" />
        </mxCell>
        <mxCell id="JmEIFxHQnl5Z78E1Pm7d-45" value="" style="rounded=1;whiteSpace=wrap;html=1;fillColor=#dae8fc;strokeColor=#6c8ebf;" parent="JmEIFxHQnl5Z78E1Pm7d-37" vertex="1">
          <mxGeometry y="118" width="50" height="20" as="geometry" />
        </mxCell>
        <mxCell id="JmEIFxHQnl5Z78E1Pm7d-46" value="Milestones" style="text;html=1;align=left;verticalAlign=middle;resizable=0;points=[];autosize=1;strokeColor=none;" parent="JmEIFxHQnl5Z78E1Pm7d-37" vertex="1">
          <mxGeometry x="57.5" y="118" width="70" height="20" as="geometry" />
        </mxCell>
        <mxCell id="JmEIFxHQnl5Z78E1Pm7d-47" value="" style="rounded=1;whiteSpace=wrap;html=1;sketch=1;" parent="JmEIFxHQnl5Z78E1Pm7d-37" vertex="1">
          <mxGeometry x="139" y="118" width="50" height="20" as="geometry" />
        </mxCell>
        <mxCell id="JmEIFxHQnl5Z78E1Pm7d-48" value="Call-in" style="text;html=1;align=center;verticalAlign=middle;resizable=0;points=[];autosize=1;strokeColor=none;fillColor=none;" parent="JmEIFxHQnl5Z78E1Pm7d-37" vertex="1">
          <mxGeometry x="196" y="119" width="44" height="18" as="geometry" />
        </mxCell>
        <mxCell id="JmEIFxHQnl5Z78E1Pm7d-49" value="&lt;b&gt;&lt;font style=&quot;font-size: 12px&quot;&gt;SA Residential DVS Products: Order Provisioning Process for Upgrade/Downgrade - Clarity order&lt;/font&gt;&lt;/b&gt;" style="rounded=0;whiteSpace=wrap;html=1;fillColor=#f5f5f5;strokeColor=#666666;fontSize=11;fontColor=#333333;" parent="1" vertex="1">
          <mxGeometry x="630" y="-2150" width="850" height="35" as="geometry" />
        </mxCell>
        <mxCell id="JmEIFxHQnl5Z78E1Pm7d-50" value="" style="rounded=1;whiteSpace=wrap;html=1;fillColor=#bac8d3;strokeColor=#23445d;" parent="1" vertex="1">
          <mxGeometry x="1190" y="-1244" width="50" height="20" as="geometry" />
        </mxCell>
        <mxCell id="JmEIFxHQnl5Z78E1Pm7d-51" value="Callouts To&amp;nbsp;3rd Party External Systems" style="text;html=1;align=center;verticalAlign=middle;resizable=0;points=[];autosize=1;strokeColor=none;" parent="1" vertex="1">
          <mxGeometry x="1243" y="-1248" width="226" height="26" as="geometry" />
        </mxCell>
        <mxCell id="JmEIFxHQnl5Z78E1Pm7d-52" value="ICX" style="swimlane;horizontal=0;fontSize=13;dashed=1;startSize=23;" parent="1" vertex="1">
          <mxGeometry x="644.5" y="-1765" width="821" height="77" as="geometry">
            <mxRectangle x="40" y="40" width="30" height="90" as="alternateBounds" />
          </mxGeometry>
        </mxCell>
        <mxCell id="LxnEX4TQfZ6z-18JXDQl-2" style="edgeStyle=orthogonalEdgeStyle;rounded=0;orthogonalLoop=1;jettySize=auto;html=1;exitX=1;exitY=0.5;exitDx=0;exitDy=0;" parent="JmEIFxHQnl5Z78E1Pm7d-52" source="JmEIFxHQnl5Z78E1Pm7d-53" target="LxnEX4TQfZ6z-18JXDQl-1" edge="1">
          <mxGeometry relative="1" as="geometry" />
        </mxCell>
        <mxCell id="JmEIFxHQnl5Z78E1Pm7d-53" value="TMF 622 Change Order to ICX" style="rounded=1;whiteSpace=wrap;html=1;fillColor=#ffe6cc;strokeColor=#d79b00;" parent="JmEIFxHQnl5Z78E1Pm7d-52" vertex="1">
          <mxGeometry x="69" y="18.5" width="120" height="40" as="geometry" />
        </mxCell>
        <mxCell id="qOJOND1h9TPlWTjE-uad-24" value="(Optional*) Get Product status on ICX" style="rounded=1;whiteSpace=wrap;html=1;fillColor=#ffe6cc;strokeColor=#d79b00;" parent="JmEIFxHQnl5Z78E1Pm7d-52" vertex="1">
          <mxGeometry x="495.5" y="18.5" width="120" height="40" as="geometry" />
        </mxCell>
        <mxCell id="LxnEX4TQfZ6z-18JXDQl-1" value="(Optional**) Wait Billing Confirmation" style="rounded=1;whiteSpace=wrap;html=1;fillColor=#ffe6cc;strokeColor=#d79b00;" parent="JmEIFxHQnl5Z78E1Pm7d-52" vertex="1">
          <mxGeometry x="252.5" y="18.5" width="120" height="40" as="geometry" />
        </mxCell>
        <mxCell id="JmEIFxHQnl5Z78E1Pm7d-54" value="UMF" style="swimlane;horizontal=0;dashed=1;startSize=23;" parent="1" vertex="1">
          <mxGeometry x="644" y="-1588" width="820" height="102" as="geometry" />
        </mxCell>
        <mxCell id="JmEIFxHQnl5Z78E1Pm7d-55" value="Salesforce" style="swimlane;horizontal=0;container=0;dashed=1;" parent="1" vertex="1">
          <mxGeometry x="645.5" y="-1688" width="820" height="100" as="geometry" />
        </mxCell>
        <mxCell id="JmEIFxHQnl5Z78E1Pm7d-56" value="Assetize" style="rounded=1;whiteSpace=wrap;html=1;fillColor=#d5e8d4;strokeColor=#82b366;" parent="JmEIFxHQnl5Z78E1Pm7d-55" vertex="1">
          <mxGeometry x="670" y="30" width="120" height="40" as="geometry" />
        </mxCell>
        <mxCell id="qOJOND1h9TPlWTjE-uad-25" value="(Optional*) Waiting ICX Scheduled date" style="rounded=1;whiteSpace=wrap;html=1;fillColor=#d5e8d4;strokeColor=#82b366;" parent="JmEIFxHQnl5Z78E1Pm7d-55" vertex="1">
          <mxGeometry x="251" y="30" width="120" height="40" as="geometry" />
        </mxCell>
        <mxCell id="qOJOND1h9TPlWTjE-uad-31" style="edgeStyle=orthogonalEdgeStyle;rounded=0;orthogonalLoop=1;jettySize=auto;html=1;exitX=1;exitY=0.5;exitDx=0;exitDy=0;" parent="JmEIFxHQnl5Z78E1Pm7d-55" source="qOJOND1h9TPlWTjE-uad-29" target="JmEIFxHQnl5Z78E1Pm7d-56" edge="1">
          <mxGeometry relative="1" as="geometry" />
        </mxCell>
        <mxCell id="qOJOND1h9TPlWTjE-uad-29" value="(Optional*) Update Agreement Details" style="rounded=1;whiteSpace=wrap;html=1;fillColor=#d5e8d4;strokeColor=#82b366;" parent="JmEIFxHQnl5Z78E1Pm7d-55" vertex="1">
          <mxGeometry x="495" y="30" width="120" height="40" as="geometry" />
        </mxCell>
        <mxCell id="JmEIFxHQnl5Z78E1Pm7d-57" value="WebMethods" style="swimlane;horizontal=0;fontSize=13;dashed=1;startSize=23;" parent="1" vertex="1">
          <mxGeometry x="644.5" y="-1866" width="821" height="101" as="geometry">
            <mxRectangle x="40" y="40" width="30" height="90" as="alternateBounds" />
          </mxGeometry>
        </mxCell>
        <mxCell id="JmEIFxHQnl5Z78E1Pm7d-58" value="CV" style="swimlane;horizontal=0;fontSize=13;dashed=1;startSize=23;" parent="1" vertex="1">
          <mxGeometry x="644" y="-1981" width="821.5" height="114" as="geometry">
            <mxRectangle x="40" y="40" width="30" height="90" as="alternateBounds" />
          </mxGeometry>
        </mxCell>
        <mxCell id="JmEIFxHQnl5Z78E1Pm7d-59" style="edgeStyle=orthogonalEdgeStyle;rounded=0;orthogonalLoop=1;jettySize=auto;html=1;exitX=0.5;exitY=1;exitDx=0;exitDy=0;" parent="JmEIFxHQnl5Z78E1Pm7d-58" edge="1">
          <mxGeometry relative="1" as="geometry">
            <mxPoint x="295.5" y="63" as="sourcePoint" />
            <mxPoint x="295.5" y="63" as="targetPoint" />
          </mxGeometry>
        </mxCell>
        <mxCell id="JmEIFxHQnl5Z78E1Pm7d-61" value="Milestones" style="swimlane;horizontal=0;fontSize=13;dashed=1;" parent="1" vertex="1">
          <mxGeometry x="644.5" y="-2097" width="821.5" height="116" as="geometry">
            <mxRectangle x="40" y="40" width="30" height="90" as="alternateBounds" />
          </mxGeometry>
        </mxCell>
        <mxCell id="JmEIFxHQnl5Z78E1Pm7d-62" value="Start Order" style="rounded=1;whiteSpace=wrap;html=1;fillColor=#dae8fc;strokeColor=#6c8ebf;" parent="JmEIFxHQnl5Z78E1Pm7d-61" vertex="1">
          <mxGeometry x="69" y="38" width="120" height="40" as="geometry" />
        </mxCell>
        <mxCell id="JmEIFxHQnl5Z78E1Pm7d-63" value="End Order" style="rounded=1;whiteSpace=wrap;html=1;fillColor=#dae8fc;strokeColor=#6c8ebf;" parent="JmEIFxHQnl5Z78E1Pm7d-61" vertex="1">
          <mxGeometry x="670" y="38" width="120" height="40" as="geometry" />
        </mxCell>
        <mxCell id="JmEIFxHQnl5Z78E1Pm7d-67" value="&lt;b&gt;&lt;font style=&quot;font-size: 12px&quot;&gt;SA Residential DVS Products: Order Provisioning Process for Reconnect- Clarity order&lt;/font&gt;&lt;/b&gt;" style="rounded=0;whiteSpace=wrap;html=1;fillColor=#f5f5f5;strokeColor=#666666;fontSize=11;fontColor=#333333;" parent="1" vertex="1">
          <mxGeometry x="1710" y="-2150" width="850" height="35" as="geometry" />
        </mxCell>
        <mxCell id="JmEIFxHQnl5Z78E1Pm7d-68" value="ICX" style="swimlane;horizontal=0;fontSize=13;dashed=1;startSize=23;" parent="1" vertex="1">
          <mxGeometry x="1724.5" y="-1755" width="821" height="77" as="geometry">
            <mxRectangle x="40" y="40" width="30" height="90" as="alternateBounds" />
          </mxGeometry>
        </mxCell>
        <mxCell id="JmEIFxHQnl5Z78E1Pm7d-69" value="TMF 622 Change Order to ICX" style="rounded=1;whiteSpace=wrap;html=1;fillColor=#ffe6cc;strokeColor=#d79b00;" parent="JmEIFxHQnl5Z78E1Pm7d-68" vertex="1">
          <mxGeometry x="69" y="18.5" width="120" height="40" as="geometry" />
        </mxCell>
        <mxCell id="JmEIFxHQnl5Z78E1Pm7d-85" value="(Optional**) Wait Billing Confirmation" style="rounded=1;whiteSpace=wrap;html=1;fillColor=#ffe6cc;strokeColor=#d79b00;gradientColor=none;" parent="JmEIFxHQnl5Z78E1Pm7d-68" vertex="1">
          <mxGeometry x="267" y="18.5" width="120" height="40" as="geometry" />
        </mxCell>
        <mxCell id="xhMMg1iWCHHjED28lBxq-8" value="(Optional*) Get Product status on ICX" style="rounded=1;whiteSpace=wrap;html=1;fillColor=#ffe6cc;strokeColor=#d79b00;gradientColor=none;" parent="JmEIFxHQnl5Z78E1Pm7d-68" vertex="1">
          <mxGeometry x="465.5" y="18.5" width="120" height="40" as="geometry" />
        </mxCell>
        <mxCell id="JmEIFxHQnl5Z78E1Pm7d-70" value="UMF" style="swimlane;horizontal=0;dashed=1;startSize=23;" parent="1" vertex="1">
          <mxGeometry x="1724" y="-1578" width="820" height="102" as="geometry" />
        </mxCell>
        <mxCell id="JmEIFxHQnl5Z78E1Pm7d-71" value="Salesforce" style="swimlane;horizontal=0;container=0;dashed=1;" parent="1" vertex="1">
          <mxGeometry x="1724.5" y="-1678" width="820" height="100" as="geometry" />
        </mxCell>
        <mxCell id="JmEIFxHQnl5Z78E1Pm7d-72" value="Assetize" style="rounded=1;whiteSpace=wrap;html=1;fillColor=#d5e8d4;strokeColor=#82b366;" parent="JmEIFxHQnl5Z78E1Pm7d-71" vertex="1">
          <mxGeometry x="670" y="30" width="120" height="40" as="geometry" />
        </mxCell>
        <mxCell id="JmEIFxHQnl5Z78E1Pm7d-82" value="Generate Payment Link" style="rounded=1;whiteSpace=wrap;html=1;fillColor=#d5e8d4;strokeColor=#82b366;" parent="JmEIFxHQnl5Z78E1Pm7d-71" vertex="1">
          <mxGeometry x="69" y="30" width="120" height="40" as="geometry" />
        </mxCell>
        <mxCell id="xhMMg1iWCHHjED28lBxq-7" value="(Optional*) Waiting ICX Scheduled date" style="rounded=1;whiteSpace=wrap;html=1;fillColor=#d5e8d4;strokeColor=#82b366;" parent="JmEIFxHQnl5Z78E1Pm7d-71" vertex="1">
          <mxGeometry x="465.5" y="30" width="120" height="40" as="geometry" />
        </mxCell>
        <mxCell id="JmEIFxHQnl5Z78E1Pm7d-73" value="WebMethods" style="swimlane;horizontal=0;fontSize=13;dashed=1;startSize=23;" parent="1" vertex="1">
          <mxGeometry x="1724.5" y="-1856" width="821" height="101" as="geometry">
            <mxRectangle x="40" y="40" width="30" height="90" as="alternateBounds" />
          </mxGeometry>
        </mxCell>
        <mxCell id="JmEIFxHQnl5Z78E1Pm7d-74" value="CV" style="swimlane;horizontal=0;fontSize=13;dashed=1;startSize=23;" parent="1" vertex="1">
          <mxGeometry x="1724" y="-1971" width="821.5" height="114" as="geometry">
            <mxRectangle x="40" y="40" width="30" height="90" as="alternateBounds" />
          </mxGeometry>
        </mxCell>
        <mxCell id="JmEIFxHQnl5Z78E1Pm7d-75" style="edgeStyle=orthogonalEdgeStyle;rounded=0;orthogonalLoop=1;jettySize=auto;html=1;exitX=0.5;exitY=1;exitDx=0;exitDy=0;" parent="JmEIFxHQnl5Z78E1Pm7d-74" edge="1">
          <mxGeometry relative="1" as="geometry">
            <mxPoint x="295.5" y="63" as="sourcePoint" />
            <mxPoint x="295.5" y="63" as="targetPoint" />
          </mxGeometry>
        </mxCell>
        <mxCell id="JmEIFxHQnl5Z78E1Pm7d-77" value="Milestones" style="swimlane;horizontal=0;fontSize=13;dashed=1;" parent="1" vertex="1">
          <mxGeometry x="1724.5" y="-2087" width="821.5" height="116" as="geometry">
            <mxRectangle x="40" y="40" width="30" height="90" as="alternateBounds" />
          </mxGeometry>
        </mxCell>
        <mxCell id="JmEIFxHQnl5Z78E1Pm7d-78" value="Start Order" style="rounded=1;whiteSpace=wrap;html=1;fillColor=#dae8fc;strokeColor=#6c8ebf;" parent="JmEIFxHQnl5Z78E1Pm7d-77" vertex="1">
          <mxGeometry x="61" y="27" width="120" height="40" as="geometry" />
        </mxCell>
        <mxCell id="JmEIFxHQnl5Z78E1Pm7d-79" value="End Order" style="rounded=1;whiteSpace=wrap;html=1;fillColor=#dae8fc;strokeColor=#6c8ebf;" parent="JmEIFxHQnl5Z78E1Pm7d-77" vertex="1">
          <mxGeometry x="670" y="25" width="120" height="40" as="geometry" />
        </mxCell>
        <mxCell id="JmEIFxHQnl5Z78E1Pm7d-80" style="edgeStyle=orthogonalEdgeStyle;rounded=0;orthogonalLoop=1;jettySize=auto;html=1;entryX=0.433;entryY=0.038;entryDx=0;entryDy=0;entryPerimeter=0;" parent="1" source="JmEIFxHQnl5Z78E1Pm7d-78" target="JmEIFxHQnl5Z78E1Pm7d-69" edge="1">
          <mxGeometry relative="1" as="geometry">
            <mxPoint x="1825.5" y="-1822" as="targetPoint" />
          </mxGeometry>
        </mxCell>
        <mxCell id="xhMMg1iWCHHjED28lBxq-6" style="edgeStyle=orthogonalEdgeStyle;rounded=0;orthogonalLoop=1;jettySize=auto;html=1;exitX=0.5;exitY=0;exitDx=0;exitDy=0;entryX=0.5;entryY=1;entryDx=0;entryDy=0;" parent="1" source="JmEIFxHQnl5Z78E1Pm7d-83" target="JmEIFxHQnl5Z78E1Pm7d-85" edge="1">
          <mxGeometry relative="1" as="geometry" />
        </mxCell>
        <mxCell id="JmEIFxHQnl5Z78E1Pm7d-83" value="Send Payment Link to the customer" style="rounded=1;whiteSpace=wrap;html=1;fillColor=#ffe6cc;strokeColor=#d79b00;" parent="1" vertex="1">
          <mxGeometry x="1991.5" y="-1551" width="120" height="40" as="geometry" />
        </mxCell>
        <mxCell id="JmEIFxHQnl5Z78E1Pm7d-89" value="" style="group" parent="1" connectable="0" vertex="1">
          <mxGeometry x="2270" y="-1392" width="245" height="138" as="geometry" />
        </mxCell>
        <mxCell id="JmEIFxHQnl5Z78E1Pm7d-90" value="" style="rounded=1;whiteSpace=wrap;html=1;fillColor=#e1d5e7;strokeColor=#9673a6;" parent="JmEIFxHQnl5Z78E1Pm7d-89" vertex="1">
          <mxGeometry y="29" width="50" height="20" as="geometry" />
        </mxCell>
        <mxCell id="JmEIFxHQnl5Z78E1Pm7d-91" value="Callouts To 3P External Systems" style="text;html=1;align=center;verticalAlign=middle;resizable=0;points=[];autosize=1;strokeColor=none;" parent="JmEIFxHQnl5Z78E1Pm7d-89" vertex="1">
          <mxGeometry x="52" y="30" width="184" height="18" as="geometry" />
        </mxCell>
        <mxCell id="JmEIFxHQnl5Z78E1Pm7d-92" value="" style="group" parent="JmEIFxHQnl5Z78E1Pm7d-89" connectable="0" vertex="1">
          <mxGeometry width="240" height="138" as="geometry" />
        </mxCell>
        <mxCell id="JmEIFxHQnl5Z78E1Pm7d-93" value="" style="group" parent="JmEIFxHQnl5Z78E1Pm7d-92" connectable="0" vertex="1">
          <mxGeometry width="230" height="111" as="geometry" />
        </mxCell>
        <mxCell id="JmEIFxHQnl5Z78E1Pm7d-94" value="" style="group" parent="JmEIFxHQnl5Z78E1Pm7d-93" connectable="0" vertex="1">
          <mxGeometry y="58" width="230" height="53" as="geometry" />
        </mxCell>
        <mxCell id="JmEIFxHQnl5Z78E1Pm7d-95" value="" style="rounded=1;whiteSpace=wrap;html=1;fillColor=#ffe6cc;strokeColor=#d79b00;" parent="JmEIFxHQnl5Z78E1Pm7d-94" vertex="1">
          <mxGeometry width="50" height="20" as="geometry" />
        </mxCell>
        <mxCell id="JmEIFxHQnl5Z78E1Pm7d-96" value="Callouts To MC External Systems" style="text;html=1;align=center;verticalAlign=middle;resizable=0;points=[];autosize=1;strokeColor=none;" parent="JmEIFxHQnl5Z78E1Pm7d-94" vertex="1">
          <mxGeometry x="51" width="190" height="20" as="geometry" />
        </mxCell>
        <mxCell id="JmEIFxHQnl5Z78E1Pm7d-97" value="" style="rounded=1;whiteSpace=wrap;html=1;fillColor=#d5e8d4;strokeColor=#82b366;" parent="JmEIFxHQnl5Z78E1Pm7d-94" vertex="1">
          <mxGeometry y="30" width="50" height="20" as="geometry" />
        </mxCell>
        <mxCell id="JmEIFxHQnl5Z78E1Pm7d-98" value="Salesforce Internal Action" style="text;html=1;align=center;verticalAlign=middle;resizable=0;points=[];autosize=1;strokeColor=none;" parent="JmEIFxHQnl5Z78E1Pm7d-94" vertex="1">
          <mxGeometry x="53" y="27" width="154" height="26" as="geometry" />
        </mxCell>
        <mxCell id="JmEIFxHQnl5Z78E1Pm7d-99" value="&lt;b&gt;Legend&lt;/b&gt;" style="text;html=1;align=center;verticalAlign=middle;resizable=0;points=[];autosize=1;strokeColor=none;" parent="JmEIFxHQnl5Z78E1Pm7d-93" vertex="1">
          <mxGeometry width="60" height="20" as="geometry" />
        </mxCell>
        <mxCell id="JmEIFxHQnl5Z78E1Pm7d-100" value="" style="rounded=1;whiteSpace=wrap;html=1;fillColor=#dae8fc;strokeColor=#6c8ebf;" parent="JmEIFxHQnl5Z78E1Pm7d-92" vertex="1">
          <mxGeometry y="118" width="50" height="20" as="geometry" />
        </mxCell>
        <mxCell id="JmEIFxHQnl5Z78E1Pm7d-101" value="Milestones" style="text;html=1;align=left;verticalAlign=middle;resizable=0;points=[];autosize=1;strokeColor=none;" parent="JmEIFxHQnl5Z78E1Pm7d-92" vertex="1">
          <mxGeometry x="57.5" y="118" width="70" height="20" as="geometry" />
        </mxCell>
        <mxCell id="JmEIFxHQnl5Z78E1Pm7d-102" value="" style="rounded=1;whiteSpace=wrap;html=1;sketch=1;" parent="JmEIFxHQnl5Z78E1Pm7d-92" vertex="1">
          <mxGeometry x="139" y="118" width="50" height="20" as="geometry" />
        </mxCell>
        <mxCell id="JmEIFxHQnl5Z78E1Pm7d-103" value="Call-in" style="text;html=1;align=center;verticalAlign=middle;resizable=0;points=[];autosize=1;strokeColor=none;fillColor=none;" parent="JmEIFxHQnl5Z78E1Pm7d-92" vertex="1">
          <mxGeometry x="196" y="119" width="44" height="18" as="geometry" />
        </mxCell>
        <mxCell id="JmEIFxHQnl5Z78E1Pm7d-104" value="" style="rounded=1;whiteSpace=wrap;html=1;fillColor=#bac8d3;strokeColor=#23445d;" parent="1" vertex="1">
          <mxGeometry x="2270" y="-1244" width="50" height="20" as="geometry" />
        </mxCell>
        <mxCell id="JmEIFxHQnl5Z78E1Pm7d-105" value="Callouts To&amp;nbsp;3rd Party External Systems" style="text;html=1;align=center;verticalAlign=middle;resizable=0;points=[];autosize=1;strokeColor=none;" parent="1" vertex="1">
          <mxGeometry x="2323" y="-1248" width="226" height="26" as="geometry" />
        </mxCell>
        <mxCell id="JmEIFxHQnl5Z78E1Pm7d-106" value="" style="group" parent="1" connectable="0" vertex="1">
          <mxGeometry x="1250.5" y="-256" width="245" height="138" as="geometry" />
        </mxCell>
        <mxCell id="JmEIFxHQnl5Z78E1Pm7d-107" value="" style="rounded=1;whiteSpace=wrap;html=1;fillColor=#e1d5e7;strokeColor=#9673a6;" parent="JmEIFxHQnl5Z78E1Pm7d-106" vertex="1">
          <mxGeometry y="29" width="50" height="20" as="geometry" />
        </mxCell>
        <mxCell id="JmEIFxHQnl5Z78E1Pm7d-108" value="Callouts To 3P External Systems" style="text;html=1;align=center;verticalAlign=middle;resizable=0;points=[];autosize=1;strokeColor=none;" parent="JmEIFxHQnl5Z78E1Pm7d-106" vertex="1">
          <mxGeometry x="52" y="30" width="184" height="18" as="geometry" />
        </mxCell>
        <mxCell id="JmEIFxHQnl5Z78E1Pm7d-109" value="" style="group" parent="JmEIFxHQnl5Z78E1Pm7d-106" connectable="0" vertex="1">
          <mxGeometry width="240" height="138" as="geometry" />
        </mxCell>
        <mxCell id="JmEIFxHQnl5Z78E1Pm7d-110" value="" style="group" parent="JmEIFxHQnl5Z78E1Pm7d-109" connectable="0" vertex="1">
          <mxGeometry width="230" height="111" as="geometry" />
        </mxCell>
        <mxCell id="JmEIFxHQnl5Z78E1Pm7d-111" value="" style="group" parent="JmEIFxHQnl5Z78E1Pm7d-110" connectable="0" vertex="1">
          <mxGeometry y="58" width="230" height="53" as="geometry" />
        </mxCell>
        <mxCell id="JmEIFxHQnl5Z78E1Pm7d-112" value="" style="rounded=1;whiteSpace=wrap;html=1;fillColor=#ffe6cc;strokeColor=#d79b00;" parent="JmEIFxHQnl5Z78E1Pm7d-111" vertex="1">
          <mxGeometry width="50" height="20" as="geometry" />
        </mxCell>
        <mxCell id="JmEIFxHQnl5Z78E1Pm7d-113" value="Callouts To MC External Systems" style="text;html=1;align=center;verticalAlign=middle;resizable=0;points=[];autosize=1;strokeColor=none;" parent="JmEIFxHQnl5Z78E1Pm7d-111" vertex="1">
          <mxGeometry x="51" width="190" height="20" as="geometry" />
        </mxCell>
        <mxCell id="JmEIFxHQnl5Z78E1Pm7d-114" value="" style="rounded=1;whiteSpace=wrap;html=1;fillColor=#d5e8d4;strokeColor=#82b366;" parent="JmEIFxHQnl5Z78E1Pm7d-111" vertex="1">
          <mxGeometry y="30" width="50" height="20" as="geometry" />
        </mxCell>
        <mxCell id="JmEIFxHQnl5Z78E1Pm7d-115" value="Salesforce Internal Action" style="text;html=1;align=center;verticalAlign=middle;resizable=0;points=[];autosize=1;strokeColor=none;" parent="JmEIFxHQnl5Z78E1Pm7d-111" vertex="1">
          <mxGeometry x="53" y="27" width="154" height="26" as="geometry" />
        </mxCell>
        <mxCell id="JmEIFxHQnl5Z78E1Pm7d-116" value="&lt;b&gt;Legend&lt;/b&gt;" style="text;html=1;align=center;verticalAlign=middle;resizable=0;points=[];autosize=1;strokeColor=none;" parent="JmEIFxHQnl5Z78E1Pm7d-110" vertex="1">
          <mxGeometry width="60" height="20" as="geometry" />
        </mxCell>
        <mxCell id="JmEIFxHQnl5Z78E1Pm7d-117" value="" style="rounded=1;whiteSpace=wrap;html=1;fillColor=#dae8fc;strokeColor=#6c8ebf;" parent="JmEIFxHQnl5Z78E1Pm7d-109" vertex="1">
          <mxGeometry y="118" width="50" height="20" as="geometry" />
        </mxCell>
        <mxCell id="JmEIFxHQnl5Z78E1Pm7d-118" value="Milestones" style="text;html=1;align=left;verticalAlign=middle;resizable=0;points=[];autosize=1;strokeColor=none;" parent="JmEIFxHQnl5Z78E1Pm7d-109" vertex="1">
          <mxGeometry x="57.5" y="118" width="70" height="20" as="geometry" />
        </mxCell>
        <mxCell id="JmEIFxHQnl5Z78E1Pm7d-119" value="" style="rounded=1;whiteSpace=wrap;html=1;sketch=1;" parent="JmEIFxHQnl5Z78E1Pm7d-109" vertex="1">
          <mxGeometry x="139" y="118" width="50" height="20" as="geometry" />
        </mxCell>
        <mxCell id="JmEIFxHQnl5Z78E1Pm7d-120" value="Call-in" style="text;html=1;align=center;verticalAlign=middle;resizable=0;points=[];autosize=1;strokeColor=none;fillColor=none;" parent="JmEIFxHQnl5Z78E1Pm7d-109" vertex="1">
          <mxGeometry x="196" y="119" width="44" height="18" as="geometry" />
        </mxCell>
        <mxCell id="JmEIFxHQnl5Z78E1Pm7d-122" value="" style="rounded=1;whiteSpace=wrap;html=1;fillColor=#bac8d3;strokeColor=#23445d;" parent="1" vertex="1">
          <mxGeometry x="1250.5" y="-108" width="50" height="20" as="geometry" />
        </mxCell>
        <mxCell id="JmEIFxHQnl5Z78E1Pm7d-123" value="Callouts To&amp;nbsp;3rd Party External Systems" style="text;html=1;align=center;verticalAlign=middle;resizable=0;points=[];autosize=1;strokeColor=none;" parent="1" vertex="1">
          <mxGeometry x="1303.5" y="-112" width="226" height="26" as="geometry" />
        </mxCell>
        <mxCell id="qOJOND1h9TPlWTjE-uad-1" style="edgeStyle=orthogonalEdgeStyle;rounded=0;orthogonalLoop=1;jettySize=auto;html=1;exitX=0.5;exitY=0;exitDx=0;exitDy=0;" parent="1" source="JmEIFxHQnl5Z78E1Pm7d-23" target="JmEIFxHQnl5Z78E1Pm7d-30" edge="1">
          <mxGeometry relative="1" as="geometry" />
        </mxCell>
        <mxCell id="qOJOND1h9TPlWTjE-uad-5" style="edgeStyle=orthogonalEdgeStyle;rounded=0;orthogonalLoop=1;jettySize=auto;html=1;exitX=0.5;exitY=1;exitDx=0;exitDy=0;entryX=0.5;entryY=0;entryDx=0;entryDy=0;" parent="1" source="JmEIFxHQnl5Z78E1Pm7d-29" target="JmEIFxHQnl5Z78E1Pm7d-20" edge="1">
          <mxGeometry relative="1" as="geometry" />
        </mxCell>
        <mxCell id="qOJOND1h9TPlWTjE-uad-7" style="edgeStyle=orthogonalEdgeStyle;rounded=0;orthogonalLoop=1;jettySize=auto;html=1;exitX=1;exitY=0.5;exitDx=0;exitDy=0;entryX=0;entryY=0.5;entryDx=0;entryDy=0;" parent="1" source="qOJOND1h9TPlWTjE-uad-3" target="qOJOND1h9TPlWTjE-uad-2" edge="1">
          <mxGeometry relative="1" as="geometry" />
        </mxCell>
        <mxCell id="qOJOND1h9TPlWTjE-uad-8" style="edgeStyle=orthogonalEdgeStyle;rounded=0;orthogonalLoop=1;jettySize=auto;html=1;exitX=1;exitY=0.5;exitDx=0;exitDy=0;entryX=0;entryY=0.5;entryDx=0;entryDy=0;" parent="1" source="qOJOND1h9TPlWTjE-uad-2" target="JmEIFxHQnl5Z78E1Pm7d-23" edge="1">
          <mxGeometry relative="1" as="geometry" />
        </mxCell>
        <mxCell id="qOJOND1h9TPlWTjE-uad-23" style="edgeStyle=orthogonalEdgeStyle;rounded=0;orthogonalLoop=1;jettySize=auto;html=1;exitX=0.5;exitY=0;exitDx=0;exitDy=0;entryX=0.5;entryY=1;entryDx=0;entryDy=0;" parent="1" source="JmEIFxHQnl5Z78E1Pm7d-56" target="JmEIFxHQnl5Z78E1Pm7d-63" edge="1">
          <mxGeometry relative="1" as="geometry" />
        </mxCell>
        <mxCell id="qOJOND1h9TPlWTjE-uad-27" style="edgeStyle=orthogonalEdgeStyle;rounded=0;orthogonalLoop=1;jettySize=auto;html=1;exitX=0.5;exitY=1;exitDx=0;exitDy=0;" parent="1" source="JmEIFxHQnl5Z78E1Pm7d-62" target="JmEIFxHQnl5Z78E1Pm7d-53" edge="1">
          <mxGeometry relative="1" as="geometry" />
        </mxCell>
        <mxCell id="qOJOND1h9TPlWTjE-uad-28" style="edgeStyle=orthogonalEdgeStyle;rounded=0;orthogonalLoop=1;jettySize=auto;html=1;exitX=1;exitY=0.5;exitDx=0;exitDy=0;entryX=0;entryY=0.5;entryDx=0;entryDy=0;" parent="1" source="qOJOND1h9TPlWTjE-uad-25" target="qOJOND1h9TPlWTjE-uad-24" edge="1">
          <mxGeometry relative="1" as="geometry" />
        </mxCell>
        <mxCell id="qOJOND1h9TPlWTjE-uad-30" style="edgeStyle=orthogonalEdgeStyle;rounded=0;orthogonalLoop=1;jettySize=auto;html=1;exitX=0.5;exitY=1;exitDx=0;exitDy=0;entryX=0.5;entryY=0;entryDx=0;entryDy=0;" parent="1" source="qOJOND1h9TPlWTjE-uad-24" target="qOJOND1h9TPlWTjE-uad-29" edge="1">
          <mxGeometry relative="1" as="geometry" />
        </mxCell>
        <mxCell id="qOJOND1h9TPlWTjE-uad-33" value="* Only if the change order is scheduled in ICX&lt;br style=&quot;background-color: rgb(248, 249, 250);&quot;&gt;&lt;br style=&quot;background-color: rgb(248, 249, 250);&quot;&gt;&lt;span style=&quot;background-color: rgb(248, 249, 250);&quot;&gt;** Only if the change order is NOT scheduled in ICX&lt;/span&gt;" style="text;html=1;strokeColor=none;fillColor=none;align=center;verticalAlign=middle;whiteSpace=wrap;rounded=0;" parent="1" vertex="1">
          <mxGeometry x="720" y="-1440" width="153" height="90" as="geometry" />
        </mxCell>
        <mxCell id="9hPpJKQxu_MBtK7HXHx7-1" value="ICX" style="swimlane;horizontal=0;fontSize=13;dashed=1;startSize=23;" parent="1" vertex="1">
          <mxGeometry x="-397" y="-1747" width="821" height="77" as="geometry">
            <mxRectangle x="40" y="40" width="30" height="90" as="alternateBounds" />
          </mxGeometry>
        </mxCell>
        <mxCell id="9hPpJKQxu_MBtK7HXHx7-2" value="Create Order on ICX" style="rounded=1;whiteSpace=wrap;html=1;fillColor=#ffe6cc;strokeColor=#d79b00;" parent="9hPpJKQxu_MBtK7HXHx7-1" vertex="1">
          <mxGeometry x="69" y="18.5" width="120" height="40" as="geometry" />
        </mxCell>
        <mxCell id="9hPpJKQxu_MBtK7HXHx7-3" value="Wait Billing Confirmation" style="rounded=1;whiteSpace=wrap;html=1;fillColor=#ffe6cc;strokeColor=#d79b00;gradientColor=none;" parent="9hPpJKQxu_MBtK7HXHx7-1" vertex="1">
          <mxGeometry x="273" y="18.5" width="120" height="40" as="geometry" />
        </mxCell>
        <mxCell id="9hPpJKQxu_MBtK7HXHx7-4" value="&lt;b&gt;&lt;font style=&quot;font-size: 12px&quot;&gt;SA Residential DVS Products: Order Provisioning Process for New Purchase - Clarity order&lt;/font&gt;&lt;/b&gt;" style="rounded=0;whiteSpace=wrap;html=1;fillColor=#f5f5f5;strokeColor=#666666;fontSize=11;fontColor=#333333;" parent="1" vertex="1">
          <mxGeometry x="-410" y="-2150" width="850" height="35" as="geometry" />
        </mxCell>
        <mxCell id="9hPpJKQxu_MBtK7HXHx7-5" value="UMF" style="swimlane;horizontal=0;dashed=1;startSize=23;" parent="1" vertex="1">
          <mxGeometry x="-397.5" y="-1570" width="820" height="102" as="geometry" />
        </mxCell>
        <mxCell id="9hPpJKQxu_MBtK7HXHx7-6" value="Send Payment Link to the customer" style="rounded=1;whiteSpace=wrap;html=1;fillColor=#ffe6cc;strokeColor=#d79b00;" parent="9hPpJKQxu_MBtK7HXHx7-5" vertex="1">
          <mxGeometry x="273.5" y="31" width="120" height="40" as="geometry" />
        </mxCell>
        <mxCell id="9hPpJKQxu_MBtK7HXHx7-7" value="Send Welcome Message" style="rounded=1;whiteSpace=wrap;html=1;fillColor=#ffe6cc;strokeColor=#d79b00;" parent="9hPpJKQxu_MBtK7HXHx7-5" vertex="1">
          <mxGeometry x="476.5" y="31" width="120" height="40" as="geometry" />
        </mxCell>
        <mxCell id="9hPpJKQxu_MBtK7HXHx7-8" value="Salesforce" style="swimlane;horizontal=0;container=0;dashed=1;" parent="1" vertex="1">
          <mxGeometry x="-397" y="-1670" width="820" height="100" as="geometry" />
        </mxCell>
        <mxCell id="9hPpJKQxu_MBtK7HXHx7-9" value="Assetize" style="rounded=1;whiteSpace=wrap;html=1;fillColor=#d5e8d4;strokeColor=#82b366;" parent="9hPpJKQxu_MBtK7HXHx7-8" vertex="1">
          <mxGeometry x="670" y="30" width="120" height="40" as="geometry" />
        </mxCell>
        <mxCell id="9hPpJKQxu_MBtK7HXHx7-10" value="Generate Payment Link" style="rounded=1;whiteSpace=wrap;html=1;fillColor=#d5e8d4;strokeColor=#82b366;" parent="9hPpJKQxu_MBtK7HXHx7-8" vertex="1">
          <mxGeometry x="69" y="30" width="120" height="40" as="geometry" />
        </mxCell>
        <mxCell id="9hPpJKQxu_MBtK7HXHx7-11" value="WebMethods" style="swimlane;horizontal=0;fontSize=13;dashed=1;startSize=23;" parent="1" vertex="1">
          <mxGeometry x="-397" y="-1848" width="821" height="101" as="geometry">
            <mxRectangle x="40" y="40" width="30" height="90" as="alternateBounds" />
          </mxGeometry>
        </mxCell>
        <mxCell id="9hPpJKQxu_MBtK7HXHx7-12" value="CV" style="swimlane;horizontal=0;fontSize=13;dashed=1;startSize=23;" parent="1" vertex="1">
          <mxGeometry x="-397.5" y="-1963" width="821.5" height="114" as="geometry">
            <mxRectangle x="40" y="40" width="30" height="90" as="alternateBounds" />
          </mxGeometry>
        </mxCell>
        <mxCell id="9hPpJKQxu_MBtK7HXHx7-13" style="edgeStyle=orthogonalEdgeStyle;rounded=0;orthogonalLoop=1;jettySize=auto;html=1;exitX=0.5;exitY=1;exitDx=0;exitDy=0;" parent="9hPpJKQxu_MBtK7HXHx7-12" edge="1">
          <mxGeometry relative="1" as="geometry">
            <mxPoint x="302.5" y="63" as="sourcePoint" />
            <mxPoint x="302.5" y="63" as="targetPoint" />
          </mxGeometry>
        </mxCell>
        <mxCell id="9hPpJKQxu_MBtK7HXHx7-14" value="Generate Activation URL" style="rounded=1;whiteSpace=wrap;html=1;fillColor=#ffe6cc;strokeColor=#d79b00;gradientColor=none;" parent="9hPpJKQxu_MBtK7HXHx7-12" vertex="1">
          <mxGeometry x="273.5" y="37" width="120" height="40" as="geometry" />
        </mxCell>
        <mxCell id="9hPpJKQxu_MBtK7HXHx7-15" value="Milestones" style="swimlane;horizontal=0;fontSize=13;dashed=1;" parent="1" vertex="1">
          <mxGeometry x="-397" y="-2079" width="821.5" height="116" as="geometry">
            <mxRectangle x="40" y="40" width="30" height="90" as="alternateBounds" />
          </mxGeometry>
        </mxCell>
        <mxCell id="9hPpJKQxu_MBtK7HXHx7-16" value="Start Order" style="rounded=1;whiteSpace=wrap;html=1;fillColor=#dae8fc;strokeColor=#6c8ebf;" parent="9hPpJKQxu_MBtK7HXHx7-15" vertex="1">
          <mxGeometry x="69" y="27" width="120" height="40" as="geometry" />
        </mxCell>
        <mxCell id="9hPpJKQxu_MBtK7HXHx7-17" value="End Order" style="rounded=1;whiteSpace=wrap;html=1;fillColor=#dae8fc;strokeColor=#6c8ebf;" parent="9hPpJKQxu_MBtK7HXHx7-15" vertex="1">
          <mxGeometry x="670" y="25" width="120" height="40" as="geometry" />
        </mxCell>
        <mxCell id="9hPpJKQxu_MBtK7HXHx7-18" style="edgeStyle=orthogonalEdgeStyle;rounded=0;orthogonalLoop=1;jettySize=auto;html=1;exitX=0.5;exitY=0;exitDx=0;exitDy=0;" parent="1" source="9hPpJKQxu_MBtK7HXHx7-9" target="9hPpJKQxu_MBtK7HXHx7-17" edge="1">
          <mxGeometry relative="1" as="geometry" />
        </mxCell>
        <mxCell id="9hPpJKQxu_MBtK7HXHx7-19" style="edgeStyle=orthogonalEdgeStyle;rounded=0;orthogonalLoop=1;jettySize=auto;html=1;exitX=0.5;exitY=1;exitDx=0;exitDy=0;entryX=0.5;entryY=0;entryDx=0;entryDy=0;" parent="1" source="9hPpJKQxu_MBtK7HXHx7-2" target="9hPpJKQxu_MBtK7HXHx7-10" edge="1">
          <mxGeometry relative="1" as="geometry" />
        </mxCell>
        <mxCell id="9hPpJKQxu_MBtK7HXHx7-20" style="edgeStyle=orthogonalEdgeStyle;rounded=0;orthogonalLoop=1;jettySize=auto;html=1;exitX=0.5;exitY=1;exitDx=0;exitDy=0;entryX=0.5;entryY=0;entryDx=0;entryDy=0;" parent="1" source="9hPpJKQxu_MBtK7HXHx7-16" target="9hPpJKQxu_MBtK7HXHx7-2" edge="1">
          <mxGeometry relative="1" as="geometry" />
        </mxCell>
        <mxCell id="9hPpJKQxu_MBtK7HXHx7-21" style="edgeStyle=orthogonalEdgeStyle;rounded=0;orthogonalLoop=1;jettySize=auto;html=1;exitX=0.5;exitY=1;exitDx=0;exitDy=0;entryX=0;entryY=0.5;entryDx=0;entryDy=0;" parent="1" source="9hPpJKQxu_MBtK7HXHx7-10" target="9hPpJKQxu_MBtK7HXHx7-6" edge="1">
          <mxGeometry relative="1" as="geometry" />
        </mxCell>
        <mxCell id="9hPpJKQxu_MBtK7HXHx7-22" style="edgeStyle=orthogonalEdgeStyle;rounded=0;orthogonalLoop=1;jettySize=auto;html=1;exitX=0.5;exitY=0;exitDx=0;exitDy=0;" parent="1" source="9hPpJKQxu_MBtK7HXHx7-6" target="9hPpJKQxu_MBtK7HXHx7-3" edge="1">
          <mxGeometry relative="1" as="geometry" />
        </mxCell>
        <mxCell id="9hPpJKQxu_MBtK7HXHx7-23" style="edgeStyle=orthogonalEdgeStyle;rounded=0;orthogonalLoop=1;jettySize=auto;html=1;exitX=0.5;exitY=0;exitDx=0;exitDy=0;entryX=0.5;entryY=1;entryDx=0;entryDy=0;" parent="1" source="9hPpJKQxu_MBtK7HXHx7-3" target="9hPpJKQxu_MBtK7HXHx7-14" edge="1">
          <mxGeometry relative="1" as="geometry" />
        </mxCell>
        <mxCell id="9hPpJKQxu_MBtK7HXHx7-24" style="edgeStyle=orthogonalEdgeStyle;rounded=0;orthogonalLoop=1;jettySize=auto;html=1;exitX=1;exitY=0.5;exitDx=0;exitDy=0;" parent="1" source="9hPpJKQxu_MBtK7HXHx7-14" target="9hPpJKQxu_MBtK7HXHx7-7" edge="1">
          <mxGeometry relative="1" as="geometry" />
        </mxCell>
        <mxCell id="9hPpJKQxu_MBtK7HXHx7-25" style="edgeStyle=orthogonalEdgeStyle;rounded=0;orthogonalLoop=1;jettySize=auto;html=1;exitX=1;exitY=0.5;exitDx=0;exitDy=0;entryX=0.5;entryY=1;entryDx=0;entryDy=0;" parent="1" source="9hPpJKQxu_MBtK7HXHx7-7" target="9hPpJKQxu_MBtK7HXHx7-9" edge="1">
          <mxGeometry relative="1" as="geometry" />
        </mxCell>
        <mxCell id="9hPpJKQxu_MBtK7HXHx7-26" value="" style="group" parent="1" connectable="0" vertex="1">
          <mxGeometry x="146" y="-1399.5" width="245" height="138" as="geometry" />
        </mxCell>
        <mxCell id="9hPpJKQxu_MBtK7HXHx7-27" value="" style="rounded=1;whiteSpace=wrap;html=1;fillColor=#e1d5e7;strokeColor=#9673a6;" parent="9hPpJKQxu_MBtK7HXHx7-26" vertex="1">
          <mxGeometry y="29" width="50" height="20" as="geometry" />
        </mxCell>
        <mxCell id="9hPpJKQxu_MBtK7HXHx7-28" value="Callouts To 3P External Systems" style="text;html=1;align=center;verticalAlign=middle;resizable=0;points=[];autosize=1;strokeColor=none;" parent="9hPpJKQxu_MBtK7HXHx7-26" vertex="1">
          <mxGeometry x="52" y="30" width="184" height="18" as="geometry" />
        </mxCell>
        <mxCell id="9hPpJKQxu_MBtK7HXHx7-29" value="" style="group" parent="9hPpJKQxu_MBtK7HXHx7-26" connectable="0" vertex="1">
          <mxGeometry width="240" height="138" as="geometry" />
        </mxCell>
        <mxCell id="9hPpJKQxu_MBtK7HXHx7-30" value="" style="group" parent="9hPpJKQxu_MBtK7HXHx7-29" connectable="0" vertex="1">
          <mxGeometry width="230" height="111" as="geometry" />
        </mxCell>
        <mxCell id="9hPpJKQxu_MBtK7HXHx7-31" value="" style="group" parent="9hPpJKQxu_MBtK7HXHx7-30" connectable="0" vertex="1">
          <mxGeometry y="58" width="230" height="53" as="geometry" />
        </mxCell>
        <mxCell id="9hPpJKQxu_MBtK7HXHx7-32" value="" style="rounded=1;whiteSpace=wrap;html=1;fillColor=#ffe6cc;strokeColor=#d79b00;" parent="9hPpJKQxu_MBtK7HXHx7-31" vertex="1">
          <mxGeometry width="50" height="20" as="geometry" />
        </mxCell>
        <mxCell id="9hPpJKQxu_MBtK7HXHx7-33" value="Callouts To MC External Systems" style="text;html=1;align=center;verticalAlign=middle;resizable=0;points=[];autosize=1;strokeColor=none;" parent="9hPpJKQxu_MBtK7HXHx7-31" vertex="1">
          <mxGeometry x="51" width="190" height="20" as="geometry" />
        </mxCell>
        <mxCell id="9hPpJKQxu_MBtK7HXHx7-34" value="" style="rounded=1;whiteSpace=wrap;html=1;fillColor=#d5e8d4;strokeColor=#82b366;" parent="9hPpJKQxu_MBtK7HXHx7-31" vertex="1">
          <mxGeometry y="30" width="50" height="20" as="geometry" />
        </mxCell>
        <mxCell id="9hPpJKQxu_MBtK7HXHx7-35" value="Salesforce Internal Action" style="text;html=1;align=center;verticalAlign=middle;resizable=0;points=[];autosize=1;strokeColor=none;" parent="9hPpJKQxu_MBtK7HXHx7-31" vertex="1">
          <mxGeometry x="53" y="27" width="154" height="26" as="geometry" />
        </mxCell>
        <mxCell id="9hPpJKQxu_MBtK7HXHx7-36" value="&lt;b&gt;Legend&lt;/b&gt;" style="text;html=1;align=center;verticalAlign=middle;resizable=0;points=[];autosize=1;strokeColor=none;" parent="9hPpJKQxu_MBtK7HXHx7-30" vertex="1">
          <mxGeometry width="60" height="20" as="geometry" />
        </mxCell>
        <mxCell id="9hPpJKQxu_MBtK7HXHx7-37" value="" style="rounded=1;whiteSpace=wrap;html=1;fillColor=#dae8fc;strokeColor=#6c8ebf;" parent="9hPpJKQxu_MBtK7HXHx7-29" vertex="1">
          <mxGeometry y="118" width="50" height="20" as="geometry" />
        </mxCell>
        <mxCell id="9hPpJKQxu_MBtK7HXHx7-38" value="Milestones" style="text;html=1;align=left;verticalAlign=middle;resizable=0;points=[];autosize=1;strokeColor=none;" parent="9hPpJKQxu_MBtK7HXHx7-29" vertex="1">
          <mxGeometry x="57.5" y="118" width="70" height="20" as="geometry" />
        </mxCell>
        <mxCell id="9hPpJKQxu_MBtK7HXHx7-39" value="" style="rounded=1;whiteSpace=wrap;html=1;sketch=1;" parent="9hPpJKQxu_MBtK7HXHx7-29" vertex="1">
          <mxGeometry x="139" y="118" width="50" height="20" as="geometry" />
        </mxCell>
        <mxCell id="9hPpJKQxu_MBtK7HXHx7-40" value="Call-in" style="text;html=1;align=center;verticalAlign=middle;resizable=0;points=[];autosize=1;strokeColor=none;fillColor=none;" parent="9hPpJKQxu_MBtK7HXHx7-29" vertex="1">
          <mxGeometry x="196" y="119" width="44" height="18" as="geometry" />
        </mxCell>
        <mxCell id="9hPpJKQxu_MBtK7HXHx7-41" value="" style="rounded=1;whiteSpace=wrap;html=1;fillColor=#bac8d3;strokeColor=#23445d;" parent="1" vertex="1">
          <mxGeometry x="146" y="-1251.5" width="50" height="20" as="geometry" />
        </mxCell>
        <mxCell id="9hPpJKQxu_MBtK7HXHx7-42" value="Callouts To&amp;nbsp;3rd Party External Systems" style="text;html=1;align=center;verticalAlign=middle;resizable=0;points=[];autosize=1;strokeColor=none;" parent="1" vertex="1">
          <mxGeometry x="199" y="-1255.5" width="226" height="26" as="geometry" />
        </mxCell>
        <mxCell id="LxnEX4TQfZ6z-18JXDQl-3" style="edgeStyle=orthogonalEdgeStyle;rounded=0;orthogonalLoop=1;jettySize=auto;html=1;exitX=0.5;exitY=1;exitDx=0;exitDy=0;" parent="1" source="LxnEX4TQfZ6z-18JXDQl-1" target="qOJOND1h9TPlWTjE-uad-25" edge="1">
          <mxGeometry relative="1" as="geometry" />
        </mxCell>
        <mxCell id="Snpk4Yzh9CIFmsXGxEw1-2" value="&lt;b&gt;&lt;font style=&quot;font-size: 12px&quot;&gt;SA Residential DVS Products: Order Provisioning Process for Quantity Change - Clarity order&lt;/font&gt;&lt;/b&gt;" style="rounded=0;whiteSpace=wrap;html=1;fillColor=#f5f5f5;strokeColor=#666666;fontSize=11;fontColor=#333333;" parent="1" vertex="1">
          <mxGeometry x="1794.5" y="-1014" width="850" height="35" as="geometry" />
        </mxCell>
        <mxCell id="Snpk4Yzh9CIFmsXGxEw1-3" value="ICX" style="swimlane;horizontal=0;fontSize=13;dashed=1;startSize=23;" parent="1" vertex="1">
          <mxGeometry x="1800" y="-616" width="821" height="77" as="geometry">
            <mxRectangle x="40" y="40" width="30" height="90" as="alternateBounds" />
          </mxGeometry>
        </mxCell>
        <mxCell id="Snpk4Yzh9CIFmsXGxEw1-40" style="edgeStyle=orthogonalEdgeStyle;rounded=0;orthogonalLoop=1;jettySize=auto;html=1;exitX=1;exitY=0.5;exitDx=0;exitDy=0;entryX=0;entryY=0.5;entryDx=0;entryDy=0;" parent="Snpk4Yzh9CIFmsXGxEw1-3" source="Snpk4Yzh9CIFmsXGxEw1-4" target="Snpk4Yzh9CIFmsXGxEw1-5" edge="1">
          <mxGeometry relative="1" as="geometry" />
        </mxCell>
        <mxCell id="Snpk4Yzh9CIFmsXGxEw1-4" value="Change Quantity order to ICX" style="rounded=1;whiteSpace=wrap;html=1;fillColor=#ffe6cc;strokeColor=#d79b00;" parent="Snpk4Yzh9CIFmsXGxEw1-3" vertex="1">
          <mxGeometry x="69" y="18.5" width="120" height="40" as="geometry" />
        </mxCell>
        <mxCell id="Snpk4Yzh9CIFmsXGxEw1-5" value="Quote pre-activation to ICX" style="rounded=1;whiteSpace=wrap;html=1;fillColor=#ffe6cc;strokeColor=#d79b00;" parent="Snpk4Yzh9CIFmsXGxEw1-3" vertex="1">
          <mxGeometry x="364.5" y="18.5" width="120" height="40" as="geometry" />
        </mxCell>
        <mxCell id="Snpk4Yzh9CIFmsXGxEw1-6" value="UMF" style="swimlane;horizontal=0;dashed=1;startSize=23;" parent="1" vertex="1">
          <mxGeometry x="1799.5" y="-439" width="820" height="102" as="geometry" />
        </mxCell>
        <mxCell id="Snpk4Yzh9CIFmsXGxEw1-7" value="Salesforce" style="swimlane;horizontal=0;container=0;dashed=1;" parent="1" vertex="1">
          <mxGeometry x="1800" y="-539" width="820" height="100" as="geometry" />
        </mxCell>
        <mxCell id="Snpk4Yzh9CIFmsXGxEw1-8" value="Assetize" style="rounded=1;whiteSpace=wrap;html=1;fillColor=#d5e8d4;strokeColor=#82b366;" parent="Snpk4Yzh9CIFmsXGxEw1-7" vertex="1">
          <mxGeometry x="670" y="30" width="120" height="40" as="geometry" />
        </mxCell>
        <mxCell id="Snpk4Yzh9CIFmsXGxEw1-10" value="WebMethods" style="swimlane;horizontal=0;fontSize=13;dashed=1;startSize=23;" parent="1" vertex="1">
          <mxGeometry x="1800" y="-717" width="821" height="101" as="geometry">
            <mxRectangle x="40" y="40" width="30" height="90" as="alternateBounds" />
          </mxGeometry>
        </mxCell>
        <mxCell id="Snpk4Yzh9CIFmsXGxEw1-11" value="CV" style="swimlane;horizontal=0;fontSize=13;dashed=1;startSize=23;" parent="1" vertex="1">
          <mxGeometry x="1799.5" y="-832" width="821.5" height="114" as="geometry">
            <mxRectangle x="40" y="40" width="30" height="90" as="alternateBounds" />
          </mxGeometry>
        </mxCell>
        <mxCell id="Snpk4Yzh9CIFmsXGxEw1-12" style="edgeStyle=orthogonalEdgeStyle;rounded=0;orthogonalLoop=1;jettySize=auto;html=1;exitX=0.5;exitY=1;exitDx=0;exitDy=0;" parent="Snpk4Yzh9CIFmsXGxEw1-11" edge="1">
          <mxGeometry relative="1" as="geometry">
            <mxPoint x="295.5" y="63" as="sourcePoint" />
            <mxPoint x="295.5" y="63" as="targetPoint" />
          </mxGeometry>
        </mxCell>
        <mxCell id="Snpk4Yzh9CIFmsXGxEw1-14" value="Milestones" style="swimlane;horizontal=0;fontSize=13;dashed=1;" parent="1" vertex="1">
          <mxGeometry x="1800" y="-948" width="821.5" height="116" as="geometry">
            <mxRectangle x="40" y="40" width="30" height="90" as="alternateBounds" />
          </mxGeometry>
        </mxCell>
        <mxCell id="Snpk4Yzh9CIFmsXGxEw1-15" value="Start Order" style="rounded=1;whiteSpace=wrap;html=1;fillColor=#dae8fc;strokeColor=#6c8ebf;" parent="Snpk4Yzh9CIFmsXGxEw1-14" vertex="1">
          <mxGeometry x="69.5" y="38" width="120" height="40" as="geometry" />
        </mxCell>
        <mxCell id="Snpk4Yzh9CIFmsXGxEw1-16" value="End Order" style="rounded=1;whiteSpace=wrap;html=1;fillColor=#dae8fc;strokeColor=#6c8ebf;" parent="Snpk4Yzh9CIFmsXGxEw1-14" vertex="1">
          <mxGeometry x="670" y="38" width="120" height="40" as="geometry" />
        </mxCell>
        <mxCell id="Snpk4Yzh9CIFmsXGxEw1-17" value="" style="group" parent="1" connectable="0" vertex="1">
          <mxGeometry x="2399.5" y="-256" width="245" height="138" as="geometry" />
        </mxCell>
        <mxCell id="Snpk4Yzh9CIFmsXGxEw1-18" value="" style="rounded=1;whiteSpace=wrap;html=1;fillColor=#e1d5e7;strokeColor=#9673a6;" parent="Snpk4Yzh9CIFmsXGxEw1-17" vertex="1">
          <mxGeometry y="29" width="50" height="20" as="geometry" />
        </mxCell>
        <mxCell id="Snpk4Yzh9CIFmsXGxEw1-19" value="Callouts To 3P External Systems" style="text;html=1;align=center;verticalAlign=middle;resizable=0;points=[];autosize=1;strokeColor=none;" parent="Snpk4Yzh9CIFmsXGxEw1-17" vertex="1">
          <mxGeometry x="52" y="30" width="184" height="18" as="geometry" />
        </mxCell>
        <mxCell id="Snpk4Yzh9CIFmsXGxEw1-20" value="" style="group" parent="Snpk4Yzh9CIFmsXGxEw1-17" connectable="0" vertex="1">
          <mxGeometry width="240" height="138" as="geometry" />
        </mxCell>
        <mxCell id="Snpk4Yzh9CIFmsXGxEw1-21" value="" style="group" parent="Snpk4Yzh9CIFmsXGxEw1-20" connectable="0" vertex="1">
          <mxGeometry width="230" height="111" as="geometry" />
        </mxCell>
        <mxCell id="Snpk4Yzh9CIFmsXGxEw1-22" value="" style="group" parent="Snpk4Yzh9CIFmsXGxEw1-21" connectable="0" vertex="1">
          <mxGeometry y="58" width="230" height="53" as="geometry" />
        </mxCell>
        <mxCell id="Snpk4Yzh9CIFmsXGxEw1-23" value="" style="rounded=1;whiteSpace=wrap;html=1;fillColor=#ffe6cc;strokeColor=#d79b00;" parent="Snpk4Yzh9CIFmsXGxEw1-22" vertex="1">
          <mxGeometry width="50" height="20" as="geometry" />
        </mxCell>
        <mxCell id="Snpk4Yzh9CIFmsXGxEw1-24" value="Callouts To MC External Systems" style="text;html=1;align=center;verticalAlign=middle;resizable=0;points=[];autosize=1;strokeColor=none;" parent="Snpk4Yzh9CIFmsXGxEw1-22" vertex="1">
          <mxGeometry x="51" width="190" height="20" as="geometry" />
        </mxCell>
        <mxCell id="Snpk4Yzh9CIFmsXGxEw1-25" value="" style="rounded=1;whiteSpace=wrap;html=1;fillColor=#d5e8d4;strokeColor=#82b366;" parent="Snpk4Yzh9CIFmsXGxEw1-22" vertex="1">
          <mxGeometry y="30" width="50" height="20" as="geometry" />
        </mxCell>
        <mxCell id="Snpk4Yzh9CIFmsXGxEw1-26" value="Salesforce Internal Action" style="text;html=1;align=center;verticalAlign=middle;resizable=0;points=[];autosize=1;strokeColor=none;" parent="Snpk4Yzh9CIFmsXGxEw1-22" vertex="1">
          <mxGeometry x="53" y="27" width="154" height="26" as="geometry" />
        </mxCell>
        <mxCell id="Snpk4Yzh9CIFmsXGxEw1-27" value="&lt;b&gt;Legend&lt;/b&gt;" style="text;html=1;align=center;verticalAlign=middle;resizable=0;points=[];autosize=1;strokeColor=none;" parent="Snpk4Yzh9CIFmsXGxEw1-21" vertex="1">
          <mxGeometry width="60" height="20" as="geometry" />
        </mxCell>
        <mxCell id="Snpk4Yzh9CIFmsXGxEw1-28" value="" style="rounded=1;whiteSpace=wrap;html=1;fillColor=#dae8fc;strokeColor=#6c8ebf;" parent="Snpk4Yzh9CIFmsXGxEw1-20" vertex="1">
          <mxGeometry y="118" width="50" height="20" as="geometry" />
        </mxCell>
        <mxCell id="Snpk4Yzh9CIFmsXGxEw1-29" value="Milestones" style="text;html=1;align=left;verticalAlign=middle;resizable=0;points=[];autosize=1;strokeColor=none;" parent="Snpk4Yzh9CIFmsXGxEw1-20" vertex="1">
          <mxGeometry x="57.5" y="118" width="70" height="20" as="geometry" />
        </mxCell>
        <mxCell id="Snpk4Yzh9CIFmsXGxEw1-30" value="" style="rounded=1;whiteSpace=wrap;html=1;sketch=1;" parent="Snpk4Yzh9CIFmsXGxEw1-20" vertex="1">
          <mxGeometry x="139" y="118" width="50" height="20" as="geometry" />
        </mxCell>
        <mxCell id="Snpk4Yzh9CIFmsXGxEw1-31" value="Call-in" style="text;html=1;align=center;verticalAlign=middle;resizable=0;points=[];autosize=1;strokeColor=none;fillColor=none;" parent="Snpk4Yzh9CIFmsXGxEw1-20" vertex="1">
          <mxGeometry x="196" y="119" width="44" height="18" as="geometry" />
        </mxCell>
        <mxCell id="Snpk4Yzh9CIFmsXGxEw1-32" value="" style="rounded=1;whiteSpace=wrap;html=1;fillColor=#bac8d3;strokeColor=#23445d;" parent="1" vertex="1">
          <mxGeometry x="2399.5" y="-108" width="50" height="20" as="geometry" />
        </mxCell>
        <mxCell id="Snpk4Yzh9CIFmsXGxEw1-33" value="Callouts To&amp;nbsp;3rd Party External Systems" style="text;html=1;align=center;verticalAlign=middle;resizable=0;points=[];autosize=1;strokeColor=none;" parent="1" vertex="1">
          <mxGeometry x="2452.5" y="-112" width="226" height="26" as="geometry" />
        </mxCell>
        <mxCell id="Snpk4Yzh9CIFmsXGxEw1-34" style="edgeStyle=orthogonalEdgeStyle;rounded=0;orthogonalLoop=1;jettySize=auto;html=1;exitX=0.5;exitY=0;exitDx=0;exitDy=0;" parent="1" source="Snpk4Yzh9CIFmsXGxEw1-8" target="Snpk4Yzh9CIFmsXGxEw1-16" edge="1">
          <mxGeometry relative="1" as="geometry" />
        </mxCell>
        <mxCell id="Snpk4Yzh9CIFmsXGxEw1-36" style="edgeStyle=orthogonalEdgeStyle;rounded=0;orthogonalLoop=1;jettySize=auto;html=1;exitX=0.5;exitY=1;exitDx=0;exitDy=0;entryX=0.5;entryY=0;entryDx=0;entryDy=0;" parent="1" source="Snpk4Yzh9CIFmsXGxEw1-15" target="Snpk4Yzh9CIFmsXGxEw1-4" edge="1">
          <mxGeometry relative="1" as="geometry" />
        </mxCell>
        <mxCell id="Snpk4Yzh9CIFmsXGxEw1-38" style="edgeStyle=orthogonalEdgeStyle;rounded=0;orthogonalLoop=1;jettySize=auto;html=1;exitX=1;exitY=0.5;exitDx=0;exitDy=0;entryX=0;entryY=0.5;entryDx=0;entryDy=0;" parent="1" source="Snpk4Yzh9CIFmsXGxEw1-5" target="Snpk4Yzh9CIFmsXGxEw1-8" edge="1">
          <mxGeometry relative="1" as="geometry" />
        </mxCell>
        <mxCell id="xhMMg1iWCHHjED28lBxq-1" value="* Only if the change order is scheduled in ICX&lt;br style=&quot;background-color: rgb(248, 249, 250);&quot;&gt;&lt;br style=&quot;background-color: rgb(248, 249, 250);&quot;&gt;&lt;span style=&quot;background-color: rgb(248, 249, 250);&quot;&gt;** Only if the change order is NOT scheduled in ICX&lt;/span&gt;" style="text;html=1;strokeColor=none;fillColor=none;align=center;verticalAlign=middle;whiteSpace=wrap;rounded=0;" parent="1" vertex="1">
          <mxGeometry x="1820" y="-1440" width="153" height="90" as="geometry" />
        </mxCell>
        <mxCell id="xhMMg1iWCHHjED28lBxq-2" value="* Only if the change order is scheduled in ICX&lt;br style=&quot;background-color: rgb(248, 249, 250);&quot;&gt;&lt;br style=&quot;background-color: rgb(248, 249, 250);&quot;&gt;&lt;span style=&quot;background-color: rgb(248, 249, 250);&quot;&gt;** Only if the change order is NOT scheduled in ICX&lt;/span&gt;" style="text;html=1;strokeColor=none;fillColor=none;align=center;verticalAlign=middle;whiteSpace=wrap;rounded=0;" parent="1" vertex="1">
          <mxGeometry x="759.5" y="-293.5" width="153" height="90" as="geometry" />
        </mxCell>
        <mxCell id="xhMMg1iWCHHjED28lBxq-3" style="edgeStyle=orthogonalEdgeStyle;rounded=0;orthogonalLoop=1;jettySize=auto;html=1;exitX=0.5;exitY=1;exitDx=0;exitDy=0;entryX=0.5;entryY=0;entryDx=0;entryDy=0;" parent="1" source="JmEIFxHQnl5Z78E1Pm7d-69" target="JmEIFxHQnl5Z78E1Pm7d-82" edge="1">
          <mxGeometry relative="1" as="geometry" />
        </mxCell>
        <mxCell id="xhMMg1iWCHHjED28lBxq-4" style="edgeStyle=orthogonalEdgeStyle;rounded=0;orthogonalLoop=1;jettySize=auto;html=1;exitX=0.5;exitY=0;exitDx=0;exitDy=0;entryX=0.5;entryY=1;entryDx=0;entryDy=0;" parent="1" source="JmEIFxHQnl5Z78E1Pm7d-72" target="JmEIFxHQnl5Z78E1Pm7d-79" edge="1">
          <mxGeometry relative="1" as="geometry" />
        </mxCell>
        <mxCell id="xhMMg1iWCHHjED28lBxq-5" style="edgeStyle=orthogonalEdgeStyle;rounded=0;orthogonalLoop=1;jettySize=auto;html=1;exitX=0.5;exitY=1;exitDx=0;exitDy=0;entryX=0;entryY=0.5;entryDx=0;entryDy=0;" parent="1" source="JmEIFxHQnl5Z78E1Pm7d-82" target="JmEIFxHQnl5Z78E1Pm7d-83" edge="1">
          <mxGeometry relative="1" as="geometry" />
        </mxCell>
        <mxCell id="xhMMg1iWCHHjED28lBxq-9" style="edgeStyle=orthogonalEdgeStyle;rounded=0;orthogonalLoop=1;jettySize=auto;html=1;exitX=0.5;exitY=0;exitDx=0;exitDy=0;entryX=0.5;entryY=1;entryDx=0;entryDy=0;" parent="1" source="xhMMg1iWCHHjED28lBxq-7" target="xhMMg1iWCHHjED28lBxq-8" edge="1">
          <mxGeometry relative="1" as="geometry" />
        </mxCell>
        <mxCell id="xhMMg1iWCHHjED28lBxq-10" style="edgeStyle=orthogonalEdgeStyle;rounded=0;orthogonalLoop=1;jettySize=auto;html=1;exitX=1;exitY=0.5;exitDx=0;exitDy=0;entryX=0;entryY=0.5;entryDx=0;entryDy=0;" parent="1" source="JmEIFxHQnl5Z78E1Pm7d-85" target="xhMMg1iWCHHjED28lBxq-7" edge="1">
          <mxGeometry relative="1" as="geometry" />
        </mxCell>
        <mxCell id="xhMMg1iWCHHjED28lBxq-11" style="edgeStyle=orthogonalEdgeStyle;rounded=0;orthogonalLoop=1;jettySize=auto;html=1;exitX=1;exitY=0.5;exitDx=0;exitDy=0;entryX=0;entryY=0.5;entryDx=0;entryDy=0;" parent="1" source="xhMMg1iWCHHjED28lBxq-8" target="JmEIFxHQnl5Z78E1Pm7d-72" edge="1">
          <mxGeometry relative="1" as="geometry" />
        </mxCell>
        <mxCell id="ajNXpxrDXPO-2l0c0T4S-1" value="" style="group" parent="1" connectable="0" vertex="1">
          <mxGeometry x="147.5" y="-302" width="245" height="138" as="geometry" />
        </mxCell>
        <mxCell id="ajNXpxrDXPO-2l0c0T4S-2" value="" style="rounded=1;whiteSpace=wrap;html=1;fillColor=#e1d5e7;strokeColor=#9673a6;" parent="ajNXpxrDXPO-2l0c0T4S-1" vertex="1">
          <mxGeometry y="29" width="50" height="20" as="geometry" />
        </mxCell>
        <mxCell id="ajNXpxrDXPO-2l0c0T4S-3" value="Callouts To 3P External Systems" style="text;html=1;align=center;verticalAlign=middle;resizable=0;points=[];autosize=1;strokeColor=none;" parent="ajNXpxrDXPO-2l0c0T4S-1" vertex="1">
          <mxGeometry x="52" y="30" width="184" height="18" as="geometry" />
        </mxCell>
        <mxCell id="ajNXpxrDXPO-2l0c0T4S-4" value="" style="group" parent="ajNXpxrDXPO-2l0c0T4S-1" connectable="0" vertex="1">
          <mxGeometry width="240" height="138" as="geometry" />
        </mxCell>
        <mxCell id="ajNXpxrDXPO-2l0c0T4S-5" value="" style="group" parent="ajNXpxrDXPO-2l0c0T4S-4" connectable="0" vertex="1">
          <mxGeometry width="230" height="111" as="geometry" />
        </mxCell>
        <mxCell id="ajNXpxrDXPO-2l0c0T4S-6" value="" style="group" parent="ajNXpxrDXPO-2l0c0T4S-5" connectable="0" vertex="1">
          <mxGeometry y="58" width="230" height="53" as="geometry" />
        </mxCell>
        <mxCell id="ajNXpxrDXPO-2l0c0T4S-7" value="" style="rounded=1;whiteSpace=wrap;html=1;fillColor=#ffe6cc;strokeColor=#d79b00;" parent="ajNXpxrDXPO-2l0c0T4S-6" vertex="1">
          <mxGeometry width="50" height="20" as="geometry" />
        </mxCell>
        <mxCell id="ajNXpxrDXPO-2l0c0T4S-8" value="Callouts To MC External Systems" style="text;html=1;align=center;verticalAlign=middle;resizable=0;points=[];autosize=1;strokeColor=none;" parent="ajNXpxrDXPO-2l0c0T4S-6" vertex="1">
          <mxGeometry x="51" width="190" height="20" as="geometry" />
        </mxCell>
        <mxCell id="ajNXpxrDXPO-2l0c0T4S-9" value="" style="rounded=1;whiteSpace=wrap;html=1;fillColor=#d5e8d4;strokeColor=#82b366;" parent="ajNXpxrDXPO-2l0c0T4S-6" vertex="1">
          <mxGeometry y="30" width="50" height="20" as="geometry" />
        </mxCell>
        <mxCell id="ajNXpxrDXPO-2l0c0T4S-10" value="Salesforce Internal Action" style="text;html=1;align=center;verticalAlign=middle;resizable=0;points=[];autosize=1;strokeColor=none;" parent="ajNXpxrDXPO-2l0c0T4S-6" vertex="1">
          <mxGeometry x="53" y="27" width="154" height="26" as="geometry" />
        </mxCell>
        <mxCell id="ajNXpxrDXPO-2l0c0T4S-11" value="&lt;b&gt;Legend&lt;/b&gt;" style="text;html=1;align=center;verticalAlign=middle;resizable=0;points=[];autosize=1;strokeColor=none;" parent="ajNXpxrDXPO-2l0c0T4S-5" vertex="1">
          <mxGeometry width="60" height="20" as="geometry" />
        </mxCell>
        <mxCell id="ajNXpxrDXPO-2l0c0T4S-12" value="" style="rounded=1;whiteSpace=wrap;html=1;fillColor=#dae8fc;strokeColor=#6c8ebf;" parent="ajNXpxrDXPO-2l0c0T4S-4" vertex="1">
          <mxGeometry y="118" width="50" height="20" as="geometry" />
        </mxCell>
        <mxCell id="ajNXpxrDXPO-2l0c0T4S-13" value="Milestones" style="text;html=1;align=left;verticalAlign=middle;resizable=0;points=[];autosize=1;strokeColor=none;" parent="ajNXpxrDXPO-2l0c0T4S-4" vertex="1">
          <mxGeometry x="57.5" y="118" width="70" height="20" as="geometry" />
        </mxCell>
        <mxCell id="ajNXpxrDXPO-2l0c0T4S-14" value="" style="rounded=1;whiteSpace=wrap;html=1;sketch=1;" parent="ajNXpxrDXPO-2l0c0T4S-4" vertex="1">
          <mxGeometry x="139" y="118" width="50" height="20" as="geometry" />
        </mxCell>
        <mxCell id="ajNXpxrDXPO-2l0c0T4S-15" value="Call-in" style="text;html=1;align=center;verticalAlign=middle;resizable=0;points=[];autosize=1;strokeColor=none;fillColor=none;" parent="ajNXpxrDXPO-2l0c0T4S-4" vertex="1">
          <mxGeometry x="196" y="119" width="44" height="18" as="geometry" />
        </mxCell>
        <mxCell id="ajNXpxrDXPO-2l0c0T4S-16" value="ICX" style="swimlane;horizontal=0;fontSize=13;dashed=1;startSize=23;" parent="1" vertex="1">
          <mxGeometry x="-399.5" y="-657" width="821" height="77" as="geometry">
            <mxRectangle x="40" y="40" width="30" height="90" as="alternateBounds" />
          </mxGeometry>
        </mxCell>
        <mxCell id="ajNXpxrDXPO-2l0c0T4S-17" value="Add/Remove products order to ICX" style="rounded=1;whiteSpace=wrap;html=1;fillColor=#ffe6cc;strokeColor=#d79b00;" parent="ajNXpxrDXPO-2l0c0T4S-16" vertex="1">
          <mxGeometry x="69" y="18.5" width="120" height="40" as="geometry" />
        </mxCell>
        <mxCell id="ajNXpxrDXPO-2l0c0T4S-18" value="Wait Billing Confirmation*" style="rounded=1;whiteSpace=wrap;html=1;fillColor=#ffe6cc;strokeColor=#d79b00;" parent="ajNXpxrDXPO-2l0c0T4S-16" vertex="1">
          <mxGeometry x="346" y="18.5" width="120" height="40" as="geometry" />
        </mxCell>
        <mxCell id="ajNXpxrDXPO-2l0c0T4S-19" value="&lt;b&gt;&lt;font style=&quot;font-size: 12px&quot;&gt;SA Residential DVS Products: Order Provisioning Process for Add/rRemove product - Clarity order&lt;/font&gt;&lt;/b&gt;" style="rounded=0;whiteSpace=wrap;html=1;fillColor=#f5f5f5;strokeColor=#666666;fontSize=11;fontColor=#333333;" parent="1" vertex="1">
          <mxGeometry x="-412.5" y="-1060" width="850" height="35" as="geometry" />
        </mxCell>
        <mxCell id="ajNXpxrDXPO-2l0c0T4S-20" value="UMF" style="swimlane;horizontal=0;dashed=1;startSize=23;" parent="1" vertex="1">
          <mxGeometry x="-400" y="-480" width="820" height="102" as="geometry" />
        </mxCell>
        <mxCell id="ajNXpxrDXPO-2l0c0T4S-21" value="Salesforce" style="swimlane;horizontal=0;container=0;dashed=1;" parent="1" vertex="1">
          <mxGeometry x="-399.5" y="-580" width="820" height="100" as="geometry" />
        </mxCell>
        <mxCell id="ajNXpxrDXPO-2l0c0T4S-22" value="Assetize" style="rounded=1;whiteSpace=wrap;html=1;fillColor=#d5e8d4;strokeColor=#82b366;" parent="ajNXpxrDXPO-2l0c0T4S-21" vertex="1">
          <mxGeometry x="670" y="30" width="120" height="40" as="geometry" />
        </mxCell>
        <mxCell id="ajNXpxrDXPO-2l0c0T4S-23" value="WebMethods" style="swimlane;horizontal=0;fontSize=13;dashed=1;startSize=23;" parent="1" vertex="1">
          <mxGeometry x="-399.5" y="-758" width="821" height="101" as="geometry">
            <mxRectangle x="40" y="40" width="30" height="90" as="alternateBounds" />
          </mxGeometry>
        </mxCell>
        <mxCell id="ajNXpxrDXPO-2l0c0T4S-24" value="Queueing" style="swimlane;horizontal=0;fontSize=13;dashed=1;startSize=23;" parent="1" vertex="1">
          <mxGeometry x="-400" y="-873" width="821.5" height="114" as="geometry">
            <mxRectangle x="40" y="40" width="30" height="90" as="alternateBounds" />
          </mxGeometry>
        </mxCell>
        <mxCell id="ajNXpxrDXPO-2l0c0T4S-25" style="edgeStyle=orthogonalEdgeStyle;rounded=0;orthogonalLoop=1;jettySize=auto;html=1;exitX=0.5;exitY=1;exitDx=0;exitDy=0;" parent="ajNXpxrDXPO-2l0c0T4S-24" edge="1">
          <mxGeometry relative="1" as="geometry">
            <mxPoint x="295.5" y="63" as="sourcePoint" />
            <mxPoint x="295.5" y="63" as="targetPoint" />
          </mxGeometry>
        </mxCell>
        <mxCell id="ajNXpxrDXPO-2l0c0T4S-26" value="Wait Previous Change Order" style="rounded=1;whiteSpace=wrap;html=1;fillColor=#d5e8d4;strokeColor=#82b366;" parent="ajNXpxrDXPO-2l0c0T4S-24" vertex="1">
          <mxGeometry x="69.5" y="37" width="120" height="40" as="geometry" />
        </mxCell>
        <mxCell id="ajNXpxrDXPO-2l0c0T4S-27" value="Unblock Next Change Order" style="rounded=1;whiteSpace=wrap;html=1;fillColor=#d5e8d4;strokeColor=#82b366;" parent="ajNXpxrDXPO-2l0c0T4S-24" vertex="1">
          <mxGeometry x="670.5" y="34" width="120" height="40" as="geometry" />
        </mxCell>
        <mxCell id="ajNXpxrDXPO-2l0c0T4S-28" value="Milestones" style="swimlane;horizontal=0;fontSize=13;dashed=1;" parent="1" vertex="1">
          <mxGeometry x="-399.5" y="-989" width="821.5" height="116" as="geometry">
            <mxRectangle x="40" y="40" width="30" height="90" as="alternateBounds" />
          </mxGeometry>
        </mxCell>
        <mxCell id="ajNXpxrDXPO-2l0c0T4S-29" value="Start Order" style="rounded=1;whiteSpace=wrap;html=1;fillColor=#dae8fc;strokeColor=#6c8ebf;" parent="ajNXpxrDXPO-2l0c0T4S-28" vertex="1">
          <mxGeometry x="69" y="27" width="120" height="40" as="geometry" />
        </mxCell>
        <mxCell id="ajNXpxrDXPO-2l0c0T4S-30" value="End Order" style="rounded=1;whiteSpace=wrap;html=1;fillColor=#dae8fc;strokeColor=#6c8ebf;" parent="ajNXpxrDXPO-2l0c0T4S-28" vertex="1">
          <mxGeometry x="670" y="25" width="120" height="40" as="geometry" />
        </mxCell>
        <mxCell id="ajNXpxrDXPO-2l0c0T4S-31" value="" style="rounded=1;whiteSpace=wrap;html=1;fillColor=#bac8d3;strokeColor=#23445d;" parent="1" vertex="1">
          <mxGeometry x="147.5" y="-154" width="50" height="20" as="geometry" />
        </mxCell>
        <mxCell id="ajNXpxrDXPO-2l0c0T4S-32" value="Callouts To&amp;nbsp;3rd Party External Systems" style="text;html=1;align=center;verticalAlign=middle;resizable=0;points=[];autosize=1;strokeColor=none;" parent="1" vertex="1">
          <mxGeometry x="200.5" y="-158" width="226" height="26" as="geometry" />
        </mxCell>
        <mxCell id="ajNXpxrDXPO-2l0c0T4S-33" value="* Optional steps, only needed if there is a Flex product with Add action" style="text;html=1;strokeColor=none;fillColor=none;align=center;verticalAlign=middle;whiteSpace=wrap;rounded=0;" parent="1" vertex="1">
          <mxGeometry x="-289.5" y="-318" width="153" height="57" as="geometry" />
        </mxCell>
        <mxCell id="ajNXpxrDXPO-2l0c0T4S-34" style="edgeStyle=orthogonalEdgeStyle;rounded=0;orthogonalLoop=1;jettySize=auto;html=1;exitX=0.5;exitY=1;exitDx=0;exitDy=0;entryX=0.5;entryY=0;entryDx=0;entryDy=0;" parent="1" source="ajNXpxrDXPO-2l0c0T4S-29" target="ajNXpxrDXPO-2l0c0T4S-26" edge="1">
          <mxGeometry relative="1" as="geometry" />
        </mxCell>
        <mxCell id="ajNXpxrDXPO-2l0c0T4S-35" style="edgeStyle=orthogonalEdgeStyle;rounded=0;orthogonalLoop=1;jettySize=auto;html=1;exitX=0.5;exitY=0;exitDx=0;exitDy=0;entryX=0.5;entryY=1;entryDx=0;entryDy=0;" parent="1" source="ajNXpxrDXPO-2l0c0T4S-22" target="ajNXpxrDXPO-2l0c0T4S-27" edge="1">
          <mxGeometry relative="1" as="geometry" />
        </mxCell>
        <mxCell id="ajNXpxrDXPO-2l0c0T4S-36" style="edgeStyle=orthogonalEdgeStyle;rounded=0;orthogonalLoop=1;jettySize=auto;html=1;exitX=0.5;exitY=0;exitDx=0;exitDy=0;entryX=0.5;entryY=1;entryDx=0;entryDy=0;" parent="1" source="ajNXpxrDXPO-2l0c0T4S-27" target="ajNXpxrDXPO-2l0c0T4S-30" edge="1">
          <mxGeometry relative="1" as="geometry" />
        </mxCell>
        <mxCell id="ajNXpxrDXPO-2l0c0T4S-37" style="edgeStyle=orthogonalEdgeStyle;rounded=0;orthogonalLoop=1;jettySize=auto;html=1;exitX=0.5;exitY=1;exitDx=0;exitDy=0;" parent="1" source="ajNXpxrDXPO-2l0c0T4S-26" target="ajNXpxrDXPO-2l0c0T4S-17" edge="1">
          <mxGeometry relative="1" as="geometry" />
        </mxCell>
        <mxCell id="ajNXpxrDXPO-2l0c0T4S-38" style="edgeStyle=orthogonalEdgeStyle;rounded=0;orthogonalLoop=1;jettySize=auto;html=1;exitX=0.5;exitY=0;exitDx=0;exitDy=0;" parent="1" source="ajNXpxrDXPO-2l0c0T4S-39" target="ajNXpxrDXPO-2l0c0T4S-18" edge="1">
          <mxGeometry relative="1" as="geometry" />
        </mxCell>
        <mxCell id="ajNXpxrDXPO-2l0c0T4S-39" value="Send Payment Link to the customer*" style="rounded=1;whiteSpace=wrap;html=1;fillColor=#ffe6cc;strokeColor=#d79b00;" parent="1" vertex="1">
          <mxGeometry x="-53.5" y="-449" width="120" height="40" as="geometry" />
        </mxCell>
        <mxCell id="ajNXpxrDXPO-2l0c0T4S-40" value="Generate Payment Link*" style="rounded=1;whiteSpace=wrap;html=1;fillColor=#d5e8d4;strokeColor=#82b366;" parent="1" vertex="1">
          <mxGeometry x="-330.5" y="-550" width="120" height="40" as="geometry" />
        </mxCell>
        <mxCell id="ajNXpxrDXPO-2l0c0T4S-41" style="edgeStyle=orthogonalEdgeStyle;rounded=0;orthogonalLoop=1;jettySize=auto;html=1;exitX=0.5;exitY=1;exitDx=0;exitDy=0;entryX=0;entryY=0.5;entryDx=0;entryDy=0;" parent="1" source="ajNXpxrDXPO-2l0c0T4S-40" target="ajNXpxrDXPO-2l0c0T4S-39" edge="1">
          <mxGeometry relative="1" as="geometry" />
        </mxCell>
        <mxCell id="ajNXpxrDXPO-2l0c0T4S-42" style="edgeStyle=orthogonalEdgeStyle;rounded=0;orthogonalLoop=1;jettySize=auto;html=1;exitX=0.5;exitY=1;exitDx=0;exitDy=0;entryX=0.5;entryY=0;entryDx=0;entryDy=0;" parent="1" source="ajNXpxrDXPO-2l0c0T4S-17" target="ajNXpxrDXPO-2l0c0T4S-40" edge="1">
          <mxGeometry relative="1" as="geometry" />
        </mxCell>
        <mxCell id="ajNXpxrDXPO-2l0c0T4S-43" style="edgeStyle=orthogonalEdgeStyle;rounded=0;orthogonalLoop=1;jettySize=auto;html=1;exitX=1;exitY=0.5;exitDx=0;exitDy=0;entryX=0;entryY=0.5;entryDx=0;entryDy=0;" parent="1" source="ajNXpxrDXPO-2l0c0T4S-18" target="ajNXpxrDXPO-2l0c0T4S-22" edge="1">
          <mxGeometry relative="1" as="geometry" />
        </mxCell>
      </root>
    </mxGraphModel>
  </diagram>
</mxfile>
